solid OpenSCAD_Model
  facet normal -1 0 0
    outer loop
      vertex 0 0 0
      vertex 0 83 36
      vertex 0 83 0
    endloop
  endfacet
  facet normal -1 -0 0
    outer loop
      vertex 0 83 36
      vertex 0 0 0
      vertex 0 0 36
    endloop
  endfacet
  facet normal -0 0 1
    outer loop
      vertex 31 11 36
      vertex 35 8 36
      vertex 35 11 36
    endloop
  endfacet
  facet normal 0 0 1
    outer loop
      vertex 35 8 36
      vertex 31 11 36
      vertex 31 8 36
    endloop
  endfacet
  facet normal -0 0 1
    outer loop
      vertex 31 19 36
      vertex 35 16 36
      vertex 35 19 36
    endloop
  endfacet
  facet normal 0 0 1
    outer loop
      vertex 35 16 36
      vertex 31 19 36
      vertex 31 16 36
    endloop
  endfacet
  facet normal -0 0 1
    outer loop
      vertex 31 27 36
      vertex 35 24 36
      vertex 35 27 36
    endloop
  endfacet
  facet normal 0 0 1
    outer loop
      vertex 35 24 36
      vertex 31 27 36
      vertex 31 24 36
    endloop
  endfacet
  facet normal -0 0 1
    outer loop
      vertex 31 35 36
      vertex 35 32 36
      vertex 35 35 36
    endloop
  endfacet
  facet normal 0 0 1
    outer loop
      vertex 35 32 36
      vertex 31 35 36
      vertex 31 32 36
    endloop
  endfacet
  facet normal -0 0 1
    outer loop
      vertex 31 43 36
      vertex 35 40 36
      vertex 35 43 36
    endloop
  endfacet
  facet normal 0 0 1
    outer loop
      vertex 35 40 36
      vertex 31 43 36
      vertex 31 40 36
    endloop
  endfacet
  facet normal -0 0 1
    outer loop
      vertex 31 51 36
      vertex 35 48 36
      vertex 35 51 36
    endloop
  endfacet
  facet normal 0 0 1
    outer loop
      vertex 35 48 36
      vertex 31 51 36
      vertex 31 48 36
    endloop
  endfacet
  facet normal -0 0 1
    outer loop
      vertex 31 59 36
      vertex 35 56 36
      vertex 35 59 36
    endloop
  endfacet
  facet normal 0 0 1
    outer loop
      vertex 35 56 36
      vertex 31 59 36
      vertex 31 56 36
    endloop
  endfacet
  facet normal -0 0 1
    outer loop
      vertex 31 67 36
      vertex 35 64 36
      vertex 35 67 36
    endloop
  endfacet
  facet normal 0 0 1
    outer loop
      vertex 35 64 36
      vertex 31 67 36
      vertex 31 64 36
    endloop
  endfacet
  facet normal -0 0 1
    outer loop
      vertex 31 75 36
      vertex 35 72 36
      vertex 35 75 36
    endloop
  endfacet
  facet normal 0 0 1
    outer loop
      vertex 35 72 36
      vertex 31 75 36
      vertex 31 72 36
    endloop
  endfacet
  facet normal 0 0 1
    outer loop
      vertex 35 75 36
      vertex 39 83 36
      vertex 35 80 36
    endloop
  endfacet
  facet normal 0 0 1
    outer loop
      vertex 39 83 36
      vertex 4 80 36
      vertex 35 80 36
    endloop
  endfacet
  facet normal 0 0 1
    outer loop
      vertex 0 83 36
      vertex 4 75 36
      vertex 4 80 36
    endloop
  endfacet
  facet normal 0 0 1
    outer loop
      vertex 4 75 36
      vertex 0 83 36
      vertex 4 72 36
    endloop
  endfacet
  facet normal 0 0 1
    outer loop
      vertex 4 72 36
      vertex 0 83 36
      vertex 4 67 36
    endloop
  endfacet
  facet normal 0 0 1
    outer loop
      vertex 4 67 36
      vertex 0 83 36
      vertex 4 64 36
    endloop
  endfacet
  facet normal 0 0 1
    outer loop
      vertex 4 64 36
      vertex 0 83 36
      vertex 4 59 36
    endloop
  endfacet
  facet normal 0 0 1
    outer loop
      vertex 4 59 36
      vertex 0 83 36
      vertex 4 56 36
    endloop
  endfacet
  facet normal 0 0 1
    outer loop
      vertex 4 56 36
      vertex 0 83 36
      vertex 4 51 36
    endloop
  endfacet
  facet normal 0 0 1
    outer loop
      vertex 4 51 36
      vertex 0 83 36
      vertex 4 48 36
    endloop
  endfacet
  facet normal 0 0 1
    outer loop
      vertex 4 48 36
      vertex 0 83 36
      vertex 4 43 36
    endloop
  endfacet
  facet normal 0 0 1
    outer loop
      vertex 4 43 36
      vertex 0 83 36
      vertex 4 40 36
    endloop
  endfacet
  facet normal 0 0 1
    outer loop
      vertex 0 0 36
      vertex 4 40 36
      vertex 0 83 36
    endloop
  endfacet
  facet normal 0 0 1
    outer loop
      vertex 4 40 36
      vertex 0 0 36
      vertex 4 35 36
    endloop
  endfacet
  facet normal 0 0 1
    outer loop
      vertex 4 35 36
      vertex 0 0 36
      vertex 4 32 36
    endloop
  endfacet
  facet normal 0 0 1
    outer loop
      vertex 4 32 36
      vertex 0 0 36
      vertex 4 27 36
    endloop
  endfacet
  facet normal 0 0 1
    outer loop
      vertex 4 27 36
      vertex 0 0 36
      vertex 4 24 36
    endloop
  endfacet
  facet normal 0 0 1
    outer loop
      vertex 4 24 36
      vertex 0 0 36
      vertex 4 19 36
    endloop
  endfacet
  facet normal 0 0 1
    outer loop
      vertex 4 19 36
      vertex 0 0 36
      vertex 4 16 36
    endloop
  endfacet
  facet normal 0 0 1
    outer loop
      vertex 4 16 36
      vertex 0 0 36
      vertex 4 11 36
    endloop
  endfacet
  facet normal 0 0 1
    outer loop
      vertex 4 11 36
      vertex 0 0 36
      vertex 4 8 36
    endloop
  endfacet
  facet normal -0 0 1
    outer loop
      vertex 0 83 36
      vertex 4 80 36
      vertex 39 83 36
    endloop
  endfacet
  facet normal 0 0 1
    outer loop
      vertex 35 72 36
      vertex 39 83 36
      vertex 35 75 36
    endloop
  endfacet
  facet normal 0 0 1
    outer loop
      vertex 35 67 36
      vertex 39 83 36
      vertex 35 72 36
    endloop
  endfacet
  facet normal 0 0 1
    outer loop
      vertex 35 64 36
      vertex 39 83 36
      vertex 35 67 36
    endloop
  endfacet
  facet normal 0 0 1
    outer loop
      vertex 35 59 36
      vertex 39 83 36
      vertex 35 64 36
    endloop
  endfacet
  facet normal 0 0 1
    outer loop
      vertex 35 56 36
      vertex 39 83 36
      vertex 35 59 36
    endloop
  endfacet
  facet normal 0 0 1
    outer loop
      vertex 35 51 36
      vertex 39 83 36
      vertex 35 56 36
    endloop
  endfacet
  facet normal 0 0 1
    outer loop
      vertex 35 48 36
      vertex 39 83 36
      vertex 35 51 36
    endloop
  endfacet
  facet normal 0 0 1
    outer loop
      vertex 35 43 36
      vertex 39 83 36
      vertex 35 48 36
    endloop
  endfacet
  facet normal 0 0 1
    outer loop
      vertex 39 83 36
      vertex 35 43 36
      vertex 39 0 36
    endloop
  endfacet
  facet normal -0 0 1
    outer loop
      vertex 35 40 36
      vertex 39 0 36
      vertex 35 43 36
    endloop
  endfacet
  facet normal -0 0 1
    outer loop
      vertex 35 35 36
      vertex 39 0 36
      vertex 35 40 36
    endloop
  endfacet
  facet normal -0 0 1
    outer loop
      vertex 35 32 36
      vertex 39 0 36
      vertex 35 35 36
    endloop
  endfacet
  facet normal -0 0 1
    outer loop
      vertex 35 27 36
      vertex 39 0 36
      vertex 35 32 36
    endloop
  endfacet
  facet normal -0 0 1
    outer loop
      vertex 35 24 36
      vertex 39 0 36
      vertex 35 27 36
    endloop
  endfacet
  facet normal -0 0 1
    outer loop
      vertex 35 19 36
      vertex 39 0 36
      vertex 35 24 36
    endloop
  endfacet
  facet normal -0 0 1
    outer loop
      vertex 35 16 36
      vertex 39 0 36
      vertex 35 19 36
    endloop
  endfacet
  facet normal -0 0 1
    outer loop
      vertex 35 11 36
      vertex 39 0 36
      vertex 35 16 36
    endloop
  endfacet
  facet normal -0 0 1
    outer loop
      vertex 35 8 36
      vertex 39 0 36
      vertex 35 11 36
    endloop
  endfacet
  facet normal -0 0 1
    outer loop
      vertex 35 3 36
      vertex 39 0 36
      vertex 35 8 36
    endloop
  endfacet
  facet normal -0 0 1
    outer loop
      vertex 4 3 36
      vertex 39 0 36
      vertex 35 3 36
    endloop
  endfacet
  facet normal 0 0 1
    outer loop
      vertex 4 3 36
      vertex 0 0 36
      vertex 39 0 36
    endloop
  endfacet
  facet normal 0 0 1
    outer loop
      vertex 4 8 36
      vertex 0 0 36
      vertex 4 3 36
    endloop
  endfacet
  facet normal -0 0 1
    outer loop
      vertex 4 75 36
      vertex 7 72 36
      vertex 7 75 36
    endloop
  endfacet
  facet normal 0 0 1
    outer loop
      vertex 7 72 36
      vertex 4 75 36
      vertex 4 72 36
    endloop
  endfacet
  facet normal -0 0 1
    outer loop
      vertex 4 67 36
      vertex 7 64 36
      vertex 7 67 36
    endloop
  endfacet
  facet normal 0 0 1
    outer loop
      vertex 7 64 36
      vertex 4 67 36
      vertex 4 64 36
    endloop
  endfacet
  facet normal -0 0 1
    outer loop
      vertex 4 59 36
      vertex 7 56 36
      vertex 7 59 36
    endloop
  endfacet
  facet normal 0 0 1
    outer loop
      vertex 7 56 36
      vertex 4 59 36
      vertex 4 56 36
    endloop
  endfacet
  facet normal -0 0 1
    outer loop
      vertex 4 51 36
      vertex 7 48 36
      vertex 7 51 36
    endloop
  endfacet
  facet normal 0 0 1
    outer loop
      vertex 7 48 36
      vertex 4 51 36
      vertex 4 48 36
    endloop
  endfacet
  facet normal -0 0 1
    outer loop
      vertex 4 43 36
      vertex 7 40 36
      vertex 7 43 36
    endloop
  endfacet
  facet normal 0 0 1
    outer loop
      vertex 7 40 36
      vertex 4 43 36
      vertex 4 40 36
    endloop
  endfacet
  facet normal -0 0 1
    outer loop
      vertex 4 35 36
      vertex 7 32 36
      vertex 7 35 36
    endloop
  endfacet
  facet normal 0 0 1
    outer loop
      vertex 7 32 36
      vertex 4 35 36
      vertex 4 32 36
    endloop
  endfacet
  facet normal -0 0 1
    outer loop
      vertex 4 27 36
      vertex 7 24 36
      vertex 7 27 36
    endloop
  endfacet
  facet normal 0 0 1
    outer loop
      vertex 7 24 36
      vertex 4 27 36
      vertex 4 24 36
    endloop
  endfacet
  facet normal -0 0 1
    outer loop
      vertex 4 19 36
      vertex 7 16 36
      vertex 7 19 36
    endloop
  endfacet
  facet normal 0 0 1
    outer loop
      vertex 7 16 36
      vertex 4 19 36
      vertex 4 16 36
    endloop
  endfacet
  facet normal -0 0 1
    outer loop
      vertex 4 11 36
      vertex 7 8 36
      vertex 7 11 36
    endloop
  endfacet
  facet normal 0 0 1
    outer loop
      vertex 7 8 36
      vertex 4 11 36
      vertex 4 8 36
    endloop
  endfacet
  facet normal 1 -0 0
    outer loop
      vertex 39 0 36
      vertex 39 83 0
      vertex 39 83 36
    endloop
  endfacet
  facet normal 1 0 0
    outer loop
      vertex 39 83 0
      vertex 39 0 36
      vertex 39 0 0
    endloop
  endfacet
  facet normal 0 0 -1
    outer loop
      vertex 39 0 0
      vertex 29 3 0
      vertex 39 83 0
    endloop
  endfacet
  facet normal 0 0 -1
    outer loop
      vertex 39 0 0
      vertex 10 3 0
      vertex 29 3 0
    endloop
  endfacet
  facet normal -0 0 -1
    outer loop
      vertex 10 3 0
      vertex 0 0 0
      vertex 10 80 0
    endloop
  endfacet
  facet normal 0 0 -1
    outer loop
      vertex 0 0 0
      vertex 10 3 0
      vertex 39 0 0
    endloop
  endfacet
  facet normal 0 0 -1
    outer loop
      vertex 29 80 0
      vertex 39 83 0
      vertex 29 3 0
    endloop
  endfacet
  facet normal 0 0 -1
    outer loop
      vertex 10 80 0
      vertex 39 83 0
      vertex 29 80 0
    endloop
  endfacet
  facet normal 0 0 -1
    outer loop
      vertex 10 80 0
      vertex 0 83 0
      vertex 39 83 0
    endloop
  endfacet
  facet normal 0 0 -1
    outer loop
      vertex 0 83 0
      vertex 10 80 0
      vertex 0 0 0
    endloop
  endfacet
  facet normal 0 -1 0
    outer loop
      vertex 0 0 36
      vertex 19.5 0 31
      vertex 39 0 36
    endloop
  endfacet
  facet normal 0 -1 0
    outer loop
      vertex 0 0 36
      vertex 7 0 18.5
      vertex 19.5 0 31
    endloop
  endfacet
  facet normal 0 -1 0
    outer loop
      vertex 0 0 36
      vertex 7 0 17.5
      vertex 7 0 18.5
    endloop
  endfacet
  facet normal 0 -1 -0
    outer loop
      vertex 7 0 17.5
      vertex 0 0 0
      vertex 19.5 0 5
    endloop
  endfacet
  facet normal 0 -1 0
    outer loop
      vertex 0 0 0
      vertex 7 0 17.5
      vertex 0 0 36
    endloop
  endfacet
  facet normal 0 -1 0
    outer loop
      vertex 31 0 19.5
      vertex 39 0 36
      vertex 19.5 0 31
    endloop
  endfacet
  facet normal 0 -1 0
    outer loop
      vertex 31 0 16.5
      vertex 39 0 36
      vertex 31 0 19.5
    endloop
  endfacet
  facet normal 0 -1 0
    outer loop
      vertex 31 0 16.5
      vertex 39 0 0
      vertex 39 0 36
    endloop
  endfacet
  facet normal 0 -1 0
    outer loop
      vertex 19.5 0 5
      vertex 39 0 0
      vertex 31 0 16.5
    endloop
  endfacet
  facet normal 0 -1 0
    outer loop
      vertex 39 0 0
      vertex 19.5 0 5
      vertex 0 0 0
    endloop
  endfacet
  facet normal 0 1 0
    outer loop
      vertex 10 3 0
      vertex 19.5 3 5
      vertex 29 3 0
    endloop
  endfacet
  facet normal 0 1 0
    outer loop
      vertex 19.5 3 5
      vertex 10 3 0
      vertex 10 3 4
    endloop
  endfacet
  facet normal 0 1 0
    outer loop
      vertex 35 3 36
      vertex 19.5 3 31
      vertex 4 3 36
    endloop
  endfacet
  facet normal 0 1 0
    outer loop
      vertex 35 3 36
      vertex 31 3 19.5
      vertex 19.5 3 31
    endloop
  endfacet
  facet normal 0 1 -0
    outer loop
      vertex 35 3 4
      vertex 31 3 19.5
      vertex 35 3 36
    endloop
  endfacet
  facet normal 0 1 0
    outer loop
      vertex 29 3 4
      vertex 31 3 16.5
      vertex 35 3 4
    endloop
  endfacet
  facet normal 0 1 0
    outer loop
      vertex 31 3 19.5
      vertex 35 3 4
      vertex 31 3 16.5
    endloop
  endfacet
  facet normal 0 1 -0
    outer loop
      vertex 7 3 18.5
      vertex 4 3 36
      vertex 19.5 3 31
    endloop
  endfacet
  facet normal 0 1 0
    outer loop
      vertex 4 3 4
      vertex 7 3 18.5
      vertex 7 3 17.5
    endloop
  endfacet
  facet normal 0 1 0
    outer loop
      vertex 31 3 16.5
      vertex 29 3 4
      vertex 19.5 3 5
    endloop
  endfacet
  facet normal 0 1 -0
    outer loop
      vertex 29 3 0
      vertex 19.5 3 5
      vertex 29 3 4
    endloop
  endfacet
  facet normal 0 1 -0
    outer loop
      vertex 10 3 4
      vertex 7 3 17.5
      vertex 19.5 3 5
    endloop
  endfacet
  facet normal 0 1 0
    outer loop
      vertex 7 3 18.5
      vertex 4 3 4
      vertex 4 3 36
    endloop
  endfacet
  facet normal 0 1 0
    outer loop
      vertex 4 3 4
      vertex 7 3 17.5
      vertex 10 3 4
    endloop
  endfacet
  facet normal -0.707107 0 -0.707107
    outer loop
      vertex 31 0 19.5
      vertex 19.5 3 31
      vertex 31 3 19.5
    endloop
  endfacet
  facet normal -0.707107 -0 -0.707107
    outer loop
      vertex 19.5 3 31
      vertex 31 0 19.5
      vertex 19.5 0 31
    endloop
  endfacet
  facet normal 0.707107 0 -0.707107
    outer loop
      vertex 19.5 0 31
      vertex 7 3 18.5
      vertex 19.5 3 31
    endloop
  endfacet
  facet normal 0.707107 0 -0.707107
    outer loop
      vertex 7 3 18.5
      vertex 19.5 0 31
      vertex 7 0 18.5
    endloop
  endfacet
  facet normal -0.707107 0 0.707107
    outer loop
      vertex 19.5 0 5
      vertex 31 3 16.5
      vertex 19.5 3 5
    endloop
  endfacet
  facet normal -0.707107 0 0.707107
    outer loop
      vertex 31 3 16.5
      vertex 19.5 0 5
      vertex 31 0 16.5
    endloop
  endfacet
  facet normal 0.707107 -0 0.707107
    outer loop
      vertex 7 0 17.5
      vertex 19.5 3 5
      vertex 7 3 17.5
    endloop
  endfacet
  facet normal 0.707107 0 0.707107
    outer loop
      vertex 19.5 3 5
      vertex 7 0 17.5
      vertex 19.5 0 5
    endloop
  endfacet
  facet normal 0 1 0
    outer loop
      vertex 39 83 36
      vertex 19.5 83 31
      vertex 0 83 36
    endloop
  endfacet
  facet normal 0 1 0
    outer loop
      vertex 39 83 36
      vertex 31 83 19.5
      vertex 19.5 83 31
    endloop
  endfacet
  facet normal 0 1 0
    outer loop
      vertex 39 83 36
      vertex 31 83 16.5
      vertex 31 83 19.5
    endloop
  endfacet
  facet normal 0 1 0
    outer loop
      vertex 31 83 16.5
      vertex 39 83 0
      vertex 19.5 83 5
    endloop
  endfacet
  facet normal 0 1 -0
    outer loop
      vertex 39 83 0
      vertex 31 83 16.5
      vertex 39 83 36
    endloop
  endfacet
  facet normal 0 1 -0
    outer loop
      vertex 7 83 18.5
      vertex 0 83 36
      vertex 19.5 83 31
    endloop
  endfacet
  facet normal 0 1 -0
    outer loop
      vertex 7 83 17.5
      vertex 0 83 36
      vertex 7 83 18.5
    endloop
  endfacet
  facet normal 0 1 0
    outer loop
      vertex 7 83 17.5
      vertex 0 83 0
      vertex 0 83 36
    endloop
  endfacet
  facet normal 0 1 0
    outer loop
      vertex 19.5 83 5
      vertex 0 83 0
      vertex 7 83 17.5
    endloop
  endfacet
  facet normal 0 1 0
    outer loop
      vertex 0 83 0
      vertex 19.5 83 5
      vertex 39 83 0
    endloop
  endfacet
  facet normal 0 -1 0
    outer loop
      vertex 29 80 0
      vertex 19.5 80 5
      vertex 10 80 0
    endloop
  endfacet
  facet normal 0 -1 0
    outer loop
      vertex 19.5 80 5
      vertex 29 80 0
      vertex 29 80 4
    endloop
  endfacet
  facet normal 0 -1 0
    outer loop
      vertex 4 80 36
      vertex 19.5 80 31
      vertex 35 80 36
    endloop
  endfacet
  facet normal 0 -1 0
    outer loop
      vertex 4 80 36
      vertex 7 80 18.5
      vertex 19.5 80 31
    endloop
  endfacet
  facet normal 0 -1 0
    outer loop
      vertex 4 80 4
      vertex 7 80 18.5
      vertex 4 80 36
    endloop
  endfacet
  facet normal 0 -1 0
    outer loop
      vertex 10 80 4
      vertex 7 80 17.5
      vertex 4 80 4
    endloop
  endfacet
  facet normal 0 -1 -0
    outer loop
      vertex 7 80 18.5
      vertex 4 80 4
      vertex 7 80 17.5
    endloop
  endfacet
  facet normal 0 -1 0
    outer loop
      vertex 31 80 19.5
      vertex 35 80 36
      vertex 19.5 80 31
    endloop
  endfacet
  facet normal 0 -1 0
    outer loop
      vertex 35 80 4
      vertex 31 80 19.5
      vertex 31 80 16.5
    endloop
  endfacet
  facet normal 0 -1 0
    outer loop
      vertex 7 80 17.5
      vertex 10 80 4
      vertex 19.5 80 5
    endloop
  endfacet
  facet normal 0 -1 0
    outer loop
      vertex 10 80 0
      vertex 19.5 80 5
      vertex 10 80 4
    endloop
  endfacet
  facet normal 0 -1 0
    outer loop
      vertex 29 80 4
      vertex 31 80 16.5
      vertex 19.5 80 5
    endloop
  endfacet
  facet normal 0 -1 0
    outer loop
      vertex 35 80 4
      vertex 31 80 16.5
      vertex 29 80 4
    endloop
  endfacet
  facet normal 0 -1 0
    outer loop
      vertex 31 80 19.5
      vertex 35 80 4
      vertex 35 80 36
    endloop
  endfacet
  facet normal -0.707107 0 -0.707107
    outer loop
      vertex 31 80 19.5
      vertex 19.5 83 31
      vertex 31 83 19.5
    endloop
  endfacet
  facet normal -0.707107 -0 -0.707107
    outer loop
      vertex 19.5 83 31
      vertex 31 80 19.5
      vertex 19.5 80 31
    endloop
  endfacet
  facet normal 0.707107 0 -0.707107
    outer loop
      vertex 19.5 80 31
      vertex 7 83 18.5
      vertex 19.5 83 31
    endloop
  endfacet
  facet normal 0.707107 0 -0.707107
    outer loop
      vertex 7 83 18.5
      vertex 19.5 80 31
      vertex 7 80 18.5
    endloop
  endfacet
  facet normal -0.707107 0 0.707107
    outer loop
      vertex 19.5 80 5
      vertex 31 83 16.5
      vertex 19.5 83 5
    endloop
  endfacet
  facet normal -0.707107 0 0.707107
    outer loop
      vertex 31 83 16.5
      vertex 19.5 80 5
      vertex 31 80 16.5
    endloop
  endfacet
  facet normal 0.707107 -0 0.707107
    outer loop
      vertex 7 80 17.5
      vertex 19.5 83 5
      vertex 7 83 17.5
    endloop
  endfacet
  facet normal 0.707107 0 0.707107
    outer loop
      vertex 19.5 83 5
      vertex 7 80 17.5
      vertex 19.5 80 5
    endloop
  endfacet
  facet normal 1 -0 0
    outer loop
      vertex 7 0 18.5
      vertex 7 3 17.5
      vertex 7 3 18.5
    endloop
  endfacet
  facet normal 1 0 0
    outer loop
      vertex 7 3 17.5
      vertex 7 0 18.5
      vertex 7 0 17.5
    endloop
  endfacet
  facet normal 1 -0 0
    outer loop
      vertex 7 8 36
      vertex 7 11 4
      vertex 7 11 36
    endloop
  endfacet
  facet normal 1 0 0
    outer loop
      vertex 7 11 4
      vertex 7 8 36
      vertex 7 8 4
    endloop
  endfacet
  facet normal 0 1 -0
    outer loop
      vertex 7 11 4
      vertex 4 11 36
      vertex 7 11 36
    endloop
  endfacet
  facet normal 0 1 0
    outer loop
      vertex 4 11 36
      vertex 7 11 4
      vertex 4 11 4
    endloop
  endfacet
  facet normal 0 -1 0
    outer loop
      vertex 4 8 4
      vertex 7 8 36
      vertex 4 8 36
    endloop
  endfacet
  facet normal 0 -1 -0
    outer loop
      vertex 7 8 36
      vertex 4 8 4
      vertex 7 8 4
    endloop
  endfacet
  facet normal 1 -0 0
    outer loop
      vertex 7 16 36
      vertex 7 19 4
      vertex 7 19 36
    endloop
  endfacet
  facet normal 1 0 0
    outer loop
      vertex 7 19 4
      vertex 7 16 36
      vertex 7 16 4
    endloop
  endfacet
  facet normal 0 1 -0
    outer loop
      vertex 7 19 4
      vertex 4 19 36
      vertex 7 19 36
    endloop
  endfacet
  facet normal 0 1 0
    outer loop
      vertex 4 19 36
      vertex 7 19 4
      vertex 4 19 4
    endloop
  endfacet
  facet normal 0 -1 0
    outer loop
      vertex 4 16 4
      vertex 7 16 36
      vertex 4 16 36
    endloop
  endfacet
  facet normal 0 -1 -0
    outer loop
      vertex 7 16 36
      vertex 4 16 4
      vertex 7 16 4
    endloop
  endfacet
  facet normal 1 -0 0
    outer loop
      vertex 7 24 36
      vertex 7 27 4
      vertex 7 27 36
    endloop
  endfacet
  facet normal 1 0 0
    outer loop
      vertex 7 27 4
      vertex 7 24 36
      vertex 7 24 4
    endloop
  endfacet
  facet normal 0 -1 0
    outer loop
      vertex 4 24 4
      vertex 7 24 36
      vertex 4 24 36
    endloop
  endfacet
  facet normal 0 -1 -0
    outer loop
      vertex 7 24 36
      vertex 4 24 4
      vertex 7 24 4
    endloop
  endfacet
  facet normal 0 1 -0
    outer loop
      vertex 7 27 4
      vertex 4 27 36
      vertex 7 27 36
    endloop
  endfacet
  facet normal 0 1 0
    outer loop
      vertex 4 27 36
      vertex 7 27 4
      vertex 4 27 4
    endloop
  endfacet
  facet normal 1 -0 0
    outer loop
      vertex 7 32 36
      vertex 7 35 4
      vertex 7 35 36
    endloop
  endfacet
  facet normal 1 0 0
    outer loop
      vertex 7 35 4
      vertex 7 32 36
      vertex 7 32 4
    endloop
  endfacet
  facet normal 0 -1 0
    outer loop
      vertex 4 32 4
      vertex 7 32 36
      vertex 4 32 36
    endloop
  endfacet
  facet normal 0 -1 -0
    outer loop
      vertex 7 32 36
      vertex 4 32 4
      vertex 7 32 4
    endloop
  endfacet
  facet normal 0 1 -0
    outer loop
      vertex 7 35 4
      vertex 4 35 36
      vertex 7 35 36
    endloop
  endfacet
  facet normal 0 1 0
    outer loop
      vertex 4 35 36
      vertex 7 35 4
      vertex 4 35 4
    endloop
  endfacet
  facet normal 1 -0 0
    outer loop
      vertex 7 40 36
      vertex 7 43 4
      vertex 7 43 36
    endloop
  endfacet
  facet normal 1 0 0
    outer loop
      vertex 7 43 4
      vertex 7 40 36
      vertex 7 40 4
    endloop
  endfacet
  facet normal 0 1 -0
    outer loop
      vertex 7 43 4
      vertex 4 43 36
      vertex 7 43 36
    endloop
  endfacet
  facet normal 0 1 0
    outer loop
      vertex 4 43 36
      vertex 7 43 4
      vertex 4 43 4
    endloop
  endfacet
  facet normal 0 -1 0
    outer loop
      vertex 4 40 4
      vertex 7 40 36
      vertex 4 40 36
    endloop
  endfacet
  facet normal 0 -1 -0
    outer loop
      vertex 7 40 36
      vertex 4 40 4
      vertex 7 40 4
    endloop
  endfacet
  facet normal 1 -0 0
    outer loop
      vertex 7 48 36
      vertex 7 51 4
      vertex 7 51 36
    endloop
  endfacet
  facet normal 1 0 0
    outer loop
      vertex 7 51 4
      vertex 7 48 36
      vertex 7 48 4
    endloop
  endfacet
  facet normal 0 -1 0
    outer loop
      vertex 4 48 4
      vertex 7 48 36
      vertex 4 48 36
    endloop
  endfacet
  facet normal 0 -1 -0
    outer loop
      vertex 7 48 36
      vertex 4 48 4
      vertex 7 48 4
    endloop
  endfacet
  facet normal 0 1 -0
    outer loop
      vertex 7 51 4
      vertex 4 51 36
      vertex 7 51 36
    endloop
  endfacet
  facet normal 0 1 0
    outer loop
      vertex 4 51 36
      vertex 7 51 4
      vertex 4 51 4
    endloop
  endfacet
  facet normal 1 -0 0
    outer loop
      vertex 7 56 36
      vertex 7 59 4
      vertex 7 59 36
    endloop
  endfacet
  facet normal 1 0 0
    outer loop
      vertex 7 59 4
      vertex 7 56 36
      vertex 7 56 4
    endloop
  endfacet
  facet normal 0 -1 0
    outer loop
      vertex 4 56 4
      vertex 7 56 36
      vertex 4 56 36
    endloop
  endfacet
  facet normal 0 -1 -0
    outer loop
      vertex 7 56 36
      vertex 4 56 4
      vertex 7 56 4
    endloop
  endfacet
  facet normal 0 1 -0
    outer loop
      vertex 7 59 4
      vertex 4 59 36
      vertex 7 59 36
    endloop
  endfacet
  facet normal 0 1 0
    outer loop
      vertex 4 59 36
      vertex 7 59 4
      vertex 4 59 4
    endloop
  endfacet
  facet normal 1 -0 0
    outer loop
      vertex 7 64 36
      vertex 7 67 4
      vertex 7 67 36
    endloop
  endfacet
  facet normal 1 0 0
    outer loop
      vertex 7 67 4
      vertex 7 64 36
      vertex 7 64 4
    endloop
  endfacet
  facet normal 0 1 -0
    outer loop
      vertex 7 67 4
      vertex 4 67 36
      vertex 7 67 36
    endloop
  endfacet
  facet normal 0 1 0
    outer loop
      vertex 4 67 36
      vertex 7 67 4
      vertex 4 67 4
    endloop
  endfacet
  facet normal 0 -1 0
    outer loop
      vertex 4 64 4
      vertex 7 64 36
      vertex 4 64 36
    endloop
  endfacet
  facet normal 0 -1 -0
    outer loop
      vertex 7 64 36
      vertex 4 64 4
      vertex 7 64 4
    endloop
  endfacet
  facet normal 1 -0 0
    outer loop
      vertex 7 72 36
      vertex 7 75 4
      vertex 7 75 36
    endloop
  endfacet
  facet normal 1 0 0
    outer loop
      vertex 7 75 4
      vertex 7 72 36
      vertex 7 72 4
    endloop
  endfacet
  facet normal 0 1 -0
    outer loop
      vertex 7 75 4
      vertex 4 75 36
      vertex 7 75 36
    endloop
  endfacet
  facet normal 0 1 0
    outer loop
      vertex 4 75 36
      vertex 7 75 4
      vertex 4 75 4
    endloop
  endfacet
  facet normal 0 -1 0
    outer loop
      vertex 4 72 4
      vertex 7 72 36
      vertex 4 72 36
    endloop
  endfacet
  facet normal 0 -1 -0
    outer loop
      vertex 7 72 36
      vertex 4 72 4
      vertex 7 72 4
    endloop
  endfacet
  facet normal 1 -0 0
    outer loop
      vertex 7 80 18.5
      vertex 7 83 17.5
      vertex 7 83 18.5
    endloop
  endfacet
  facet normal 1 0 0
    outer loop
      vertex 7 83 17.5
      vertex 7 80 18.5
      vertex 7 80 17.5
    endloop
  endfacet
  facet normal -1 0 0
    outer loop
      vertex 31 0 16.5
      vertex 31 3 19.5
      vertex 31 3 16.5
    endloop
  endfacet
  facet normal -1 -0 0
    outer loop
      vertex 31 3 19.5
      vertex 31 0 16.5
      vertex 31 0 19.5
    endloop
  endfacet
  facet normal -1 0 0
    outer loop
      vertex 31 8 4
      vertex 31 11 36
      vertex 31 11 4
    endloop
  endfacet
  facet normal -1 -0 0
    outer loop
      vertex 31 11 36
      vertex 31 8 4
      vertex 31 8 36
    endloop
  endfacet
  facet normal 0 1 -0
    outer loop
      vertex 35 11 4
      vertex 31 11 36
      vertex 35 11 36
    endloop
  endfacet
  facet normal 0 1 0
    outer loop
      vertex 31 11 36
      vertex 35 11 4
      vertex 31 11 4
    endloop
  endfacet
  facet normal 0 -1 0
    outer loop
      vertex 31 8 4
      vertex 35 8 36
      vertex 31 8 36
    endloop
  endfacet
  facet normal 0 -1 -0
    outer loop
      vertex 35 8 36
      vertex 31 8 4
      vertex 35 8 4
    endloop
  endfacet
  facet normal -1 0 0
    outer loop
      vertex 31 16 4
      vertex 31 19 36
      vertex 31 19 4
    endloop
  endfacet
  facet normal -1 -0 0
    outer loop
      vertex 31 19 36
      vertex 31 16 4
      vertex 31 16 36
    endloop
  endfacet
  facet normal 0 1 -0
    outer loop
      vertex 35 19 4
      vertex 31 19 36
      vertex 35 19 36
    endloop
  endfacet
  facet normal 0 1 0
    outer loop
      vertex 31 19 36
      vertex 35 19 4
      vertex 31 19 4
    endloop
  endfacet
  facet normal 0 -1 0
    outer loop
      vertex 31 16 4
      vertex 35 16 36
      vertex 31 16 36
    endloop
  endfacet
  facet normal 0 -1 -0
    outer loop
      vertex 35 16 36
      vertex 31 16 4
      vertex 35 16 4
    endloop
  endfacet
  facet normal -1 0 0
    outer loop
      vertex 31 24 4
      vertex 31 27 36
      vertex 31 27 4
    endloop
  endfacet
  facet normal -1 -0 0
    outer loop
      vertex 31 27 36
      vertex 31 24 4
      vertex 31 24 36
    endloop
  endfacet
  facet normal 0 -1 0
    outer loop
      vertex 31 24 4
      vertex 35 24 36
      vertex 31 24 36
    endloop
  endfacet
  facet normal 0 -1 -0
    outer loop
      vertex 35 24 36
      vertex 31 24 4
      vertex 35 24 4
    endloop
  endfacet
  facet normal 0 1 -0
    outer loop
      vertex 35 27 4
      vertex 31 27 36
      vertex 35 27 36
    endloop
  endfacet
  facet normal 0 1 0
    outer loop
      vertex 31 27 36
      vertex 35 27 4
      vertex 31 27 4
    endloop
  endfacet
  facet normal -1 0 0
    outer loop
      vertex 31 32 4
      vertex 31 35 36
      vertex 31 35 4
    endloop
  endfacet
  facet normal -1 -0 0
    outer loop
      vertex 31 35 36
      vertex 31 32 4
      vertex 31 32 36
    endloop
  endfacet
  facet normal 0 1 -0
    outer loop
      vertex 35 35 4
      vertex 31 35 36
      vertex 35 35 36
    endloop
  endfacet
  facet normal 0 1 0
    outer loop
      vertex 31 35 36
      vertex 35 35 4
      vertex 31 35 4
    endloop
  endfacet
  facet normal 0 -1 0
    outer loop
      vertex 31 32 4
      vertex 35 32 36
      vertex 31 32 36
    endloop
  endfacet
  facet normal 0 -1 -0
    outer loop
      vertex 35 32 36
      vertex 31 32 4
      vertex 35 32 4
    endloop
  endfacet
  facet normal -1 0 0
    outer loop
      vertex 31 40 4
      vertex 31 43 36
      vertex 31 43 4
    endloop
  endfacet
  facet normal -1 -0 0
    outer loop
      vertex 31 43 36
      vertex 31 40 4
      vertex 31 40 36
    endloop
  endfacet
  facet normal 0 1 -0
    outer loop
      vertex 35 43 4
      vertex 31 43 36
      vertex 35 43 36
    endloop
  endfacet
  facet normal 0 1 0
    outer loop
      vertex 31 43 36
      vertex 35 43 4
      vertex 31 43 4
    endloop
  endfacet
  facet normal 0 -1 0
    outer loop
      vertex 31 40 4
      vertex 35 40 36
      vertex 31 40 36
    endloop
  endfacet
  facet normal 0 -1 -0
    outer loop
      vertex 35 40 36
      vertex 31 40 4
      vertex 35 40 4
    endloop
  endfacet
  facet normal -1 0 0
    outer loop
      vertex 31 48 4
      vertex 31 51 36
      vertex 31 51 4
    endloop
  endfacet
  facet normal -1 -0 0
    outer loop
      vertex 31 51 36
      vertex 31 48 4
      vertex 31 48 36
    endloop
  endfacet
  facet normal 0 -1 0
    outer loop
      vertex 31 48 4
      vertex 35 48 36
      vertex 31 48 36
    endloop
  endfacet
  facet normal 0 -1 -0
    outer loop
      vertex 35 48 36
      vertex 31 48 4
      vertex 35 48 4
    endloop
  endfacet
  facet normal 0 1 -0
    outer loop
      vertex 35 51 4
      vertex 31 51 36
      vertex 35 51 36
    endloop
  endfacet
  facet normal 0 1 0
    outer loop
      vertex 31 51 36
      vertex 35 51 4
      vertex 31 51 4
    endloop
  endfacet
  facet normal -1 0 0
    outer loop
      vertex 31 56 4
      vertex 31 59 36
      vertex 31 59 4
    endloop
  endfacet
  facet normal -1 -0 0
    outer loop
      vertex 31 59 36
      vertex 31 56 4
      vertex 31 56 36
    endloop
  endfacet
  facet normal 0 -1 0
    outer loop
      vertex 31 56 4
      vertex 35 56 36
      vertex 31 56 36
    endloop
  endfacet
  facet normal 0 -1 -0
    outer loop
      vertex 35 56 36
      vertex 31 56 4
      vertex 35 56 4
    endloop
  endfacet
  facet normal 0 1 -0
    outer loop
      vertex 35 59 4
      vertex 31 59 36
      vertex 35 59 36
    endloop
  endfacet
  facet normal 0 1 0
    outer loop
      vertex 31 59 36
      vertex 35 59 4
      vertex 31 59 4
    endloop
  endfacet
  facet normal -1 0 0
    outer loop
      vertex 31 64 4
      vertex 31 67 36
      vertex 31 67 4
    endloop
  endfacet
  facet normal -1 -0 0
    outer loop
      vertex 31 67 36
      vertex 31 64 4
      vertex 31 64 36
    endloop
  endfacet
  facet normal 0 1 -0
    outer loop
      vertex 35 67 4
      vertex 31 67 36
      vertex 35 67 36
    endloop
  endfacet
  facet normal 0 1 0
    outer loop
      vertex 31 67 36
      vertex 35 67 4
      vertex 31 67 4
    endloop
  endfacet
  facet normal 0 -1 0
    outer loop
      vertex 31 64 4
      vertex 35 64 36
      vertex 31 64 36
    endloop
  endfacet
  facet normal 0 -1 -0
    outer loop
      vertex 35 64 36
      vertex 31 64 4
      vertex 35 64 4
    endloop
  endfacet
  facet normal -1 0 0
    outer loop
      vertex 31 72 4
      vertex 31 75 36
      vertex 31 75 4
    endloop
  endfacet
  facet normal -1 -0 0
    outer loop
      vertex 31 75 36
      vertex 31 72 4
      vertex 31 72 36
    endloop
  endfacet
  facet normal 0 1 -0
    outer loop
      vertex 35 75 4
      vertex 31 75 36
      vertex 35 75 36
    endloop
  endfacet
  facet normal 0 1 0
    outer loop
      vertex 31 75 36
      vertex 35 75 4
      vertex 31 75 4
    endloop
  endfacet
  facet normal 0 -1 0
    outer loop
      vertex 31 72 4
      vertex 35 72 36
      vertex 31 72 36
    endloop
  endfacet
  facet normal 0 -1 -0
    outer loop
      vertex 35 72 36
      vertex 31 72 4
      vertex 35 72 4
    endloop
  endfacet
  facet normal -1 0 0
    outer loop
      vertex 31 80 16.5
      vertex 31 83 19.5
      vertex 31 83 16.5
    endloop
  endfacet
  facet normal -1 -0 0
    outer loop
      vertex 31 83 19.5
      vertex 31 80 16.5
      vertex 31 80 19.5
    endloop
  endfacet
  facet normal -0 0 1
    outer loop
      vertex 4 16 4
      vertex 7 11 4
      vertex 7 16 4
    endloop
  endfacet
  facet normal 0 0 1
    outer loop
      vertex 7 11 4
      vertex 4 16 4
      vertex 4 11 4
    endloop
  endfacet
  facet normal -0 0 1
    outer loop
      vertex 4 24 4
      vertex 7 19 4
      vertex 7 24 4
    endloop
  endfacet
  facet normal 0 0 1
    outer loop
      vertex 7 19 4
      vertex 4 24 4
      vertex 4 19 4
    endloop
  endfacet
  facet normal -0 0 1
    outer loop
      vertex 4 32 4
      vertex 7 27 4
      vertex 7 32 4
    endloop
  endfacet
  facet normal 0 0 1
    outer loop
      vertex 7 27 4
      vertex 4 32 4
      vertex 4 27 4
    endloop
  endfacet
  facet normal -0 0 1
    outer loop
      vertex 4 40 4
      vertex 7 35 4
      vertex 7 40 4
    endloop
  endfacet
  facet normal 0 0 1
    outer loop
      vertex 7 35 4
      vertex 4 40 4
      vertex 4 35 4
    endloop
  endfacet
  facet normal -0 0 1
    outer loop
      vertex 4 48 4
      vertex 7 43 4
      vertex 7 48 4
    endloop
  endfacet
  facet normal 0 0 1
    outer loop
      vertex 7 43 4
      vertex 4 48 4
      vertex 4 43 4
    endloop
  endfacet
  facet normal -0 0 1
    outer loop
      vertex 4 56 4
      vertex 7 51 4
      vertex 7 56 4
    endloop
  endfacet
  facet normal 0 0 1
    outer loop
      vertex 7 51 4
      vertex 4 56 4
      vertex 4 51 4
    endloop
  endfacet
  facet normal -0 0 1
    outer loop
      vertex 4 64 4
      vertex 7 59 4
      vertex 7 64 4
    endloop
  endfacet
  facet normal 0 0 1
    outer loop
      vertex 7 59 4
      vertex 4 64 4
      vertex 4 59 4
    endloop
  endfacet
  facet normal -0 0 1
    outer loop
      vertex 4 72 4
      vertex 7 67 4
      vertex 7 72 4
    endloop
  endfacet
  facet normal 0 0 1
    outer loop
      vertex 7 67 4
      vertex 4 72 4
      vertex 4 67 4
    endloop
  endfacet
  facet normal 0 0 1
    outer loop
      vertex 7 72 4
      vertex 10 80 4
      vertex 7 75 4
    endloop
  endfacet
  facet normal -0 0 1
    outer loop
      vertex 4 80 4
      vertex 7 75 4
      vertex 10 80 4
    endloop
  endfacet
  facet normal 0 0 1
    outer loop
      vertex 7 75 4
      vertex 4 80 4
      vertex 4 75 4
    endloop
  endfacet
  facet normal 0 0 1
    outer loop
      vertex 7 67 4
      vertex 10 80 4
      vertex 7 72 4
    endloop
  endfacet
  facet normal 0 0 1
    outer loop
      vertex 7 64 4
      vertex 10 80 4
      vertex 7 67 4
    endloop
  endfacet
  facet normal 0 0 1
    outer loop
      vertex 7 59 4
      vertex 10 80 4
      vertex 7 64 4
    endloop
  endfacet
  facet normal 0 0 1
    outer loop
      vertex 7 56 4
      vertex 10 80 4
      vertex 7 59 4
    endloop
  endfacet
  facet normal 0 0 1
    outer loop
      vertex 7 51 4
      vertex 10 80 4
      vertex 7 56 4
    endloop
  endfacet
  facet normal 0 0 1
    outer loop
      vertex 7 48 4
      vertex 10 80 4
      vertex 7 51 4
    endloop
  endfacet
  facet normal 0 0 1
    outer loop
      vertex 7 43 4
      vertex 10 80 4
      vertex 7 48 4
    endloop
  endfacet
  facet normal 0 0 1
    outer loop
      vertex 10 80 4
      vertex 7 43 4
      vertex 10 3 4
    endloop
  endfacet
  facet normal -0 0 1
    outer loop
      vertex 7 40 4
      vertex 10 3 4
      vertex 7 43 4
    endloop
  endfacet
  facet normal -0 0 1
    outer loop
      vertex 7 35 4
      vertex 10 3 4
      vertex 7 40 4
    endloop
  endfacet
  facet normal -0 0 1
    outer loop
      vertex 7 32 4
      vertex 10 3 4
      vertex 7 35 4
    endloop
  endfacet
  facet normal -0 0 1
    outer loop
      vertex 7 27 4
      vertex 10 3 4
      vertex 7 32 4
    endloop
  endfacet
  facet normal -0 0 1
    outer loop
      vertex 7 24 4
      vertex 10 3 4
      vertex 7 27 4
    endloop
  endfacet
  facet normal -0 0 1
    outer loop
      vertex 7 19 4
      vertex 10 3 4
      vertex 7 24 4
    endloop
  endfacet
  facet normal -0 0 1
    outer loop
      vertex 7 16 4
      vertex 10 3 4
      vertex 7 19 4
    endloop
  endfacet
  facet normal -0 0 1
    outer loop
      vertex 7 11 4
      vertex 10 3 4
      vertex 7 16 4
    endloop
  endfacet
  facet normal -0 0 1
    outer loop
      vertex 7 8 4
      vertex 10 3 4
      vertex 7 11 4
    endloop
  endfacet
  facet normal 0 0 1
    outer loop
      vertex 4 3 4
      vertex 7 8 4
      vertex 4 8 4
    endloop
  endfacet
  facet normal 0 0 1
    outer loop
      vertex 7 8 4
      vertex 4 3 4
      vertex 10 3 4
    endloop
  endfacet
  facet normal 1 -0 0
    outer loop
      vertex 10 3 4
      vertex 10 80 0
      vertex 10 80 4
    endloop
  endfacet
  facet normal 1 0 0
    outer loop
      vertex 10 80 0
      vertex 10 3 4
      vertex 10 3 0
    endloop
  endfacet
  facet normal -1 0 0
    outer loop
      vertex 29 3 0
      vertex 29 80 4
      vertex 29 80 0
    endloop
  endfacet
  facet normal -1 -0 0
    outer loop
      vertex 29 80 4
      vertex 29 3 0
      vertex 29 3 4
    endloop
  endfacet
  facet normal 0 0 1
    outer loop
      vertex 35 80 4
      vertex 31 75 4
      vertex 35 75 4
    endloop
  endfacet
  facet normal 0 0 1
    outer loop
      vertex 29 80 4
      vertex 31 72 4
      vertex 31 75 4
    endloop
  endfacet
  facet normal 0 0 1
    outer loop
      vertex 31 72 4
      vertex 29 80 4
      vertex 31 67 4
    endloop
  endfacet
  facet normal 0 0 1
    outer loop
      vertex 31 67 4
      vertex 29 80 4
      vertex 31 64 4
    endloop
  endfacet
  facet normal 0 0 1
    outer loop
      vertex 31 64 4
      vertex 29 80 4
      vertex 31 59 4
    endloop
  endfacet
  facet normal 0 0 1
    outer loop
      vertex 31 59 4
      vertex 29 80 4
      vertex 31 56 4
    endloop
  endfacet
  facet normal 0 0 1
    outer loop
      vertex 31 56 4
      vertex 29 80 4
      vertex 31 51 4
    endloop
  endfacet
  facet normal 0 0 1
    outer loop
      vertex 31 51 4
      vertex 29 80 4
      vertex 31 48 4
    endloop
  endfacet
  facet normal 0 0 1
    outer loop
      vertex 31 48 4
      vertex 29 80 4
      vertex 31 43 4
    endloop
  endfacet
  facet normal 0 0 1
    outer loop
      vertex 31 43 4
      vertex 29 80 4
      vertex 31 40 4
    endloop
  endfacet
  facet normal 0 0 1
    outer loop
      vertex 29 3 4
      vertex 31 40 4
      vertex 29 80 4
    endloop
  endfacet
  facet normal 0 0 1
    outer loop
      vertex 31 40 4
      vertex 29 3 4
      vertex 31 35 4
    endloop
  endfacet
  facet normal 0 0 1
    outer loop
      vertex 31 35 4
      vertex 29 3 4
      vertex 31 32 4
    endloop
  endfacet
  facet normal 0 0 1
    outer loop
      vertex 31 32 4
      vertex 29 3 4
      vertex 31 27 4
    endloop
  endfacet
  facet normal 0 0 1
    outer loop
      vertex 31 27 4
      vertex 29 3 4
      vertex 31 24 4
    endloop
  endfacet
  facet normal 0 0 1
    outer loop
      vertex 31 24 4
      vertex 29 3 4
      vertex 31 19 4
    endloop
  endfacet
  facet normal 0 0 1
    outer loop
      vertex 31 19 4
      vertex 29 3 4
      vertex 31 16 4
    endloop
  endfacet
  facet normal 0 0 1
    outer loop
      vertex 31 16 4
      vertex 29 3 4
      vertex 31 11 4
    endloop
  endfacet
  facet normal -0 0 1
    outer loop
      vertex 29 80 4
      vertex 31 75 4
      vertex 35 80 4
    endloop
  endfacet
  facet normal -0 0 1
    outer loop
      vertex 31 72 4
      vertex 35 67 4
      vertex 35 72 4
    endloop
  endfacet
  facet normal 0 0 1
    outer loop
      vertex 35 67 4
      vertex 31 72 4
      vertex 31 67 4
    endloop
  endfacet
  facet normal -0 0 1
    outer loop
      vertex 31 64 4
      vertex 35 59 4
      vertex 35 64 4
    endloop
  endfacet
  facet normal 0 0 1
    outer loop
      vertex 35 59 4
      vertex 31 64 4
      vertex 31 59 4
    endloop
  endfacet
  facet normal -0 0 1
    outer loop
      vertex 31 56 4
      vertex 35 51 4
      vertex 35 56 4
    endloop
  endfacet
  facet normal 0 0 1
    outer loop
      vertex 35 51 4
      vertex 31 56 4
      vertex 31 51 4
    endloop
  endfacet
  facet normal -0 0 1
    outer loop
      vertex 31 48 4
      vertex 35 43 4
      vertex 35 48 4
    endloop
  endfacet
  facet normal 0 0 1
    outer loop
      vertex 35 43 4
      vertex 31 48 4
      vertex 31 43 4
    endloop
  endfacet
  facet normal -0 0 1
    outer loop
      vertex 31 40 4
      vertex 35 35 4
      vertex 35 40 4
    endloop
  endfacet
  facet normal 0 0 1
    outer loop
      vertex 35 35 4
      vertex 31 40 4
      vertex 31 35 4
    endloop
  endfacet
  facet normal -0 0 1
    outer loop
      vertex 31 32 4
      vertex 35 27 4
      vertex 35 32 4
    endloop
  endfacet
  facet normal 0 0 1
    outer loop
      vertex 35 27 4
      vertex 31 32 4
      vertex 31 27 4
    endloop
  endfacet
  facet normal -0 0 1
    outer loop
      vertex 31 24 4
      vertex 35 19 4
      vertex 35 24 4
    endloop
  endfacet
  facet normal 0 0 1
    outer loop
      vertex 35 19 4
      vertex 31 24 4
      vertex 31 19 4
    endloop
  endfacet
  facet normal -0 0 1
    outer loop
      vertex 31 16 4
      vertex 35 11 4
      vertex 35 16 4
    endloop
  endfacet
  facet normal 0 0 1
    outer loop
      vertex 35 11 4
      vertex 31 16 4
      vertex 31 11 4
    endloop
  endfacet
  facet normal -0 0 1
    outer loop
      vertex 31 8 4
      vertex 35 3 4
      vertex 35 8 4
    endloop
  endfacet
  facet normal 0 0 1
    outer loop
      vertex 31 8 4
      vertex 29 3 4
      vertex 35 3 4
    endloop
  endfacet
  facet normal 0 0 1
    outer loop
      vertex 31 11 4
      vertex 29 3 4
      vertex 31 8 4
    endloop
  endfacet
  facet normal 1 -0 0
    outer loop
      vertex 4 75 36
      vertex 4 80 4
      vertex 4 80 36
    endloop
  endfacet
  facet normal 1 0 0
    outer loop
      vertex 4 80 4
      vertex 4 75 36
      vertex 4 75 4
    endloop
  endfacet
  facet normal 1 -0 0
    outer loop
      vertex 4 67 36
      vertex 4 72 4
      vertex 4 72 36
    endloop
  endfacet
  facet normal 1 0 0
    outer loop
      vertex 4 72 4
      vertex 4 67 36
      vertex 4 67 4
    endloop
  endfacet
  facet normal 1 -0 0
    outer loop
      vertex 4 59 36
      vertex 4 64 4
      vertex 4 64 36
    endloop
  endfacet
  facet normal 1 0 0
    outer loop
      vertex 4 64 4
      vertex 4 59 36
      vertex 4 59 4
    endloop
  endfacet
  facet normal 1 -0 0
    outer loop
      vertex 4 51 36
      vertex 4 56 4
      vertex 4 56 36
    endloop
  endfacet
  facet normal 1 0 0
    outer loop
      vertex 4 56 4
      vertex 4 51 36
      vertex 4 51 4
    endloop
  endfacet
  facet normal 1 -0 0
    outer loop
      vertex 4 43 36
      vertex 4 48 4
      vertex 4 48 36
    endloop
  endfacet
  facet normal 1 0 0
    outer loop
      vertex 4 48 4
      vertex 4 43 36
      vertex 4 43 4
    endloop
  endfacet
  facet normal 1 -0 0
    outer loop
      vertex 4 35 36
      vertex 4 40 4
      vertex 4 40 36
    endloop
  endfacet
  facet normal 1 0 0
    outer loop
      vertex 4 40 4
      vertex 4 35 36
      vertex 4 35 4
    endloop
  endfacet
  facet normal 1 -0 0
    outer loop
      vertex 4 27 36
      vertex 4 32 4
      vertex 4 32 36
    endloop
  endfacet
  facet normal 1 0 0
    outer loop
      vertex 4 32 4
      vertex 4 27 36
      vertex 4 27 4
    endloop
  endfacet
  facet normal 1 -0 0
    outer loop
      vertex 4 19 36
      vertex 4 24 4
      vertex 4 24 36
    endloop
  endfacet
  facet normal 1 0 0
    outer loop
      vertex 4 24 4
      vertex 4 19 36
      vertex 4 19 4
    endloop
  endfacet
  facet normal 1 -0 0
    outer loop
      vertex 4 11 36
      vertex 4 16 4
      vertex 4 16 36
    endloop
  endfacet
  facet normal 1 0 0
    outer loop
      vertex 4 16 4
      vertex 4 11 36
      vertex 4 11 4
    endloop
  endfacet
  facet normal 1 -0 0
    outer loop
      vertex 4 3 36
      vertex 4 8 4
      vertex 4 8 36
    endloop
  endfacet
  facet normal 1 0 0
    outer loop
      vertex 4 8 4
      vertex 4 3 36
      vertex 4 3 4
    endloop
  endfacet
  facet normal -1 0 0
    outer loop
      vertex 35 75 4
      vertex 35 80 36
      vertex 35 80 4
    endloop
  endfacet
  facet normal -1 -0 0
    outer loop
      vertex 35 80 36
      vertex 35 75 4
      vertex 35 75 36
    endloop
  endfacet
  facet normal -1 0 0
    outer loop
      vertex 35 3 4
      vertex 35 8 36
      vertex 35 8 4
    endloop
  endfacet
  facet normal -1 -0 0
    outer loop
      vertex 35 8 36
      vertex 35 3 4
      vertex 35 3 36
    endloop
  endfacet
  facet normal -1 0 0
    outer loop
      vertex 35 67 4
      vertex 35 72 36
      vertex 35 72 4
    endloop
  endfacet
  facet normal -1 -0 0
    outer loop
      vertex 35 72 36
      vertex 35 67 4
      vertex 35 67 36
    endloop
  endfacet
  facet normal -1 0 0
    outer loop
      vertex 35 59 4
      vertex 35 64 36
      vertex 35 64 4
    endloop
  endfacet
  facet normal -1 -0 0
    outer loop
      vertex 35 64 36
      vertex 35 59 4
      vertex 35 59 36
    endloop
  endfacet
  facet normal -1 0 0
    outer loop
      vertex 35 51 4
      vertex 35 56 36
      vertex 35 56 4
    endloop
  endfacet
  facet normal -1 -0 0
    outer loop
      vertex 35 56 36
      vertex 35 51 4
      vertex 35 51 36
    endloop
  endfacet
  facet normal -1 0 0
    outer loop
      vertex 35 43 4
      vertex 35 48 36
      vertex 35 48 4
    endloop
  endfacet
  facet normal -1 -0 0
    outer loop
      vertex 35 48 36
      vertex 35 43 4
      vertex 35 43 36
    endloop
  endfacet
  facet normal -1 0 0
    outer loop
      vertex 35 35 4
      vertex 35 40 36
      vertex 35 40 4
    endloop
  endfacet
  facet normal -1 -0 0
    outer loop
      vertex 35 40 36
      vertex 35 35 4
      vertex 35 35 36
    endloop
  endfacet
  facet normal -1 0 0
    outer loop
      vertex 35 27 4
      vertex 35 32 36
      vertex 35 32 4
    endloop
  endfacet
  facet normal -1 -0 0
    outer loop
      vertex 35 32 36
      vertex 35 27 4
      vertex 35 27 36
    endloop
  endfacet
  facet normal -1 0 0
    outer loop
      vertex 35 19 4
      vertex 35 24 36
      vertex 35 24 4
    endloop
  endfacet
  facet normal -1 -0 0
    outer loop
      vertex 35 24 36
      vertex 35 19 4
      vertex 35 19 36
    endloop
  endfacet
  facet normal -1 0 0
    outer loop
      vertex 35 11 4
      vertex 35 16 36
      vertex 35 16 4
    endloop
  endfacet
  facet normal -1 -0 0
    outer loop
      vertex 35 16 36
      vertex 35 11 4
      vertex 35 11 36
    endloop
  endfacet
endsolid OpenSCAD_Model
