solid OpenSCAD_Model
  facet normal -1 0 0
    outer loop
      vertex 0 0 0
      vertex 0 131 36
      vertex 0 131 0
    endloop
  endfacet
  facet normal -1 -0 0
    outer loop
      vertex 0 131 36
      vertex 0 0 0
      vertex 0 0 36
    endloop
  endfacet
  facet normal -0 0 1
    outer loop
      vertex 4 16 4
      vertex 7 11 4
      vertex 7 16 4
    endloop
  endfacet
  facet normal 0 0 1
    outer loop
      vertex 7 11 4
      vertex 4 16 4
      vertex 4 11 4
    endloop
  endfacet
  facet normal -0 0 1
    outer loop
      vertex 4 24 4
      vertex 7 19 4
      vertex 7 24 4
    endloop
  endfacet
  facet normal 0 0 1
    outer loop
      vertex 7 19 4
      vertex 4 24 4
      vertex 4 19 4
    endloop
  endfacet
  facet normal -0 0 1
    outer loop
      vertex 4 32 4
      vertex 7 27 4
      vertex 7 32 4
    endloop
  endfacet
  facet normal 0 0 1
    outer loop
      vertex 7 27 4
      vertex 4 32 4
      vertex 4 27 4
    endloop
  endfacet
  facet normal -0 0 1
    outer loop
      vertex 4 40 4
      vertex 7 35 4
      vertex 7 40 4
    endloop
  endfacet
  facet normal 0 0 1
    outer loop
      vertex 7 35 4
      vertex 4 40 4
      vertex 4 35 4
    endloop
  endfacet
  facet normal -0 0 1
    outer loop
      vertex 4 48 4
      vertex 7 43 4
      vertex 7 48 4
    endloop
  endfacet
  facet normal 0 0 1
    outer loop
      vertex 7 43 4
      vertex 4 48 4
      vertex 4 43 4
    endloop
  endfacet
  facet normal -0 0 1
    outer loop
      vertex 4 56 4
      vertex 7 51 4
      vertex 7 56 4
    endloop
  endfacet
  facet normal 0 0 1
    outer loop
      vertex 7 51 4
      vertex 4 56 4
      vertex 4 51 4
    endloop
  endfacet
  facet normal -0 0 1
    outer loop
      vertex 4 80 4
      vertex 7 75 4
      vertex 7 80 4
    endloop
  endfacet
  facet normal 0 0 1
    outer loop
      vertex 7 75 4
      vertex 4 80 4
      vertex 4 75 4
    endloop
  endfacet
  facet normal -0 0 1
    outer loop
      vertex 4 88 4
      vertex 7 83 4
      vertex 7 88 4
    endloop
  endfacet
  facet normal 0 0 1
    outer loop
      vertex 7 83 4
      vertex 4 88 4
      vertex 4 83 4
    endloop
  endfacet
  facet normal -0 0 1
    outer loop
      vertex 4 96 4
      vertex 7 91 4
      vertex 7 96 4
    endloop
  endfacet
  facet normal 0 0 1
    outer loop
      vertex 7 91 4
      vertex 4 96 4
      vertex 4 91 4
    endloop
  endfacet
  facet normal -0 0 1
    outer loop
      vertex 4 104 4
      vertex 7 99 4
      vertex 7 104 4
    endloop
  endfacet
  facet normal 0 0 1
    outer loop
      vertex 7 99 4
      vertex 4 104 4
      vertex 4 99 4
    endloop
  endfacet
  facet normal -0 0 1
    outer loop
      vertex 4 112 4
      vertex 7 107 4
      vertex 7 112 4
    endloop
  endfacet
  facet normal 0 0 1
    outer loop
      vertex 7 107 4
      vertex 4 112 4
      vertex 4 107 4
    endloop
  endfacet
  facet normal -0 0 1
    outer loop
      vertex 4 120 4
      vertex 7 115 4
      vertex 7 120 4
    endloop
  endfacet
  facet normal 0 0 1
    outer loop
      vertex 7 115 4
      vertex 4 120 4
      vertex 4 115 4
    endloop
  endfacet
  facet normal -0 0 1
    outer loop
      vertex 4 128 4
      vertex 7 123 4
      vertex 7 128 4
    endloop
  endfacet
  facet normal 0 0 1
    outer loop
      vertex 7 123 4
      vertex 4 128 4
      vertex 4 123 4
    endloop
  endfacet
  facet normal 0 0 1
    outer loop
      vertex 7 51 4
      vertex 10 64 4
      vertex 7 56 4
    endloop
  endfacet
  facet normal -0 0 1
    outer loop
      vertex 4 64 4
      vertex 7 59 4
      vertex 8.73006 64 4
    endloop
  endfacet
  facet normal 0 0 1
    outer loop
      vertex 7 59 4
      vertex 4 64 4
      vertex 4 59 4
    endloop
  endfacet
  facet normal -0 0 1
    outer loop
      vertex 10 67 4
      vertex 29 64 4
      vertex 29 67 4
    endloop
  endfacet
  facet normal 0 0 1
    outer loop
      vertex 29 64 4
      vertex 10 67 4
      vertex 10 64 4
    endloop
  endfacet
  facet normal 0 0 1
    outer loop
      vertex 29 128 4
      vertex 29.5982 128 4
      vertex 29.5982 131 4
    endloop
  endfacet
  facet normal 0 0 1
    outer loop
      vertex 29.5982 128 4
      vertex 29 128 4
      vertex 29.5982 67 4
    endloop
  endfacet
  facet normal 0 0 1
    outer loop
      vertex 29 67 4
      vertex 29.5982 67 4
      vertex 29 128 4
    endloop
  endfacet
  facet normal 0 0 1
    outer loop
      vertex 29.5982 131 4
      vertex 10 128 4
      vertex 29 128 4
    endloop
  endfacet
  facet normal -0 0 1
    outer loop
      vertex 7 96 4
      vertex 10 67 4
      vertex 10 128 4
    endloop
  endfacet
  facet normal -0 0 1
    outer loop
      vertex 7 91 4
      vertex 10 67 4
      vertex 7 96 4
    endloop
  endfacet
  facet normal 0 0 1
    outer loop
      vertex 8.73006 64 4
      vertex 10 64 4
      vertex 8.73006 67 4
    endloop
  endfacet
  facet normal -0 0 1
    outer loop
      vertex 7 131 4
      vertex 10 128 4
      vertex 29.5982 131 4
    endloop
  endfacet
  facet normal 0 0 1
    outer loop
      vertex 7 128 4
      vertex 10 128 4
      vertex 7 131 4
    endloop
  endfacet
  facet normal 0 0 1
    outer loop
      vertex 7 123 4
      vertex 10 128 4
      vertex 7 128 4
    endloop
  endfacet
  facet normal 0 0 1
    outer loop
      vertex 7 120 4
      vertex 10 128 4
      vertex 7 123 4
    endloop
  endfacet
  facet normal 0 0 1
    outer loop
      vertex 7 115 4
      vertex 10 128 4
      vertex 7 120 4
    endloop
  endfacet
  facet normal 0 0 1
    outer loop
      vertex 7 112 4
      vertex 10 128 4
      vertex 7 115 4
    endloop
  endfacet
  facet normal 0 0 1
    outer loop
      vertex 7 107 4
      vertex 10 128 4
      vertex 7 112 4
    endloop
  endfacet
  facet normal 0 0 1
    outer loop
      vertex 7 104 4
      vertex 10 128 4
      vertex 7 107 4
    endloop
  endfacet
  facet normal 0 0 1
    outer loop
      vertex 7 99 4
      vertex 10 128 4
      vertex 7 104 4
    endloop
  endfacet
  facet normal 0 0 1
    outer loop
      vertex 7 96 4
      vertex 10 128 4
      vertex 7 99 4
    endloop
  endfacet
  facet normal -0 0 1
    outer loop
      vertex 7 88 4
      vertex 10 67 4
      vertex 7 91 4
    endloop
  endfacet
  facet normal -0 0 1
    outer loop
      vertex 7 83 4
      vertex 10 67 4
      vertex 7 88 4
    endloop
  endfacet
  facet normal -0 0 1
    outer loop
      vertex 7 80 4
      vertex 10 67 4
      vertex 7 83 4
    endloop
  endfacet
  facet normal -0 0 1
    outer loop
      vertex 7 75 4
      vertex 10 67 4
      vertex 7 80 4
    endloop
  endfacet
  facet normal 0 0 1
    outer loop
      vertex 10 67 4
      vertex 8.73006 67 4
      vertex 10 64 4
    endloop
  endfacet
  facet normal -0 0 1
    outer loop
      vertex 7 72 4
      vertex 10 67 4
      vertex 7 75 4
    endloop
  endfacet
  facet normal 0 0 1
    outer loop
      vertex 10 67 4
      vertex 7 72 4
      vertex 8.73006 67 4
    endloop
  endfacet
  facet normal 0 0 1
    outer loop
      vertex 4 67 4
      vertex 7 72 4
      vertex 4 72 4
    endloop
  endfacet
  facet normal 0 0 1
    outer loop
      vertex 7 72 4
      vertex 4 67 4
      vertex 8.73006 67 4
    endloop
  endfacet
  facet normal 0 0 1
    outer loop
      vertex 35 128 4
      vertex 31 123 4
      vertex 35 123 4
    endloop
  endfacet
  facet normal 0 0 1
    outer loop
      vertex 29.5982 128 4
      vertex 31 120 4
      vertex 31 123 4
    endloop
  endfacet
  facet normal 0 0 1
    outer loop
      vertex 31 120 4
      vertex 29.5982 128 4
      vertex 31 115 4
    endloop
  endfacet
  facet normal 0 0 1
    outer loop
      vertex 31 115 4
      vertex 29.5982 128 4
      vertex 31 112 4
    endloop
  endfacet
  facet normal 0 0 1
    outer loop
      vertex 31 112 4
      vertex 29.5982 128 4
      vertex 31 107 4
    endloop
  endfacet
  facet normal 0 0 1
    outer loop
      vertex 31 107 4
      vertex 29.5982 128 4
      vertex 31 104 4
    endloop
  endfacet
  facet normal 0 0 1
    outer loop
      vertex 31 104 4
      vertex 29.5982 128 4
      vertex 31 99 4
    endloop
  endfacet
  facet normal 0 0 1
    outer loop
      vertex 31 99 4
      vertex 29.5982 128 4
      vertex 31 96 4
    endloop
  endfacet
  facet normal 0 0 1
    outer loop
      vertex 29.5982 67 4
      vertex 31 96 4
      vertex 29.5982 128 4
    endloop
  endfacet
  facet normal 0 0 1
    outer loop
      vertex 31 96 4
      vertex 29.5982 67 4
      vertex 31 91 4
    endloop
  endfacet
  facet normal 0 0 1
    outer loop
      vertex 31 91 4
      vertex 29.5982 67 4
      vertex 31 88 4
    endloop
  endfacet
  facet normal 0 0 1
    outer loop
      vertex 31 88 4
      vertex 29.5982 67 4
      vertex 31 83 4
    endloop
  endfacet
  facet normal 0 0 1
    outer loop
      vertex 31 83 4
      vertex 29.5982 67 4
      vertex 31 80 4
    endloop
  endfacet
  facet normal 0 0 1
    outer loop
      vertex 31 80 4
      vertex 29.5982 67 4
      vertex 31 75 4
    endloop
  endfacet
  facet normal -0 0 1
    outer loop
      vertex 29.5982 128 4
      vertex 31 123 4
      vertex 35 128 4
    endloop
  endfacet
  facet normal -0 0 1
    outer loop
      vertex 31 120 4
      vertex 35 115 4
      vertex 35 120 4
    endloop
  endfacet
  facet normal 0 0 1
    outer loop
      vertex 35 115 4
      vertex 31 120 4
      vertex 31 115 4
    endloop
  endfacet
  facet normal -0 0 1
    outer loop
      vertex 31 112 4
      vertex 35 107 4
      vertex 35 112 4
    endloop
  endfacet
  facet normal 0 0 1
    outer loop
      vertex 35 107 4
      vertex 31 112 4
      vertex 31 107 4
    endloop
  endfacet
  facet normal -0 0 1
    outer loop
      vertex 31 104 4
      vertex 35 99 4
      vertex 35 104 4
    endloop
  endfacet
  facet normal 0 0 1
    outer loop
      vertex 35 99 4
      vertex 31 104 4
      vertex 31 99 4
    endloop
  endfacet
  facet normal -0 0 1
    outer loop
      vertex 31 96 4
      vertex 35 91 4
      vertex 35 96 4
    endloop
  endfacet
  facet normal 0 0 1
    outer loop
      vertex 35 91 4
      vertex 31 96 4
      vertex 31 91 4
    endloop
  endfacet
  facet normal -0 0 1
    outer loop
      vertex 31 88 4
      vertex 35 83 4
      vertex 35 88 4
    endloop
  endfacet
  facet normal 0 0 1
    outer loop
      vertex 35 83 4
      vertex 31 88 4
      vertex 31 83 4
    endloop
  endfacet
  facet normal -0 0 1
    outer loop
      vertex 31 80 4
      vertex 35 75 4
      vertex 35 80 4
    endloop
  endfacet
  facet normal 0 0 1
    outer loop
      vertex 35 75 4
      vertex 31 80 4
      vertex 31 75 4
    endloop
  endfacet
  facet normal -0 0 1
    outer loop
      vertex 31 72 4
      vertex 35 67 4
      vertex 35 72 4
    endloop
  endfacet
  facet normal 0 0 1
    outer loop
      vertex 31 72 4
      vertex 29.5982 67 4
      vertex 35 67 4
    endloop
  endfacet
  facet normal 0 0 1
    outer loop
      vertex 31 75 4
      vertex 29.5982 67 4
      vertex 31 72 4
    endloop
  endfacet
  facet normal 0 0 1
    outer loop
      vertex 35 64 4
      vertex 31 59 4
      vertex 35 59 4
    endloop
  endfacet
  facet normal 0 0 1
    outer loop
      vertex 29 64 4
      vertex 31 56 4
      vertex 31 59 4
    endloop
  endfacet
  facet normal 0 0 1
    outer loop
      vertex 31 56 4
      vertex 29 64 4
      vertex 31 51 4
    endloop
  endfacet
  facet normal 0 0 1
    outer loop
      vertex 31 51 4
      vertex 29 64 4
      vertex 31 48 4
    endloop
  endfacet
  facet normal 0 0 1
    outer loop
      vertex 31 48 4
      vertex 29 64 4
      vertex 31 43 4
    endloop
  endfacet
  facet normal 0 0 1
    outer loop
      vertex 31 43 4
      vertex 29 64 4
      vertex 31 40 4
    endloop
  endfacet
  facet normal 0 0 1
    outer loop
      vertex 31 40 4
      vertex 29 64 4
      vertex 31 35 4
    endloop
  endfacet
  facet normal 0 0 1
    outer loop
      vertex 31 35 4
      vertex 29 64 4
      vertex 31 32 4
    endloop
  endfacet
  facet normal 0 0 1
    outer loop
      vertex 29 3 4
      vertex 31 32 4
      vertex 29 64 4
    endloop
  endfacet
  facet normal 0 0 1
    outer loop
      vertex 31 32 4
      vertex 29 3 4
      vertex 31 27 4
    endloop
  endfacet
  facet normal 0 0 1
    outer loop
      vertex 31 27 4
      vertex 29 3 4
      vertex 31 24 4
    endloop
  endfacet
  facet normal 0 0 1
    outer loop
      vertex 31 24 4
      vertex 29 3 4
      vertex 31 19 4
    endloop
  endfacet
  facet normal 0 0 1
    outer loop
      vertex 31 19 4
      vertex 29 3 4
      vertex 31 16 4
    endloop
  endfacet
  facet normal 0 0 1
    outer loop
      vertex 31 11 4
      vertex 29 3 4
      vertex 31 8 4
    endloop
  endfacet
  facet normal 0 0 1
    outer loop
      vertex 31 8 4
      vertex 29 3 4
      vertex 31 3 4
    endloop
  endfacet
  facet normal -0 0 1
    outer loop
      vertex 29.5982 64 4
      vertex 31 59 4
      vertex 35 64 4
    endloop
  endfacet
  facet normal -0 0 1
    outer loop
      vertex 29 64 4
      vertex 31 59 4
      vertex 29.5982 64 4
    endloop
  endfacet
  facet normal 0 0 1
    outer loop
      vertex 29.5982 67 4
      vertex 29 67 4
      vertex 29.5982 64 4
    endloop
  endfacet
  facet normal 0 0 1
    outer loop
      vertex 29 64 4
      vertex 29.5982 64 4
      vertex 29 67 4
    endloop
  endfacet
  facet normal 0 0 1
    outer loop
      vertex 31 16 4
      vertex 29 3 4
      vertex 31 11 4
    endloop
  endfacet
  facet normal 0 0 1
    outer loop
      vertex 31 3 4
      vertex 29 3 4
      vertex 31 0 4
    endloop
  endfacet
  facet normal 0 0 1
    outer loop
      vertex 8.73006 0 4
      vertex 29 3 4
      vertex 10 3 4
    endloop
  endfacet
  facet normal 0 0 1
    outer loop
      vertex 7 59 4
      vertex 10 64 4
      vertex 8.73006 64 4
    endloop
  endfacet
  facet normal 0 0 1
    outer loop
      vertex 7 56 4
      vertex 10 64 4
      vertex 7 59 4
    endloop
  endfacet
  facet normal 0 0 1
    outer loop
      vertex 8.73006 0 4
      vertex 10 3 4
      vertex 8.73006 3 4
    endloop
  endfacet
  facet normal 0 0 1
    outer loop
      vertex 29 3 4
      vertex 8.73006 0 4
      vertex 31 0 4
    endloop
  endfacet
  facet normal -0 0 1
    outer loop
      vertex 31 56 4
      vertex 35 51 4
      vertex 35 56 4
    endloop
  endfacet
  facet normal 0 0 1
    outer loop
      vertex 35 51 4
      vertex 31 56 4
      vertex 31 51 4
    endloop
  endfacet
  facet normal -0 0 1
    outer loop
      vertex 31 48 4
      vertex 35 43 4
      vertex 35 48 4
    endloop
  endfacet
  facet normal 0 0 1
    outer loop
      vertex 35 43 4
      vertex 31 48 4
      vertex 31 43 4
    endloop
  endfacet
  facet normal -0 0 1
    outer loop
      vertex 31 40 4
      vertex 35 35 4
      vertex 35 40 4
    endloop
  endfacet
  facet normal 0 0 1
    outer loop
      vertex 35 35 4
      vertex 31 40 4
      vertex 31 35 4
    endloop
  endfacet
  facet normal -0 0 1
    outer loop
      vertex 31 32 4
      vertex 35 27 4
      vertex 35 32 4
    endloop
  endfacet
  facet normal 0 0 1
    outer loop
      vertex 35 27 4
      vertex 31 32 4
      vertex 31 27 4
    endloop
  endfacet
  facet normal -0 0 1
    outer loop
      vertex 31 24 4
      vertex 35 19 4
      vertex 35 24 4
    endloop
  endfacet
  facet normal 0 0 1
    outer loop
      vertex 35 19 4
      vertex 31 24 4
      vertex 31 19 4
    endloop
  endfacet
  facet normal -0 0 1
    outer loop
      vertex 31 16 4
      vertex 35 11 4
      vertex 35 16 4
    endloop
  endfacet
  facet normal 0 0 1
    outer loop
      vertex 35 11 4
      vertex 31 16 4
      vertex 31 11 4
    endloop
  endfacet
  facet normal -0 0 1
    outer loop
      vertex 31 8 4
      vertex 35 3 4
      vertex 35 8 4
    endloop
  endfacet
  facet normal 0 0 1
    outer loop
      vertex 35 3 4
      vertex 31 8 4
      vertex 31 3 4
    endloop
  endfacet
  facet normal 0 0 1
    outer loop
      vertex 7 48 4
      vertex 10 64 4
      vertex 7 51 4
    endloop
  endfacet
  facet normal 0 0 1
    outer loop
      vertex 7 43 4
      vertex 10 64 4
      vertex 7 48 4
    endloop
  endfacet
  facet normal 0 0 1
    outer loop
      vertex 7 40 4
      vertex 10 64 4
      vertex 7 43 4
    endloop
  endfacet
  facet normal 0 0 1
    outer loop
      vertex 7 35 4
      vertex 10 64 4
      vertex 7 40 4
    endloop
  endfacet
  facet normal 0 0 1
    outer loop
      vertex 10 64 4
      vertex 7 35 4
      vertex 10 3 4
    endloop
  endfacet
  facet normal -0 0 1
    outer loop
      vertex 7 32 4
      vertex 10 3 4
      vertex 7 35 4
    endloop
  endfacet
  facet normal -0 0 1
    outer loop
      vertex 7 27 4
      vertex 10 3 4
      vertex 7 32 4
    endloop
  endfacet
  facet normal -0 0 1
    outer loop
      vertex 7 24 4
      vertex 10 3 4
      vertex 7 27 4
    endloop
  endfacet
  facet normal -0 0 1
    outer loop
      vertex 7 19 4
      vertex 10 3 4
      vertex 7 24 4
    endloop
  endfacet
  facet normal -0 0 1
    outer loop
      vertex 7 16 4
      vertex 10 3 4
      vertex 7 19 4
    endloop
  endfacet
  facet normal -0 0 1
    outer loop
      vertex 7 11 4
      vertex 10 3 4
      vertex 7 16 4
    endloop
  endfacet
  facet normal -0 0 1
    outer loop
      vertex 7 8 4
      vertex 10 3 4
      vertex 7 11 4
    endloop
  endfacet
  facet normal 0 0 1
    outer loop
      vertex 10 3 4
      vertex 7 8 4
      vertex 8.73006 3 4
    endloop
  endfacet
  facet normal 0 0 1
    outer loop
      vertex 4 3 4
      vertex 7 8 4
      vertex 4 8 4
    endloop
  endfacet
  facet normal 0 0 1
    outer loop
      vertex 7 8 4
      vertex 4 3 4
      vertex 8.73006 3 4
    endloop
  endfacet
  facet normal 1 -0 0
    outer loop
      vertex 39 0 36
      vertex 39 131 0
      vertex 39 131 36
    endloop
  endfacet
  facet normal 1 0 0
    outer loop
      vertex 39 131 0
      vertex 39 0 36
      vertex 39 0 0
    endloop
  endfacet
  facet normal 0 1 0
    outer loop
      vertex 35 3 36
      vertex 29.3712 3 32
      vertex 4 3 36
    endloop
  endfacet
  facet normal 0 1 0
    outer loop
      vertex 35 3 36
      vertex 31 3 27.8816
      vertex 29.3712 3 32
    endloop
  endfacet
  facet normal 0 1 -0
    outer loop
      vertex 35 3 4
      vertex 31 3 27.8816
      vertex 35 3 36
    endloop
  endfacet
  facet normal 0 1 0
    outer loop
      vertex 31 3 27.8816
      vertex 35 3 4
      vertex 31 3 4
    endloop
  endfacet
  facet normal 0 1 -0
    outer loop
      vertex 7 3 32
      vertex 4 3 36
      vertex 29.3712 3 32
    endloop
  endfacet
  facet normal 0 1 -0
    outer loop
      vertex 7 3 8.00985
      vertex 4 3 36
      vertex 7 3 32
    endloop
  endfacet
  facet normal 0 1 0
    outer loop
      vertex 7 3 8.00985
      vertex 4 3 4
      vertex 4 3 36
    endloop
  endfacet
  facet normal 0 1 0
    outer loop
      vertex 4 3 4
      vertex 7 3 8.00985
      vertex 8.73006 3 4
    endloop
  endfacet
  facet normal 0 1 0
    outer loop
      vertex 31 3 27.8816
      vertex 7 3 8.00985
      vertex 29.3712 3 32
    endloop
  endfacet
  facet normal -0 1 0
    outer loop
      vertex 7 3 8.00985
      vertex 31 3 27.8816
      vertex 8.73006 3 4
    endloop
  endfacet
  facet normal 0 1 -0
    outer loop
      vertex 29 3 0
      vertex 10 3 4
      vertex 29 3 4
    endloop
  endfacet
  facet normal 0 1 0
    outer loop
      vertex 10 3 4
      vertex 29 3 0
      vertex 10 3 0
    endloop
  endfacet
  facet normal 0 0 -1
    outer loop
      vertex 10 64 0
      vertex 29 67 0
      vertex 29 64 0
    endloop
  endfacet
  facet normal -0 0 -1
    outer loop
      vertex 29 67 0
      vertex 10 64 0
      vertex 10 67 0
    endloop
  endfacet
  facet normal 0 0 -1
    outer loop
      vertex 29 64 0
      vertex 39 0 0
      vertex 29 3 0
    endloop
  endfacet
  facet normal 0 0 -1
    outer loop
      vertex 39 0 0
      vertex 10 3 0
      vertex 29 3 0
    endloop
  endfacet
  facet normal 0 0 -1
    outer loop
      vertex 0 0 0
      vertex 10 64 0
      vertex 10 3 0
    endloop
  endfacet
  facet normal -0 0 -1
    outer loop
      vertex 10 64 0
      vertex 0 0 0
      vertex 10 67 0
    endloop
  endfacet
  facet normal 0 0 -1
    outer loop
      vertex 0 131 0
      vertex 10 67 0
      vertex 0 0 0
    endloop
  endfacet
  facet normal 0 0 -1
    outer loop
      vertex 0 0 0
      vertex 10 3 0
      vertex 39 0 0
    endloop
  endfacet
  facet normal 0 0 -1
    outer loop
      vertex 39 0 0
      vertex 29 64 0
      vertex 39 131 0
    endloop
  endfacet
  facet normal 0 0 -1
    outer loop
      vertex 29 67 0
      vertex 39 131 0
      vertex 29 64 0
    endloop
  endfacet
  facet normal 0 0 -1
    outer loop
      vertex 29 128 0
      vertex 39 131 0
      vertex 29 67 0
    endloop
  endfacet
  facet normal 0 0 -1
    outer loop
      vertex 10 128 0
      vertex 39 131 0
      vertex 29 128 0
    endloop
  endfacet
  facet normal 0 0 -1
    outer loop
      vertex 10 128 0
      vertex 0 131 0
      vertex 39 131 0
    endloop
  endfacet
  facet normal 0 0 -1
    outer loop
      vertex 10 67 0
      vertex 0 131 0
      vertex 10 128 0
    endloop
  endfacet
  facet normal 0 -1 0
    outer loop
      vertex 7 0 8.00985
      vertex 31 0 27.8816
      vertex 29.3712 0 32
    endloop
  endfacet
  facet normal 0 -1 0
    outer loop
      vertex 31 0 27.8816
      vertex 7 0 8.00985
      vertex 8.73006 0 4
    endloop
  endfacet
  facet normal 0 -1 0
    outer loop
      vertex 29.3712 0 32
      vertex 0 0 36
      vertex 7 0 32
    endloop
  endfacet
  facet normal 0 -1 0
    outer loop
      vertex 0 0 36
      vertex 7 0 8.00985
      vertex 7 0 32
    endloop
  endfacet
  facet normal 0 -1 0
    outer loop
      vertex 39 0 0
      vertex 8.73006 0 4
      vertex 0 0 0
    endloop
  endfacet
  facet normal 0 -1 -0
    outer loop
      vertex 7 0 8.00985
      vertex 0 0 0
      vertex 8.73006 0 4
    endloop
  endfacet
  facet normal 0 -1 0
    outer loop
      vertex 0 0 0
      vertex 7 0 8.00985
      vertex 0 0 36
    endloop
  endfacet
  facet normal 0 -1 0
    outer loop
      vertex 0 0 36
      vertex 29.3712 0 32
      vertex 39 0 36
    endloop
  endfacet
  facet normal 0 -1 0
    outer loop
      vertex 31 0 27.8816
      vertex 39 0 36
      vertex 29.3712 0 32
    endloop
  endfacet
  facet normal 0 -1 0
    outer loop
      vertex 39 0 0
      vertex 31 0 27.8816
      vertex 31 0 4
    endloop
  endfacet
  facet normal 0 -1 0
    outer loop
      vertex 31 0 27.8816
      vertex 39 0 0
      vertex 39 0 36
    endloop
  endfacet
  facet normal 0 -1 0
    outer loop
      vertex 8.73006 0 4
      vertex 39 0 0
      vertex 31 0 4
    endloop
  endfacet
  facet normal 0 1 0
    outer loop
      vertex 31 131 8.36184
      vertex 7 131 28.2336
      vertex 8.95706 131 32
    endloop
  endfacet
  facet normal 0 1 0
    outer loop
      vertex 7 131 28.2336
      vertex 31 131 8.36184
      vertex 29.5982 131 4
    endloop
  endfacet
  facet normal 0 1 0
    outer loop
      vertex 8.95706 131 32
      vertex 39 131 36
      vertex 31 131 32
    endloop
  endfacet
  facet normal 0 1 0
    outer loop
      vertex 39 131 36
      vertex 31 131 8.36184
      vertex 31 131 32
    endloop
  endfacet
  facet normal 0 1 0
    outer loop
      vertex 0 131 0
      vertex 29.5982 131 4
      vertex 39 131 0
    endloop
  endfacet
  facet normal 0 1 0
    outer loop
      vertex 31 131 8.36184
      vertex 39 131 0
      vertex 29.5982 131 4
    endloop
  endfacet
  facet normal 0 1 -0
    outer loop
      vertex 39 131 0
      vertex 31 131 8.36184
      vertex 39 131 36
    endloop
  endfacet
  facet normal 0 1 0
    outer loop
      vertex 39 131 36
      vertex 8.95706 131 32
      vertex 0 131 36
    endloop
  endfacet
  facet normal 0 1 -0
    outer loop
      vertex 7 131 28.2336
      vertex 0 131 36
      vertex 8.95706 131 32
    endloop
  endfacet
  facet normal 0 1 0
    outer loop
      vertex 0 131 0
      vertex 7 131 28.2336
      vertex 7 131 4
    endloop
  endfacet
  facet normal 0 1 0
    outer loop
      vertex 7 131 28.2336
      vertex 0 131 0
      vertex 0 131 36
    endloop
  endfacet
  facet normal 0 1 0
    outer loop
      vertex 29.5982 131 4
      vertex 0 131 0
      vertex 7 131 4
    endloop
  endfacet
  facet normal 0 -1 0
    outer loop
      vertex 4 128 36
      vertex 8.95706 128 32
      vertex 35 128 36
    endloop
  endfacet
  facet normal 0 -1 0
    outer loop
      vertex 4 128 36
      vertex 7 128 28.2336
      vertex 8.95706 128 32
    endloop
  endfacet
  facet normal 0 -1 0
    outer loop
      vertex 4 128 4
      vertex 7 128 28.2336
      vertex 4 128 36
    endloop
  endfacet
  facet normal 0 -1 -0
    outer loop
      vertex 7 128 28.2336
      vertex 4 128 4
      vertex 7 128 4
    endloop
  endfacet
  facet normal 0 -1 0
    outer loop
      vertex 31 128 32
      vertex 35 128 36
      vertex 8.95706 128 32
    endloop
  endfacet
  facet normal 0 -1 0
    outer loop
      vertex 31 128 8.36184
      vertex 35 128 36
      vertex 31 128 32
    endloop
  endfacet
  facet normal 0 -1 0
    outer loop
      vertex 31 128 8.36184
      vertex 35 128 4
      vertex 35 128 36
    endloop
  endfacet
  facet normal 0 -1 0
    outer loop
      vertex 35 128 4
      vertex 31 128 8.36184
      vertex 29.5982 128 4
    endloop
  endfacet
  facet normal 0 -1 0
    outer loop
      vertex 7 128 28.2336
      vertex 31 128 8.36184
      vertex 8.95706 128 32
    endloop
  endfacet
  facet normal -0 -1 0
    outer loop
      vertex 31 128 8.36184
      vertex 7 128 28.2336
      vertex 29.5982 128 4
    endloop
  endfacet
  facet normal 0 -1 0
    outer loop
      vertex 10 128 0
      vertex 29 128 4
      vertex 10 128 4
    endloop
  endfacet
  facet normal 0 -1 -0
    outer loop
      vertex 29 128 4
      vertex 10 128 0
      vertex 29 128 0
    endloop
  endfacet
  facet normal -0 0 1
    outer loop
      vertex 31 11 36
      vertex 35 8 36
      vertex 35 11 36
    endloop
  endfacet
  facet normal 0 0 1
    outer loop
      vertex 35 8 36
      vertex 31 11 36
      vertex 31 8 36
    endloop
  endfacet
  facet normal -0 0 1
    outer loop
      vertex 31 19 36
      vertex 35 16 36
      vertex 35 19 36
    endloop
  endfacet
  facet normal 0 0 1
    outer loop
      vertex 35 16 36
      vertex 31 19 36
      vertex 31 16 36
    endloop
  endfacet
  facet normal -0 0 1
    outer loop
      vertex 31 27 36
      vertex 35 24 36
      vertex 35 27 36
    endloop
  endfacet
  facet normal 0 0 1
    outer loop
      vertex 35 24 36
      vertex 31 27 36
      vertex 31 24 36
    endloop
  endfacet
  facet normal -0 0 1
    outer loop
      vertex 31 35 36
      vertex 35 32 36
      vertex 35 35 36
    endloop
  endfacet
  facet normal 0 0 1
    outer loop
      vertex 35 32 36
      vertex 31 35 36
      vertex 31 32 36
    endloop
  endfacet
  facet normal -0 0 1
    outer loop
      vertex 31 43 36
      vertex 35 40 36
      vertex 35 43 36
    endloop
  endfacet
  facet normal 0 0 1
    outer loop
      vertex 35 40 36
      vertex 31 43 36
      vertex 31 40 36
    endloop
  endfacet
  facet normal -0 0 1
    outer loop
      vertex 31 51 36
      vertex 35 48 36
      vertex 35 51 36
    endloop
  endfacet
  facet normal 0 0 1
    outer loop
      vertex 35 48 36
      vertex 31 51 36
      vertex 31 48 36
    endloop
  endfacet
  facet normal -0 0 1
    outer loop
      vertex 31 59 36
      vertex 35 56 36
      vertex 35 59 36
    endloop
  endfacet
  facet normal 0 0 1
    outer loop
      vertex 35 56 36
      vertex 31 59 36
      vertex 31 56 36
    endloop
  endfacet
  facet normal -0 0 1
    outer loop
      vertex 4 67 36
      vertex 35 64 36
      vertex 35 67 36
    endloop
  endfacet
  facet normal 0 0 1
    outer loop
      vertex 35 64 36
      vertex 4 67 36
      vertex 4 64 36
    endloop
  endfacet
  facet normal -0 0 1
    outer loop
      vertex 31 75 36
      vertex 35 72 36
      vertex 35 75 36
    endloop
  endfacet
  facet normal 0 0 1
    outer loop
      vertex 35 72 36
      vertex 31 75 36
      vertex 31 72 36
    endloop
  endfacet
  facet normal -0 0 1
    outer loop
      vertex 31 83 36
      vertex 35 80 36
      vertex 35 83 36
    endloop
  endfacet
  facet normal 0 0 1
    outer loop
      vertex 35 80 36
      vertex 31 83 36
      vertex 31 80 36
    endloop
  endfacet
  facet normal -0 0 1
    outer loop
      vertex 31 91 36
      vertex 35 88 36
      vertex 35 91 36
    endloop
  endfacet
  facet normal 0 0 1
    outer loop
      vertex 35 88 36
      vertex 31 91 36
      vertex 31 88 36
    endloop
  endfacet
  facet normal -0 0 1
    outer loop
      vertex 31 99 36
      vertex 35 96 36
      vertex 35 99 36
    endloop
  endfacet
  facet normal 0 0 1
    outer loop
      vertex 35 96 36
      vertex 31 99 36
      vertex 31 96 36
    endloop
  endfacet
  facet normal -0 0 1
    outer loop
      vertex 31 107 36
      vertex 35 104 36
      vertex 35 107 36
    endloop
  endfacet
  facet normal 0 0 1
    outer loop
      vertex 35 104 36
      vertex 31 107 36
      vertex 31 104 36
    endloop
  endfacet
  facet normal -0 0 1
    outer loop
      vertex 31 115 36
      vertex 35 112 36
      vertex 35 115 36
    endloop
  endfacet
  facet normal 0 0 1
    outer loop
      vertex 35 112 36
      vertex 31 115 36
      vertex 31 112 36
    endloop
  endfacet
  facet normal -0 0 1
    outer loop
      vertex 31 123 36
      vertex 35 120 36
      vertex 35 123 36
    endloop
  endfacet
  facet normal 0 0 1
    outer loop
      vertex 35 120 36
      vertex 31 123 36
      vertex 31 120 36
    endloop
  endfacet
  facet normal 0 0 1
    outer loop
      vertex 35 123 36
      vertex 39 131 36
      vertex 35 128 36
    endloop
  endfacet
  facet normal 0 0 1
    outer loop
      vertex 39 131 36
      vertex 4 128 36
      vertex 35 128 36
    endloop
  endfacet
  facet normal 0 0 1
    outer loop
      vertex 0 131 36
      vertex 4 123 36
      vertex 4 128 36
    endloop
  endfacet
  facet normal 0 0 1
    outer loop
      vertex 4 123 36
      vertex 0 131 36
      vertex 4 120 36
    endloop
  endfacet
  facet normal 0 0 1
    outer loop
      vertex 4 120 36
      vertex 0 131 36
      vertex 4 115 36
    endloop
  endfacet
  facet normal 0 0 1
    outer loop
      vertex 4 115 36
      vertex 0 131 36
      vertex 4 112 36
    endloop
  endfacet
  facet normal 0 0 1
    outer loop
      vertex 4 112 36
      vertex 0 131 36
      vertex 4 107 36
    endloop
  endfacet
  facet normal 0 0 1
    outer loop
      vertex 4 107 36
      vertex 0 131 36
      vertex 4 104 36
    endloop
  endfacet
  facet normal 0 0 1
    outer loop
      vertex 4 104 36
      vertex 0 131 36
      vertex 4 99 36
    endloop
  endfacet
  facet normal 0 0 1
    outer loop
      vertex 4 99 36
      vertex 0 131 36
      vertex 4 96 36
    endloop
  endfacet
  facet normal 0 0 1
    outer loop
      vertex 4 96 36
      vertex 0 131 36
      vertex 4 91 36
    endloop
  endfacet
  facet normal 0 0 1
    outer loop
      vertex 4 91 36
      vertex 0 131 36
      vertex 4 88 36
    endloop
  endfacet
  facet normal 0 0 1
    outer loop
      vertex 4 88 36
      vertex 0 131 36
      vertex 4 83 36
    endloop
  endfacet
  facet normal 0 0 1
    outer loop
      vertex 4 83 36
      vertex 0 131 36
      vertex 4 80 36
    endloop
  endfacet
  facet normal 0 0 1
    outer loop
      vertex 4 80 36
      vertex 0 131 36
      vertex 4 75 36
    endloop
  endfacet
  facet normal 0 0 1
    outer loop
      vertex 4 75 36
      vertex 0 131 36
      vertex 4 72 36
    endloop
  endfacet
  facet normal 0 0 1
    outer loop
      vertex 4 72 36
      vertex 0 131 36
      vertex 4 67 36
    endloop
  endfacet
  facet normal 0 0 1
    outer loop
      vertex 4 67 36
      vertex 0 131 36
      vertex 4 64 36
    endloop
  endfacet
  facet normal 0 0 1
    outer loop
      vertex 4 64 36
      vertex 0 131 36
      vertex 4 59 36
    endloop
  endfacet
  facet normal 0 0 1
    outer loop
      vertex 0 0 36
      vertex 4 59 36
      vertex 0 131 36
    endloop
  endfacet
  facet normal 0 0 1
    outer loop
      vertex 4 59 36
      vertex 0 0 36
      vertex 4 56 36
    endloop
  endfacet
  facet normal 0 0 1
    outer loop
      vertex 4 56 36
      vertex 0 0 36
      vertex 4 51 36
    endloop
  endfacet
  facet normal 0 0 1
    outer loop
      vertex 4 51 36
      vertex 0 0 36
      vertex 4 48 36
    endloop
  endfacet
  facet normal 0 0 1
    outer loop
      vertex 4 48 36
      vertex 0 0 36
      vertex 4 43 36
    endloop
  endfacet
  facet normal 0 0 1
    outer loop
      vertex 4 43 36
      vertex 0 0 36
      vertex 4 40 36
    endloop
  endfacet
  facet normal 0 0 1
    outer loop
      vertex 4 40 36
      vertex 0 0 36
      vertex 4 35 36
    endloop
  endfacet
  facet normal 0 0 1
    outer loop
      vertex 4 35 36
      vertex 0 0 36
      vertex 4 32 36
    endloop
  endfacet
  facet normal 0 0 1
    outer loop
      vertex 4 32 36
      vertex 0 0 36
      vertex 4 27 36
    endloop
  endfacet
  facet normal 0 0 1
    outer loop
      vertex 4 27 36
      vertex 0 0 36
      vertex 4 24 36
    endloop
  endfacet
  facet normal 0 0 1
    outer loop
      vertex 4 24 36
      vertex 0 0 36
      vertex 4 19 36
    endloop
  endfacet
  facet normal 0 0 1
    outer loop
      vertex 4 19 36
      vertex 0 0 36
      vertex 4 16 36
    endloop
  endfacet
  facet normal 0 0 1
    outer loop
      vertex 4 16 36
      vertex 0 0 36
      vertex 4 11 36
    endloop
  endfacet
  facet normal 0 0 1
    outer loop
      vertex 4 11 36
      vertex 0 0 36
      vertex 4 8 36
    endloop
  endfacet
  facet normal -0 0 1
    outer loop
      vertex 0 131 36
      vertex 4 128 36
      vertex 39 131 36
    endloop
  endfacet
  facet normal 0 0 1
    outer loop
      vertex 35 120 36
      vertex 39 131 36
      vertex 35 123 36
    endloop
  endfacet
  facet normal 0 0 1
    outer loop
      vertex 35 115 36
      vertex 39 131 36
      vertex 35 120 36
    endloop
  endfacet
  facet normal 0 0 1
    outer loop
      vertex 35 112 36
      vertex 39 131 36
      vertex 35 115 36
    endloop
  endfacet
  facet normal 0 0 1
    outer loop
      vertex 35 107 36
      vertex 39 131 36
      vertex 35 112 36
    endloop
  endfacet
  facet normal 0 0 1
    outer loop
      vertex 35 104 36
      vertex 39 131 36
      vertex 35 107 36
    endloop
  endfacet
  facet normal 0 0 1
    outer loop
      vertex 35 99 36
      vertex 39 131 36
      vertex 35 104 36
    endloop
  endfacet
  facet normal 0 0 1
    outer loop
      vertex 35 96 36
      vertex 39 131 36
      vertex 35 99 36
    endloop
  endfacet
  facet normal 0 0 1
    outer loop
      vertex 35 91 36
      vertex 39 131 36
      vertex 35 96 36
    endloop
  endfacet
  facet normal 0 0 1
    outer loop
      vertex 35 88 36
      vertex 39 131 36
      vertex 35 91 36
    endloop
  endfacet
  facet normal 0 0 1
    outer loop
      vertex 35 83 36
      vertex 39 131 36
      vertex 35 88 36
    endloop
  endfacet
  facet normal 0 0 1
    outer loop
      vertex 35 80 36
      vertex 39 131 36
      vertex 35 83 36
    endloop
  endfacet
  facet normal 0 0 1
    outer loop
      vertex 35 75 36
      vertex 39 131 36
      vertex 35 80 36
    endloop
  endfacet
  facet normal 0 0 1
    outer loop
      vertex 35 72 36
      vertex 39 131 36
      vertex 35 75 36
    endloop
  endfacet
  facet normal 0 0 1
    outer loop
      vertex 39 131 36
      vertex 35 72 36
      vertex 39 0 36
    endloop
  endfacet
  facet normal -0 0 1
    outer loop
      vertex 35 67 36
      vertex 39 0 36
      vertex 35 72 36
    endloop
  endfacet
  facet normal -0 0 1
    outer loop
      vertex 35 64 36
      vertex 39 0 36
      vertex 35 67 36
    endloop
  endfacet
  facet normal -0 0 1
    outer loop
      vertex 35 59 36
      vertex 39 0 36
      vertex 35 64 36
    endloop
  endfacet
  facet normal -0 0 1
    outer loop
      vertex 35 56 36
      vertex 39 0 36
      vertex 35 59 36
    endloop
  endfacet
  facet normal -0 0 1
    outer loop
      vertex 35 51 36
      vertex 39 0 36
      vertex 35 56 36
    endloop
  endfacet
  facet normal -0 0 1
    outer loop
      vertex 35 48 36
      vertex 39 0 36
      vertex 35 51 36
    endloop
  endfacet
  facet normal -0 0 1
    outer loop
      vertex 35 43 36
      vertex 39 0 36
      vertex 35 48 36
    endloop
  endfacet
  facet normal -0 0 1
    outer loop
      vertex 35 40 36
      vertex 39 0 36
      vertex 35 43 36
    endloop
  endfacet
  facet normal -0 0 1
    outer loop
      vertex 35 35 36
      vertex 39 0 36
      vertex 35 40 36
    endloop
  endfacet
  facet normal -0 0 1
    outer loop
      vertex 35 32 36
      vertex 39 0 36
      vertex 35 35 36
    endloop
  endfacet
  facet normal -0 0 1
    outer loop
      vertex 35 27 36
      vertex 39 0 36
      vertex 35 32 36
    endloop
  endfacet
  facet normal -0 0 1
    outer loop
      vertex 35 24 36
      vertex 39 0 36
      vertex 35 27 36
    endloop
  endfacet
  facet normal -0 0 1
    outer loop
      vertex 35 19 36
      vertex 39 0 36
      vertex 35 24 36
    endloop
  endfacet
  facet normal -0 0 1
    outer loop
      vertex 35 16 36
      vertex 39 0 36
      vertex 35 19 36
    endloop
  endfacet
  facet normal -0 0 1
    outer loop
      vertex 35 11 36
      vertex 39 0 36
      vertex 35 16 36
    endloop
  endfacet
  facet normal -0 0 1
    outer loop
      vertex 35 8 36
      vertex 39 0 36
      vertex 35 11 36
    endloop
  endfacet
  facet normal -0 0 1
    outer loop
      vertex 35 3 36
      vertex 39 0 36
      vertex 35 8 36
    endloop
  endfacet
  facet normal -0 0 1
    outer loop
      vertex 4 3 36
      vertex 39 0 36
      vertex 35 3 36
    endloop
  endfacet
  facet normal 0 0 1
    outer loop
      vertex 4 3 36
      vertex 0 0 36
      vertex 39 0 36
    endloop
  endfacet
  facet normal 0 0 1
    outer loop
      vertex 4 8 36
      vertex 0 0 36
      vertex 4 3 36
    endloop
  endfacet
  facet normal -0 0 1
    outer loop
      vertex 4 123 36
      vertex 7 120 36
      vertex 7 123 36
    endloop
  endfacet
  facet normal 0 0 1
    outer loop
      vertex 7 120 36
      vertex 4 123 36
      vertex 4 120 36
    endloop
  endfacet
  facet normal -0 0 1
    outer loop
      vertex 4 115 36
      vertex 7 112 36
      vertex 7 115 36
    endloop
  endfacet
  facet normal 0 0 1
    outer loop
      vertex 7 112 36
      vertex 4 115 36
      vertex 4 112 36
    endloop
  endfacet
  facet normal -0 0 1
    outer loop
      vertex 4 107 36
      vertex 7 104 36
      vertex 7 107 36
    endloop
  endfacet
  facet normal 0 0 1
    outer loop
      vertex 7 104 36
      vertex 4 107 36
      vertex 4 104 36
    endloop
  endfacet
  facet normal -0 0 1
    outer loop
      vertex 4 99 36
      vertex 7 96 36
      vertex 7 99 36
    endloop
  endfacet
  facet normal 0 0 1
    outer loop
      vertex 7 96 36
      vertex 4 99 36
      vertex 4 96 36
    endloop
  endfacet
  facet normal -0 0 1
    outer loop
      vertex 4 91 36
      vertex 7 88 36
      vertex 7 91 36
    endloop
  endfacet
  facet normal 0 0 1
    outer loop
      vertex 7 88 36
      vertex 4 91 36
      vertex 4 88 36
    endloop
  endfacet
  facet normal -0 0 1
    outer loop
      vertex 4 83 36
      vertex 7 80 36
      vertex 7 83 36
    endloop
  endfacet
  facet normal 0 0 1
    outer loop
      vertex 7 80 36
      vertex 4 83 36
      vertex 4 80 36
    endloop
  endfacet
  facet normal -0 0 1
    outer loop
      vertex 4 75 36
      vertex 7 72 36
      vertex 7 75 36
    endloop
  endfacet
  facet normal 0 0 1
    outer loop
      vertex 7 72 36
      vertex 4 75 36
      vertex 4 72 36
    endloop
  endfacet
  facet normal -0 0 1
    outer loop
      vertex 4 59 36
      vertex 7 56 36
      vertex 7 59 36
    endloop
  endfacet
  facet normal 0 0 1
    outer loop
      vertex 7 56 36
      vertex 4 59 36
      vertex 4 56 36
    endloop
  endfacet
  facet normal -0 0 1
    outer loop
      vertex 4 51 36
      vertex 7 48 36
      vertex 7 51 36
    endloop
  endfacet
  facet normal 0 0 1
    outer loop
      vertex 7 48 36
      vertex 4 51 36
      vertex 4 48 36
    endloop
  endfacet
  facet normal -0 0 1
    outer loop
      vertex 4 43 36
      vertex 7 40 36
      vertex 7 43 36
    endloop
  endfacet
  facet normal 0 0 1
    outer loop
      vertex 7 40 36
      vertex 4 43 36
      vertex 4 40 36
    endloop
  endfacet
  facet normal -0 0 1
    outer loop
      vertex 4 35 36
      vertex 7 32 36
      vertex 7 35 36
    endloop
  endfacet
  facet normal 0 0 1
    outer loop
      vertex 7 32 36
      vertex 4 35 36
      vertex 4 32 36
    endloop
  endfacet
  facet normal -0 0 1
    outer loop
      vertex 4 27 36
      vertex 7 24 36
      vertex 7 27 36
    endloop
  endfacet
  facet normal 0 0 1
    outer loop
      vertex 7 24 36
      vertex 4 27 36
      vertex 4 24 36
    endloop
  endfacet
  facet normal -0 0 1
    outer loop
      vertex 4 19 36
      vertex 7 16 36
      vertex 7 19 36
    endloop
  endfacet
  facet normal 0 0 1
    outer loop
      vertex 7 16 36
      vertex 4 19 36
      vertex 4 16 36
    endloop
  endfacet
  facet normal -0 0 1
    outer loop
      vertex 4 11 36
      vertex 7 8 36
      vertex 7 11 36
    endloop
  endfacet
  facet normal 0 0 1
    outer loop
      vertex 7 8 36
      vertex 4 11 36
      vertex 4 8 36
    endloop
  endfacet
  facet normal 0 0 -1
    outer loop
      vertex 7 0 32
      vertex 29.3712 3 32
      vertex 29.3712 0 32
    endloop
  endfacet
  facet normal -0 0 -1
    outer loop
      vertex 29.3712 3 32
      vertex 7 0 32
      vertex 7 3 32
    endloop
  endfacet
  facet normal 0 0 -1
    outer loop
      vertex 8.95706 128 32
      vertex 31 131 32
      vertex 31 128 32
    endloop
  endfacet
  facet normal -0 0 -1
    outer loop
      vertex 31 131 32
      vertex 8.95706 128 32
      vertex 8.95706 131 32
    endloop
  endfacet
  facet normal 1 -0 0
    outer loop
      vertex 7 0 32
      vertex 7 3 8.00985
      vertex 7 3 32
    endloop
  endfacet
  facet normal 1 0 0
    outer loop
      vertex 7 3 8.00985
      vertex 7 0 32
      vertex 7 0 8.00985
    endloop
  endfacet
  facet normal 1 -0 0
    outer loop
      vertex 7 8 36
      vertex 7 11 4
      vertex 7 11 36
    endloop
  endfacet
  facet normal 1 0 0
    outer loop
      vertex 7 11 4
      vertex 7 8 36
      vertex 7 8 4
    endloop
  endfacet
  facet normal 0 1 -0
    outer loop
      vertex 7 11 4
      vertex 4 11 36
      vertex 7 11 36
    endloop
  endfacet
  facet normal 0 1 0
    outer loop
      vertex 4 11 36
      vertex 7 11 4
      vertex 4 11 4
    endloop
  endfacet
  facet normal 0 -1 0
    outer loop
      vertex 4 8 4
      vertex 7 8 36
      vertex 4 8 36
    endloop
  endfacet
  facet normal 0 -1 -0
    outer loop
      vertex 7 8 36
      vertex 4 8 4
      vertex 7 8 4
    endloop
  endfacet
  facet normal 1 -0 0
    outer loop
      vertex 7 16 36
      vertex 7 19 4
      vertex 7 19 36
    endloop
  endfacet
  facet normal 1 0 0
    outer loop
      vertex 7 19 4
      vertex 7 16 36
      vertex 7 16 4
    endloop
  endfacet
  facet normal 0 1 -0
    outer loop
      vertex 7 19 4
      vertex 4 19 36
      vertex 7 19 36
    endloop
  endfacet
  facet normal 0 1 0
    outer loop
      vertex 4 19 36
      vertex 7 19 4
      vertex 4 19 4
    endloop
  endfacet
  facet normal 0 -1 0
    outer loop
      vertex 4 16 4
      vertex 7 16 36
      vertex 4 16 36
    endloop
  endfacet
  facet normal 0 -1 -0
    outer loop
      vertex 7 16 36
      vertex 4 16 4
      vertex 7 16 4
    endloop
  endfacet
  facet normal 1 -0 0
    outer loop
      vertex 7 24 36
      vertex 7 27 4
      vertex 7 27 36
    endloop
  endfacet
  facet normal 1 0 0
    outer loop
      vertex 7 27 4
      vertex 7 24 36
      vertex 7 24 4
    endloop
  endfacet
  facet normal 0 1 -0
    outer loop
      vertex 7 27 4
      vertex 4 27 36
      vertex 7 27 36
    endloop
  endfacet
  facet normal 0 1 0
    outer loop
      vertex 4 27 36
      vertex 7 27 4
      vertex 4 27 4
    endloop
  endfacet
  facet normal 0 -1 0
    outer loop
      vertex 4 24 4
      vertex 7 24 36
      vertex 4 24 36
    endloop
  endfacet
  facet normal 0 -1 -0
    outer loop
      vertex 7 24 36
      vertex 4 24 4
      vertex 7 24 4
    endloop
  endfacet
  facet normal 1 -0 0
    outer loop
      vertex 7 32 36
      vertex 7 35 4
      vertex 7 35 36
    endloop
  endfacet
  facet normal 1 0 0
    outer loop
      vertex 7 35 4
      vertex 7 32 36
      vertex 7 32 4
    endloop
  endfacet
  facet normal 0 1 -0
    outer loop
      vertex 7 35 4
      vertex 4 35 36
      vertex 7 35 36
    endloop
  endfacet
  facet normal 0 1 0
    outer loop
      vertex 4 35 36
      vertex 7 35 4
      vertex 4 35 4
    endloop
  endfacet
  facet normal 0 -1 0
    outer loop
      vertex 4 32 4
      vertex 7 32 36
      vertex 4 32 36
    endloop
  endfacet
  facet normal 0 -1 -0
    outer loop
      vertex 7 32 36
      vertex 4 32 4
      vertex 7 32 4
    endloop
  endfacet
  facet normal 1 -0 0
    outer loop
      vertex 7 40 36
      vertex 7 43 4
      vertex 7 43 36
    endloop
  endfacet
  facet normal 1 0 0
    outer loop
      vertex 7 43 4
      vertex 7 40 36
      vertex 7 40 4
    endloop
  endfacet
  facet normal 0 1 -0
    outer loop
      vertex 7 43 4
      vertex 4 43 36
      vertex 7 43 36
    endloop
  endfacet
  facet normal 0 1 0
    outer loop
      vertex 4 43 36
      vertex 7 43 4
      vertex 4 43 4
    endloop
  endfacet
  facet normal 0 -1 0
    outer loop
      vertex 4 40 4
      vertex 7 40 36
      vertex 4 40 36
    endloop
  endfacet
  facet normal 0 -1 -0
    outer loop
      vertex 7 40 36
      vertex 4 40 4
      vertex 7 40 4
    endloop
  endfacet
  facet normal 1 -0 0
    outer loop
      vertex 7 48 36
      vertex 7 51 4
      vertex 7 51 36
    endloop
  endfacet
  facet normal 1 0 0
    outer loop
      vertex 7 51 4
      vertex 7 48 36
      vertex 7 48 4
    endloop
  endfacet
  facet normal 0 -1 0
    outer loop
      vertex 4 48 4
      vertex 7 48 36
      vertex 4 48 36
    endloop
  endfacet
  facet normal 0 -1 -0
    outer loop
      vertex 7 48 36
      vertex 4 48 4
      vertex 7 48 4
    endloop
  endfacet
  facet normal 0 1 -0
    outer loop
      vertex 7 51 4
      vertex 4 51 36
      vertex 7 51 36
    endloop
  endfacet
  facet normal 0 1 0
    outer loop
      vertex 4 51 36
      vertex 7 51 4
      vertex 4 51 4
    endloop
  endfacet
  facet normal 1 -0 0
    outer loop
      vertex 7 56 36
      vertex 7 59 4
      vertex 7 59 36
    endloop
  endfacet
  facet normal 1 0 0
    outer loop
      vertex 7 59 4
      vertex 7 56 36
      vertex 7 56 4
    endloop
  endfacet
  facet normal 0 1 -0
    outer loop
      vertex 7 59 4
      vertex 4 59 36
      vertex 7 59 36
    endloop
  endfacet
  facet normal 0 1 0
    outer loop
      vertex 4 59 36
      vertex 7 59 4
      vertex 4 59 4
    endloop
  endfacet
  facet normal 0 -1 0
    outer loop
      vertex 4 56 4
      vertex 7 56 36
      vertex 4 56 36
    endloop
  endfacet
  facet normal 0 -1 -0
    outer loop
      vertex 7 56 36
      vertex 4 56 4
      vertex 7 56 4
    endloop
  endfacet
  facet normal 1 -0 0
    outer loop
      vertex 7 64 28.2336
      vertex 7 67 8.00985
      vertex 7 67 28.2336
    endloop
  endfacet
  facet normal 1 0 0
    outer loop
      vertex 7 67 8.00985
      vertex 7 64 28.2336
      vertex 7 64 8.00985
    endloop
  endfacet
  facet normal 0 -1 0
    outer loop
      vertex 7 64 8.00985
      vertex 19.1641 64 15.1892
      vertex 16.4295 64 18.1217
    endloop
  endfacet
  facet normal 0 -1 0
    outer loop
      vertex 8.73006 64 4
      vertex 7 64 8.00985
      vertex 4 64 4
    endloop
  endfacet
  facet normal 0 -1 0
    outer loop
      vertex 7 64 8.00985
      vertex 8.73006 64 4
      vertex 19.1641 64 15.1892
    endloop
  endfacet
  facet normal 0 -1 0
    outer loop
      vertex 19.1641 64 21.0543
      vertex 31 64 27.8816
      vertex 29.3712 64 32
    endloop
  endfacet
  facet normal 0 -1 0
    outer loop
      vertex 31 64 27.8816
      vertex 19.1641 64 21.0543
      vertex 21.8988 64 18.1217
    endloop
  endfacet
  facet normal 0 -1 0
    outer loop
      vertex 29.3712 64 32
      vertex 4 64 36
      vertex 8.95706 64 32
    endloop
  endfacet
  facet normal 0 -1 0
    outer loop
      vertex 4 64 36
      vertex 7 64 28.2336
      vertex 8.95706 64 32
    endloop
  endfacet
  facet normal 0 -1 0
    outer loop
      vertex 4 64 4
      vertex 7 64 28.2336
      vertex 4 64 36
    endloop
  endfacet
  facet normal 0 -1 -0
    outer loop
      vertex 7 64 28.2336
      vertex 4 64 4
      vertex 7 64 8.00985
    endloop
  endfacet
  facet normal 0 -1 0
    outer loop
      vertex 4 64 36
      vertex 29.3712 64 32
      vertex 35 64 36
    endloop
  endfacet
  facet normal 0 -1 0
    outer loop
      vertex 31 64 27.8816
      vertex 35 64 36
      vertex 29.3712 64 32
    endloop
  endfacet
  facet normal 0 -1 0
    outer loop
      vertex 35 64 4
      vertex 31 64 27.8816
      vertex 31 64 8.36184
    endloop
  endfacet
  facet normal 0 -1 0
    outer loop
      vertex 31 64 27.8816
      vertex 35 64 4
      vertex 35 64 36
    endloop
  endfacet
  facet normal 0 -1 0
    outer loop
      vertex 35 64 4
      vertex 31 64 8.36184
      vertex 29.5982 64 4
    endloop
  endfacet
  facet normal 0 -1 0
    outer loop
      vertex 7 64 28.2336
      vertex 19.1641 64 21.0543
      vertex 8.95706 64 32
    endloop
  endfacet
  facet normal 0 -1 0
    outer loop
      vertex 16.4295 64 18.1217
      vertex 19.1641 64 21.0543
      vertex 7 64 28.2336
    endloop
  endfacet
  facet normal 0 -1 -0
    outer loop
      vertex 19.1641 64 21.0543
      vertex 16.4295 64 18.1217
      vertex 21.8988 64 18.1217
    endloop
  endfacet
  facet normal 0 -1 0
    outer loop
      vertex 19.1641 64 15.1892
      vertex 21.8988 64 18.1217
      vertex 16.4295 64 18.1217
    endloop
  endfacet
  facet normal 0 -1 0
    outer loop
      vertex 19.1641 64 15.1892
      vertex 31 64 8.36184
      vertex 21.8988 64 18.1217
    endloop
  endfacet
  facet normal -0 -1 0
    outer loop
      vertex 31 64 8.36184
      vertex 19.1641 64 15.1892
      vertex 29.5982 64 4
    endloop
  endfacet
  facet normal 0 -1 0
    outer loop
      vertex 10 64 0
      vertex 29 64 4
      vertex 10 64 4
    endloop
  endfacet
  facet normal 0 -1 -0
    outer loop
      vertex 29 64 4
      vertex 10 64 0
      vertex 29 64 0
    endloop
  endfacet
  facet normal 0 1 0
    outer loop
      vertex 19.1641 67 21.0543
      vertex 7 67 28.2336
      vertex 8.95706 67 32
    endloop
  endfacet
  facet normal 0 1 0
    outer loop
      vertex 16.4295 67 18.1217
      vertex 19.1641 67 21.0543
      vertex 21.8988 67 18.1217
    endloop
  endfacet
  facet normal 0 1 0
    outer loop
      vertex 19.1641 67 21.0543
      vertex 16.4295 67 18.1217
      vertex 7 67 28.2336
    endloop
  endfacet
  facet normal 0 1 0
    outer loop
      vertex 21.8988 67 18.1217
      vertex 19.1641 67 15.1892
      vertex 16.4295 67 18.1217
    endloop
  endfacet
  facet normal 0 1 0
    outer loop
      vertex 31 67 8.36184
      vertex 19.1641 67 15.1892
      vertex 21.8988 67 18.1217
    endloop
  endfacet
  facet normal 0 1 0
    outer loop
      vertex 29.5982 67 4
      vertex 31 67 8.36184
      vertex 35 67 4
    endloop
  endfacet
  facet normal 0 1 0
    outer loop
      vertex 31 67 8.36184
      vertex 29.5982 67 4
      vertex 19.1641 67 15.1892
    endloop
  endfacet
  facet normal 0 1 0
    outer loop
      vertex 35 67 36
      vertex 29.3712 67 32
      vertex 4 67 36
    endloop
  endfacet
  facet normal 0 1 0
    outer loop
      vertex 35 67 36
      vertex 31 67 27.8816
      vertex 29.3712 67 32
    endloop
  endfacet
  facet normal 0 1 -0
    outer loop
      vertex 35 67 4
      vertex 31 67 27.8816
      vertex 35 67 36
    endloop
  endfacet
  facet normal 0 1 0
    outer loop
      vertex 31 67 27.8816
      vertex 35 67 4
      vertex 31 67 8.36184
    endloop
  endfacet
  facet normal 0 1 -0
    outer loop
      vertex 8.95706 67 32
      vertex 4 67 36
      vertex 29.3712 67 32
    endloop
  endfacet
  facet normal 0 1 -0
    outer loop
      vertex 7 67 28.2336
      vertex 4 67 36
      vertex 8.95706 67 32
    endloop
  endfacet
  facet normal 0 1 0
    outer loop
      vertex 4 67 4
      vertex 7 67 28.2336
      vertex 7 67 8.00985
    endloop
  endfacet
  facet normal 0 1 0
    outer loop
      vertex 7 67 28.2336
      vertex 4 67 4
      vertex 4 67 36
    endloop
  endfacet
  facet normal 0 1 0
    outer loop
      vertex 4 67 4
      vertex 7 67 8.00985
      vertex 8.73006 67 4
    endloop
  endfacet
  facet normal 0 1 0
    outer loop
      vertex 31 67 27.8816
      vertex 19.1641 67 21.0543
      vertex 29.3712 67 32
    endloop
  endfacet
  facet normal -0 1 0
    outer loop
      vertex 19.1641 67 21.0543
      vertex 31 67 27.8816
      vertex 21.8988 67 18.1217
    endloop
  endfacet
  facet normal 0 1 0
    outer loop
      vertex 19.1641 67 15.1892
      vertex 7 67 8.00985
      vertex 16.4295 67 18.1217
    endloop
  endfacet
  facet normal -0 1 0
    outer loop
      vertex 7 67 8.00985
      vertex 19.1641 67 15.1892
      vertex 8.73006 67 4
    endloop
  endfacet
  facet normal 0 1 -0
    outer loop
      vertex 29 67 0
      vertex 10 67 4
      vertex 29 67 4
    endloop
  endfacet
  facet normal 0 1 0
    outer loop
      vertex 10 67 4
      vertex 29 67 0
      vertex 10 67 0
    endloop
  endfacet
  facet normal 1 -0 0
    outer loop
      vertex 7 72 36
      vertex 7 75 4
      vertex 7 75 36
    endloop
  endfacet
  facet normal 1 0 0
    outer loop
      vertex 7 75 4
      vertex 7 72 36
      vertex 7 72 4
    endloop
  endfacet
  facet normal 0 -1 0
    outer loop
      vertex 4 72 4
      vertex 7 72 36
      vertex 4 72 36
    endloop
  endfacet
  facet normal 0 -1 -0
    outer loop
      vertex 7 72 36
      vertex 4 72 4
      vertex 7 72 4
    endloop
  endfacet
  facet normal 0 1 -0
    outer loop
      vertex 7 75 4
      vertex 4 75 36
      vertex 7 75 36
    endloop
  endfacet
  facet normal 0 1 0
    outer loop
      vertex 4 75 36
      vertex 7 75 4
      vertex 4 75 4
    endloop
  endfacet
  facet normal 1 -0 0
    outer loop
      vertex 7 80 36
      vertex 7 83 4
      vertex 7 83 36
    endloop
  endfacet
  facet normal 1 0 0
    outer loop
      vertex 7 83 4
      vertex 7 80 36
      vertex 7 80 4
    endloop
  endfacet
  facet normal 0 1 -0
    outer loop
      vertex 7 83 4
      vertex 4 83 36
      vertex 7 83 36
    endloop
  endfacet
  facet normal 0 1 0
    outer loop
      vertex 4 83 36
      vertex 7 83 4
      vertex 4 83 4
    endloop
  endfacet
  facet normal 0 -1 0
    outer loop
      vertex 4 80 4
      vertex 7 80 36
      vertex 4 80 36
    endloop
  endfacet
  facet normal 0 -1 -0
    outer loop
      vertex 7 80 36
      vertex 4 80 4
      vertex 7 80 4
    endloop
  endfacet
  facet normal 1 -0 0
    outer loop
      vertex 7 88 36
      vertex 7 91 4
      vertex 7 91 36
    endloop
  endfacet
  facet normal 1 0 0
    outer loop
      vertex 7 91 4
      vertex 7 88 36
      vertex 7 88 4
    endloop
  endfacet
  facet normal 0 1 -0
    outer loop
      vertex 7 91 4
      vertex 4 91 36
      vertex 7 91 36
    endloop
  endfacet
  facet normal 0 1 0
    outer loop
      vertex 4 91 36
      vertex 7 91 4
      vertex 4 91 4
    endloop
  endfacet
  facet normal 0 -1 0
    outer loop
      vertex 4 88 4
      vertex 7 88 36
      vertex 4 88 36
    endloop
  endfacet
  facet normal 0 -1 -0
    outer loop
      vertex 7 88 36
      vertex 4 88 4
      vertex 7 88 4
    endloop
  endfacet
  facet normal 1 -0 0
    outer loop
      vertex 7 96 36
      vertex 7 99 4
      vertex 7 99 36
    endloop
  endfacet
  facet normal 1 0 0
    outer loop
      vertex 7 99 4
      vertex 7 96 36
      vertex 7 96 4
    endloop
  endfacet
  facet normal 0 -1 0
    outer loop
      vertex 4 96 4
      vertex 7 96 36
      vertex 4 96 36
    endloop
  endfacet
  facet normal 0 -1 -0
    outer loop
      vertex 7 96 36
      vertex 4 96 4
      vertex 7 96 4
    endloop
  endfacet
  facet normal 0 1 -0
    outer loop
      vertex 7 99 4
      vertex 4 99 36
      vertex 7 99 36
    endloop
  endfacet
  facet normal 0 1 0
    outer loop
      vertex 4 99 36
      vertex 7 99 4
      vertex 4 99 4
    endloop
  endfacet
  facet normal 1 -0 0
    outer loop
      vertex 7 104 36
      vertex 7 107 4
      vertex 7 107 36
    endloop
  endfacet
  facet normal 1 0 0
    outer loop
      vertex 7 107 4
      vertex 7 104 36
      vertex 7 104 4
    endloop
  endfacet
  facet normal 0 -1 0
    outer loop
      vertex 4 104 4
      vertex 7 104 36
      vertex 4 104 36
    endloop
  endfacet
  facet normal 0 -1 -0
    outer loop
      vertex 7 104 36
      vertex 4 104 4
      vertex 7 104 4
    endloop
  endfacet
  facet normal 0 1 -0
    outer loop
      vertex 7 107 4
      vertex 4 107 36
      vertex 7 107 36
    endloop
  endfacet
  facet normal 0 1 0
    outer loop
      vertex 4 107 36
      vertex 7 107 4
      vertex 4 107 4
    endloop
  endfacet
  facet normal 1 -0 0
    outer loop
      vertex 7 112 36
      vertex 7 115 4
      vertex 7 115 36
    endloop
  endfacet
  facet normal 1 0 0
    outer loop
      vertex 7 115 4
      vertex 7 112 36
      vertex 7 112 4
    endloop
  endfacet
  facet normal 0 -1 0
    outer loop
      vertex 4 112 4
      vertex 7 112 36
      vertex 4 112 36
    endloop
  endfacet
  facet normal 0 -1 -0
    outer loop
      vertex 7 112 36
      vertex 4 112 4
      vertex 7 112 4
    endloop
  endfacet
  facet normal 0 1 -0
    outer loop
      vertex 7 115 4
      vertex 4 115 36
      vertex 7 115 36
    endloop
  endfacet
  facet normal 0 1 0
    outer loop
      vertex 4 115 36
      vertex 7 115 4
      vertex 4 115 4
    endloop
  endfacet
  facet normal 1 -0 0
    outer loop
      vertex 7 120 36
      vertex 7 123 4
      vertex 7 123 36
    endloop
  endfacet
  facet normal 1 0 0
    outer loop
      vertex 7 123 4
      vertex 7 120 36
      vertex 7 120 4
    endloop
  endfacet
  facet normal 0 1 -0
    outer loop
      vertex 7 123 4
      vertex 4 123 36
      vertex 7 123 36
    endloop
  endfacet
  facet normal 0 1 0
    outer loop
      vertex 4 123 36
      vertex 7 123 4
      vertex 4 123 4
    endloop
  endfacet
  facet normal 0 -1 0
    outer loop
      vertex 4 120 4
      vertex 7 120 36
      vertex 4 120 36
    endloop
  endfacet
  facet normal 0 -1 -0
    outer loop
      vertex 7 120 36
      vertex 4 120 4
      vertex 7 120 4
    endloop
  endfacet
  facet normal 1 -0 0
    outer loop
      vertex 7 128 28.2336
      vertex 7 131 4
      vertex 7 131 28.2336
    endloop
  endfacet
  facet normal 1 0 0
    outer loop
      vertex 7 131 4
      vertex 7 128 28.2336
      vertex 7 128 4
    endloop
  endfacet
  facet normal -1 0 0
    outer loop
      vertex 31 0 4
      vertex 31 3 27.8816
      vertex 31 3 4
    endloop
  endfacet
  facet normal -1 -0 0
    outer loop
      vertex 31 3 27.8816
      vertex 31 0 4
      vertex 31 0 27.8816
    endloop
  endfacet
  facet normal -1 0 0
    outer loop
      vertex 31 8 4
      vertex 31 11 36
      vertex 31 11 4
    endloop
  endfacet
  facet normal -1 -0 0
    outer loop
      vertex 31 11 36
      vertex 31 8 4
      vertex 31 8 36
    endloop
  endfacet
  facet normal 0 -1 0
    outer loop
      vertex 31 8 4
      vertex 35 8 36
      vertex 31 8 36
    endloop
  endfacet
  facet normal 0 -1 -0
    outer loop
      vertex 35 8 36
      vertex 31 8 4
      vertex 35 8 4
    endloop
  endfacet
  facet normal 0 1 -0
    outer loop
      vertex 35 11 4
      vertex 31 11 36
      vertex 35 11 36
    endloop
  endfacet
  facet normal 0 1 0
    outer loop
      vertex 31 11 36
      vertex 35 11 4
      vertex 31 11 4
    endloop
  endfacet
  facet normal -1 0 0
    outer loop
      vertex 31 16 4
      vertex 31 19 36
      vertex 31 19 4
    endloop
  endfacet
  facet normal -1 -0 0
    outer loop
      vertex 31 19 36
      vertex 31 16 4
      vertex 31 16 36
    endloop
  endfacet
  facet normal 0 1 -0
    outer loop
      vertex 35 19 4
      vertex 31 19 36
      vertex 35 19 36
    endloop
  endfacet
  facet normal 0 1 0
    outer loop
      vertex 31 19 36
      vertex 35 19 4
      vertex 31 19 4
    endloop
  endfacet
  facet normal 0 -1 0
    outer loop
      vertex 31 16 4
      vertex 35 16 36
      vertex 31 16 36
    endloop
  endfacet
  facet normal 0 -1 -0
    outer loop
      vertex 35 16 36
      vertex 31 16 4
      vertex 35 16 4
    endloop
  endfacet
  facet normal -1 0 0
    outer loop
      vertex 31 24 4
      vertex 31 27 36
      vertex 31 27 4
    endloop
  endfacet
  facet normal -1 -0 0
    outer loop
      vertex 31 27 36
      vertex 31 24 4
      vertex 31 24 36
    endloop
  endfacet
  facet normal 0 1 -0
    outer loop
      vertex 35 27 4
      vertex 31 27 36
      vertex 35 27 36
    endloop
  endfacet
  facet normal 0 1 0
    outer loop
      vertex 31 27 36
      vertex 35 27 4
      vertex 31 27 4
    endloop
  endfacet
  facet normal 0 -1 0
    outer loop
      vertex 31 24 4
      vertex 35 24 36
      vertex 31 24 36
    endloop
  endfacet
  facet normal 0 -1 -0
    outer loop
      vertex 35 24 36
      vertex 31 24 4
      vertex 35 24 4
    endloop
  endfacet
  facet normal -1 0 0
    outer loop
      vertex 31 32 4
      vertex 31 35 36
      vertex 31 35 4
    endloop
  endfacet
  facet normal -1 -0 0
    outer loop
      vertex 31 35 36
      vertex 31 32 4
      vertex 31 32 36
    endloop
  endfacet
  facet normal 0 -1 0
    outer loop
      vertex 31 32 4
      vertex 35 32 36
      vertex 31 32 36
    endloop
  endfacet
  facet normal 0 -1 -0
    outer loop
      vertex 35 32 36
      vertex 31 32 4
      vertex 35 32 4
    endloop
  endfacet
  facet normal 0 1 -0
    outer loop
      vertex 35 35 4
      vertex 31 35 36
      vertex 35 35 36
    endloop
  endfacet
  facet normal 0 1 0
    outer loop
      vertex 31 35 36
      vertex 35 35 4
      vertex 31 35 4
    endloop
  endfacet
  facet normal -1 0 0
    outer loop
      vertex 31 40 4
      vertex 31 43 36
      vertex 31 43 4
    endloop
  endfacet
  facet normal -1 -0 0
    outer loop
      vertex 31 43 36
      vertex 31 40 4
      vertex 31 40 36
    endloop
  endfacet
  facet normal 0 -1 0
    outer loop
      vertex 31 40 4
      vertex 35 40 36
      vertex 31 40 36
    endloop
  endfacet
  facet normal 0 -1 -0
    outer loop
      vertex 35 40 36
      vertex 31 40 4
      vertex 35 40 4
    endloop
  endfacet
  facet normal 0 1 -0
    outer loop
      vertex 35 43 4
      vertex 31 43 36
      vertex 35 43 36
    endloop
  endfacet
  facet normal 0 1 0
    outer loop
      vertex 31 43 36
      vertex 35 43 4
      vertex 31 43 4
    endloop
  endfacet
  facet normal -1 0 0
    outer loop
      vertex 31 48 4
      vertex 31 51 36
      vertex 31 51 4
    endloop
  endfacet
  facet normal -1 -0 0
    outer loop
      vertex 31 51 36
      vertex 31 48 4
      vertex 31 48 36
    endloop
  endfacet
  facet normal 0 1 -0
    outer loop
      vertex 35 51 4
      vertex 31 51 36
      vertex 35 51 36
    endloop
  endfacet
  facet normal 0 1 0
    outer loop
      vertex 31 51 36
      vertex 35 51 4
      vertex 31 51 4
    endloop
  endfacet
  facet normal 0 -1 0
    outer loop
      vertex 31 48 4
      vertex 35 48 36
      vertex 31 48 36
    endloop
  endfacet
  facet normal 0 -1 -0
    outer loop
      vertex 35 48 36
      vertex 31 48 4
      vertex 35 48 4
    endloop
  endfacet
  facet normal -1 0 0
    outer loop
      vertex 31 56 4
      vertex 31 59 36
      vertex 31 59 4
    endloop
  endfacet
  facet normal -1 -0 0
    outer loop
      vertex 31 59 36
      vertex 31 56 4
      vertex 31 56 36
    endloop
  endfacet
  facet normal 0 -1 0
    outer loop
      vertex 31 56 4
      vertex 35 56 36
      vertex 31 56 36
    endloop
  endfacet
  facet normal 0 -1 -0
    outer loop
      vertex 35 56 36
      vertex 31 56 4
      vertex 35 56 4
    endloop
  endfacet
  facet normal 0 1 -0
    outer loop
      vertex 35 59 4
      vertex 31 59 36
      vertex 35 59 36
    endloop
  endfacet
  facet normal 0 1 0
    outer loop
      vertex 31 59 36
      vertex 35 59 4
      vertex 31 59 4
    endloop
  endfacet
  facet normal -1 0 0
    outer loop
      vertex 31 64 8.36184
      vertex 31 67 27.8816
      vertex 31 67 8.36184
    endloop
  endfacet
  facet normal -1 -0 0
    outer loop
      vertex 31 67 27.8816
      vertex 31 64 8.36184
      vertex 31 64 27.8816
    endloop
  endfacet
  facet normal -1 0 0
    outer loop
      vertex 31 72 4
      vertex 31 75 36
      vertex 31 75 4
    endloop
  endfacet
  facet normal -1 -0 0
    outer loop
      vertex 31 75 36
      vertex 31 72 4
      vertex 31 72 36
    endloop
  endfacet
  facet normal 0 -1 0
    outer loop
      vertex 31 72 4
      vertex 35 72 36
      vertex 31 72 36
    endloop
  endfacet
  facet normal 0 -1 -0
    outer loop
      vertex 35 72 36
      vertex 31 72 4
      vertex 35 72 4
    endloop
  endfacet
  facet normal 0 1 -0
    outer loop
      vertex 35 75 4
      vertex 31 75 36
      vertex 35 75 36
    endloop
  endfacet
  facet normal 0 1 0
    outer loop
      vertex 31 75 36
      vertex 35 75 4
      vertex 31 75 4
    endloop
  endfacet
  facet normal -1 0 0
    outer loop
      vertex 31 80 4
      vertex 31 83 36
      vertex 31 83 4
    endloop
  endfacet
  facet normal -1 -0 0
    outer loop
      vertex 31 83 36
      vertex 31 80 4
      vertex 31 80 36
    endloop
  endfacet
  facet normal 0 -1 0
    outer loop
      vertex 31 80 4
      vertex 35 80 36
      vertex 31 80 36
    endloop
  endfacet
  facet normal 0 -1 -0
    outer loop
      vertex 35 80 36
      vertex 31 80 4
      vertex 35 80 4
    endloop
  endfacet
  facet normal 0 1 -0
    outer loop
      vertex 35 83 4
      vertex 31 83 36
      vertex 35 83 36
    endloop
  endfacet
  facet normal 0 1 0
    outer loop
      vertex 31 83 36
      vertex 35 83 4
      vertex 31 83 4
    endloop
  endfacet
  facet normal -1 0 0
    outer loop
      vertex 31 88 4
      vertex 31 91 36
      vertex 31 91 4
    endloop
  endfacet
  facet normal -1 -0 0
    outer loop
      vertex 31 91 36
      vertex 31 88 4
      vertex 31 88 36
    endloop
  endfacet
  facet normal 0 1 -0
    outer loop
      vertex 35 91 4
      vertex 31 91 36
      vertex 35 91 36
    endloop
  endfacet
  facet normal 0 1 0
    outer loop
      vertex 31 91 36
      vertex 35 91 4
      vertex 31 91 4
    endloop
  endfacet
  facet normal 0 -1 0
    outer loop
      vertex 31 88 4
      vertex 35 88 36
      vertex 31 88 36
    endloop
  endfacet
  facet normal 0 -1 -0
    outer loop
      vertex 35 88 36
      vertex 31 88 4
      vertex 35 88 4
    endloop
  endfacet
  facet normal -1 0 0
    outer loop
      vertex 31 96 4
      vertex 31 99 36
      vertex 31 99 4
    endloop
  endfacet
  facet normal -1 -0 0
    outer loop
      vertex 31 99 36
      vertex 31 96 4
      vertex 31 96 36
    endloop
  endfacet
  facet normal 0 1 -0
    outer loop
      vertex 35 99 4
      vertex 31 99 36
      vertex 35 99 36
    endloop
  endfacet
  facet normal 0 1 0
    outer loop
      vertex 31 99 36
      vertex 35 99 4
      vertex 31 99 4
    endloop
  endfacet
  facet normal 0 -1 0
    outer loop
      vertex 31 96 4
      vertex 35 96 36
      vertex 31 96 36
    endloop
  endfacet
  facet normal 0 -1 -0
    outer loop
      vertex 35 96 36
      vertex 31 96 4
      vertex 35 96 4
    endloop
  endfacet
  facet normal -1 0 0
    outer loop
      vertex 31 104 4
      vertex 31 107 36
      vertex 31 107 4
    endloop
  endfacet
  facet normal -1 -0 0
    outer loop
      vertex 31 107 36
      vertex 31 104 4
      vertex 31 104 36
    endloop
  endfacet
  facet normal 0 1 -0
    outer loop
      vertex 35 107 4
      vertex 31 107 36
      vertex 35 107 36
    endloop
  endfacet
  facet normal 0 1 0
    outer loop
      vertex 31 107 36
      vertex 35 107 4
      vertex 31 107 4
    endloop
  endfacet
  facet normal 0 -1 0
    outer loop
      vertex 31 104 4
      vertex 35 104 36
      vertex 31 104 36
    endloop
  endfacet
  facet normal 0 -1 -0
    outer loop
      vertex 35 104 36
      vertex 31 104 4
      vertex 35 104 4
    endloop
  endfacet
  facet normal -1 0 0
    outer loop
      vertex 31 112 4
      vertex 31 115 36
      vertex 31 115 4
    endloop
  endfacet
  facet normal -1 -0 0
    outer loop
      vertex 31 115 36
      vertex 31 112 4
      vertex 31 112 36
    endloop
  endfacet
  facet normal 0 -1 0
    outer loop
      vertex 31 112 4
      vertex 35 112 36
      vertex 31 112 36
    endloop
  endfacet
  facet normal 0 -1 -0
    outer loop
      vertex 35 112 36
      vertex 31 112 4
      vertex 35 112 4
    endloop
  endfacet
  facet normal 0 1 -0
    outer loop
      vertex 35 115 4
      vertex 31 115 36
      vertex 35 115 36
    endloop
  endfacet
  facet normal 0 1 0
    outer loop
      vertex 31 115 36
      vertex 35 115 4
      vertex 31 115 4
    endloop
  endfacet
  facet normal -1 0 0
    outer loop
      vertex 31 120 4
      vertex 31 123 36
      vertex 31 123 4
    endloop
  endfacet
  facet normal -1 -0 0
    outer loop
      vertex 31 123 36
      vertex 31 120 4
      vertex 31 120 36
    endloop
  endfacet
  facet normal 0 -1 0
    outer loop
      vertex 31 120 4
      vertex 35 120 36
      vertex 31 120 36
    endloop
  endfacet
  facet normal 0 -1 -0
    outer loop
      vertex 35 120 36
      vertex 31 120 4
      vertex 35 120 4
    endloop
  endfacet
  facet normal 0 1 -0
    outer loop
      vertex 35 123 4
      vertex 31 123 36
      vertex 35 123 36
    endloop
  endfacet
  facet normal 0 1 0
    outer loop
      vertex 31 123 36
      vertex 35 123 4
      vertex 31 123 4
    endloop
  endfacet
  facet normal -1 0 0
    outer loop
      vertex 31 128 8.36184
      vertex 31 131 32
      vertex 31 131 8.36184
    endloop
  endfacet
  facet normal -1 -0 0
    outer loop
      vertex 31 131 32
      vertex 31 128 8.36184
      vertex 31 128 32
    endloop
  endfacet
  facet normal 0 0 -1
    outer loop
      vertex 8.95706 64 32
      vertex 29.3712 67 32
      vertex 29.3712 64 32
    endloop
  endfacet
  facet normal -0 0 -1
    outer loop
      vertex 29.3712 67 32
      vertex 8.95706 64 32
      vertex 8.95706 67 32
    endloop
  endfacet
  facet normal -0.731354 0 0.681998
    outer loop
      vertex 19.1641 64 21.0543
      vertex 29.3712 67 32
      vertex 19.1641 67 21.0543
    endloop
  endfacet
  facet normal -0.731354 0 0.681998
    outer loop
      vertex 29.3712 67 32
      vertex 19.1641 64 21.0543
      vertex 29.3712 64 32
    endloop
  endfacet
  facet normal -0.731354 0 0.681998
    outer loop
      vertex 7 64 8.00985
      vertex 16.4295 67 18.1217
      vertex 7 67 8.00985
    endloop
  endfacet
  facet normal -0.731354 0 0.681998
    outer loop
      vertex 16.4295 67 18.1217
      vertex 7 64 8.00985
      vertex 16.4295 64 18.1217
    endloop
  endfacet
  facet normal 0.731354 0 -0.681998
    outer loop
      vertex 19.1641 64 15.1892
      vertex 8.73006 67 4
      vertex 19.1641 67 15.1892
    endloop
  endfacet
  facet normal 0.731354 0 -0.681998
    outer loop
      vertex 8.73006 67 4
      vertex 19.1641 64 15.1892
      vertex 8.73006 64 4
    endloop
  endfacet
  facet normal 0.731354 0 -0.681998
    outer loop
      vertex 31 64 27.8816
      vertex 21.8988 67 18.1217
      vertex 31 67 27.8816
    endloop
  endfacet
  facet normal 0.731354 0 -0.681998
    outer loop
      vertex 21.8988 67 18.1217
      vertex 31 64 27.8816
      vertex 21.8988 64 18.1217
    endloop
  endfacet
  facet normal -0.731354 0 -0.681998
    outer loop
      vertex 29.5982 64 4
      vertex 19.1641 67 15.1892
      vertex 29.5982 67 4
    endloop
  endfacet
  facet normal -0.731354 -0 -0.681998
    outer loop
      vertex 19.1641 67 15.1892
      vertex 29.5982 64 4
      vertex 19.1641 64 15.1892
    endloop
  endfacet
  facet normal -0.731354 0 -0.681998
    outer loop
      vertex 16.4295 64 18.1217
      vertex 7 67 28.2336
      vertex 16.4295 67 18.1217
    endloop
  endfacet
  facet normal -0.731354 -0 -0.681998
    outer loop
      vertex 7 67 28.2336
      vertex 16.4295 64 18.1217
      vertex 7 64 28.2336
    endloop
  endfacet
  facet normal 0.731354 -0 0.681998
    outer loop
      vertex 8.95706 64 32
      vertex 19.1641 67 21.0543
      vertex 8.95706 67 32
    endloop
  endfacet
  facet normal 0.731354 0 0.681998
    outer loop
      vertex 19.1641 67 21.0543
      vertex 8.95706 64 32
      vertex 19.1641 64 21.0543
    endloop
  endfacet
  facet normal 0.731354 -0 0.681998
    outer loop
      vertex 21.8988 64 18.1217
      vertex 31 67 8.36184
      vertex 21.8988 67 18.1217
    endloop
  endfacet
  facet normal 0.731354 0 0.681998
    outer loop
      vertex 31 67 8.36184
      vertex 21.8988 64 18.1217
      vertex 31 64 8.36184
    endloop
  endfacet
  facet normal -0.731354 0 0.681998
    outer loop
      vertex 7 0 8.00985
      vertex 29.3712 3 32
      vertex 7 3 8.00985
    endloop
  endfacet
  facet normal -0.731354 0 0.681998
    outer loop
      vertex 29.3712 3 32
      vertex 7 0 8.00985
      vertex 29.3712 0 32
    endloop
  endfacet
  facet normal 0.731354 0 -0.681998
    outer loop
      vertex 31 0 27.8816
      vertex 8.73006 3 4
      vertex 31 3 27.8816
    endloop
  endfacet
  facet normal 0.731354 0 -0.681998
    outer loop
      vertex 8.73006 3 4
      vertex 31 0 27.8816
      vertex 8.73006 0 4
    endloop
  endfacet
  facet normal -0.731354 0 -0.681998
    outer loop
      vertex 29.5982 128 4
      vertex 7 131 28.2336
      vertex 29.5982 131 4
    endloop
  endfacet
  facet normal -0.731354 -0 -0.681998
    outer loop
      vertex 7 131 28.2336
      vertex 29.5982 128 4
      vertex 7 128 28.2336
    endloop
  endfacet
  facet normal 0.731354 -0 0.681998
    outer loop
      vertex 8.95706 128 32
      vertex 31 131 8.36184
      vertex 8.95706 131 32
    endloop
  endfacet
  facet normal 0.731354 0 0.681998
    outer loop
      vertex 31 131 8.36184
      vertex 8.95706 128 32
      vertex 31 128 8.36184
    endloop
  endfacet
  facet normal 1 -0 0
    outer loop
      vertex 10 67 4
      vertex 10 128 0
      vertex 10 128 4
    endloop
  endfacet
  facet normal 1 0 0
    outer loop
      vertex 10 128 0
      vertex 10 67 4
      vertex 10 67 0
    endloop
  endfacet
  facet normal 1 -0 0
    outer loop
      vertex 10 3 4
      vertex 10 64 0
      vertex 10 64 4
    endloop
  endfacet
  facet normal 1 0 0
    outer loop
      vertex 10 64 0
      vertex 10 3 4
      vertex 10 3 0
    endloop
  endfacet
  facet normal -1 0 0
    outer loop
      vertex 29 67 0
      vertex 29 128 4
      vertex 29 128 0
    endloop
  endfacet
  facet normal -1 -0 0
    outer loop
      vertex 29 128 4
      vertex 29 67 0
      vertex 29 67 4
    endloop
  endfacet
  facet normal -1 0 0
    outer loop
      vertex 29 3 0
      vertex 29 64 4
      vertex 29 64 0
    endloop
  endfacet
  facet normal -1 -0 0
    outer loop
      vertex 29 64 4
      vertex 29 3 0
      vertex 29 3 4
    endloop
  endfacet
  facet normal 1 -0 0
    outer loop
      vertex 4 59 36
      vertex 4 64 4
      vertex 4 64 36
    endloop
  endfacet
  facet normal 1 0 0
    outer loop
      vertex 4 64 4
      vertex 4 59 36
      vertex 4 59 4
    endloop
  endfacet
  facet normal 1 -0 0
    outer loop
      vertex 4 67 36
      vertex 4 72 4
      vertex 4 72 36
    endloop
  endfacet
  facet normal 1 0 0
    outer loop
      vertex 4 72 4
      vertex 4 67 36
      vertex 4 67 4
    endloop
  endfacet
  facet normal 1 -0 0
    outer loop
      vertex 4 115 36
      vertex 4 120 4
      vertex 4 120 36
    endloop
  endfacet
  facet normal 1 0 0
    outer loop
      vertex 4 120 4
      vertex 4 115 36
      vertex 4 115 4
    endloop
  endfacet
  facet normal 1 -0 0
    outer loop
      vertex 4 123 36
      vertex 4 128 4
      vertex 4 128 36
    endloop
  endfacet
  facet normal 1 0 0
    outer loop
      vertex 4 128 4
      vertex 4 123 36
      vertex 4 123 4
    endloop
  endfacet
  facet normal 1 -0 0
    outer loop
      vertex 4 107 36
      vertex 4 112 4
      vertex 4 112 36
    endloop
  endfacet
  facet normal 1 0 0
    outer loop
      vertex 4 112 4
      vertex 4 107 36
      vertex 4 107 4
    endloop
  endfacet
  facet normal 1 -0 0
    outer loop
      vertex 4 99 36
      vertex 4 104 4
      vertex 4 104 36
    endloop
  endfacet
  facet normal 1 0 0
    outer loop
      vertex 4 104 4
      vertex 4 99 36
      vertex 4 99 4
    endloop
  endfacet
  facet normal 1 -0 0
    outer loop
      vertex 4 91 36
      vertex 4 96 4
      vertex 4 96 36
    endloop
  endfacet
  facet normal 1 0 0
    outer loop
      vertex 4 96 4
      vertex 4 91 36
      vertex 4 91 4
    endloop
  endfacet
  facet normal 1 -0 0
    outer loop
      vertex 4 83 36
      vertex 4 88 4
      vertex 4 88 36
    endloop
  endfacet
  facet normal 1 0 0
    outer loop
      vertex 4 88 4
      vertex 4 83 36
      vertex 4 83 4
    endloop
  endfacet
  facet normal 1 -0 0
    outer loop
      vertex 4 75 36
      vertex 4 80 4
      vertex 4 80 36
    endloop
  endfacet
  facet normal 1 0 0
    outer loop
      vertex 4 80 4
      vertex 4 75 36
      vertex 4 75 4
    endloop
  endfacet
  facet normal 1 -0 0
    outer loop
      vertex 4 51 36
      vertex 4 56 4
      vertex 4 56 36
    endloop
  endfacet
  facet normal 1 0 0
    outer loop
      vertex 4 56 4
      vertex 4 51 36
      vertex 4 51 4
    endloop
  endfacet
  facet normal 1 -0 0
    outer loop
      vertex 4 43 36
      vertex 4 48 4
      vertex 4 48 36
    endloop
  endfacet
  facet normal 1 0 0
    outer loop
      vertex 4 48 4
      vertex 4 43 36
      vertex 4 43 4
    endloop
  endfacet
  facet normal 1 -0 0
    outer loop
      vertex 4 35 36
      vertex 4 40 4
      vertex 4 40 36
    endloop
  endfacet
  facet normal 1 0 0
    outer loop
      vertex 4 40 4
      vertex 4 35 36
      vertex 4 35 4
    endloop
  endfacet
  facet normal 1 -0 0
    outer loop
      vertex 4 27 36
      vertex 4 32 4
      vertex 4 32 36
    endloop
  endfacet
  facet normal 1 0 0
    outer loop
      vertex 4 32 4
      vertex 4 27 36
      vertex 4 27 4
    endloop
  endfacet
  facet normal 1 -0 0
    outer loop
      vertex 4 19 36
      vertex 4 24 4
      vertex 4 24 36
    endloop
  endfacet
  facet normal 1 0 0
    outer loop
      vertex 4 24 4
      vertex 4 19 36
      vertex 4 19 4
    endloop
  endfacet
  facet normal 1 -0 0
    outer loop
      vertex 4 11 36
      vertex 4 16 4
      vertex 4 16 36
    endloop
  endfacet
  facet normal 1 0 0
    outer loop
      vertex 4 16 4
      vertex 4 11 36
      vertex 4 11 4
    endloop
  endfacet
  facet normal 1 -0 0
    outer loop
      vertex 4 3 36
      vertex 4 8 4
      vertex 4 8 36
    endloop
  endfacet
  facet normal 1 0 0
    outer loop
      vertex 4 8 4
      vertex 4 3 36
      vertex 4 3 4
    endloop
  endfacet
  facet normal -1 0 0
    outer loop
      vertex 35 59 4
      vertex 35 64 36
      vertex 35 64 4
    endloop
  endfacet
  facet normal -1 -0 0
    outer loop
      vertex 35 64 36
      vertex 35 59 4
      vertex 35 59 36
    endloop
  endfacet
  facet normal -1 0 0
    outer loop
      vertex 35 67 4
      vertex 35 72 36
      vertex 35 72 4
    endloop
  endfacet
  facet normal -1 -0 0
    outer loop
      vertex 35 72 36
      vertex 35 67 4
      vertex 35 67 36
    endloop
  endfacet
  facet normal -1 0 0
    outer loop
      vertex 35 123 4
      vertex 35 128 36
      vertex 35 128 4
    endloop
  endfacet
  facet normal -1 -0 0
    outer loop
      vertex 35 128 36
      vertex 35 123 4
      vertex 35 123 36
    endloop
  endfacet
  facet normal -1 0 0
    outer loop
      vertex 35 3 4
      vertex 35 8 36
      vertex 35 8 4
    endloop
  endfacet
  facet normal -1 -0 0
    outer loop
      vertex 35 8 36
      vertex 35 3 4
      vertex 35 3 36
    endloop
  endfacet
  facet normal -1 0 0
    outer loop
      vertex 35 115 4
      vertex 35 120 36
      vertex 35 120 4
    endloop
  endfacet
  facet normal -1 -0 0
    outer loop
      vertex 35 120 36
      vertex 35 115 4
      vertex 35 115 36
    endloop
  endfacet
  facet normal -1 0 0
    outer loop
      vertex 35 107 4
      vertex 35 112 36
      vertex 35 112 4
    endloop
  endfacet
  facet normal -1 -0 0
    outer loop
      vertex 35 112 36
      vertex 35 107 4
      vertex 35 107 36
    endloop
  endfacet
  facet normal -1 0 0
    outer loop
      vertex 35 99 4
      vertex 35 104 36
      vertex 35 104 4
    endloop
  endfacet
  facet normal -1 -0 0
    outer loop
      vertex 35 104 36
      vertex 35 99 4
      vertex 35 99 36
    endloop
  endfacet
  facet normal -1 0 0
    outer loop
      vertex 35 91 4
      vertex 35 96 36
      vertex 35 96 4
    endloop
  endfacet
  facet normal -1 -0 0
    outer loop
      vertex 35 96 36
      vertex 35 91 4
      vertex 35 91 36
    endloop
  endfacet
  facet normal -1 0 0
    outer loop
      vertex 35 83 4
      vertex 35 88 36
      vertex 35 88 4
    endloop
  endfacet
  facet normal -1 -0 0
    outer loop
      vertex 35 88 36
      vertex 35 83 4
      vertex 35 83 36
    endloop
  endfacet
  facet normal -1 0 0
    outer loop
      vertex 35 75 4
      vertex 35 80 36
      vertex 35 80 4
    endloop
  endfacet
  facet normal -1 -0 0
    outer loop
      vertex 35 80 36
      vertex 35 75 4
      vertex 35 75 36
    endloop
  endfacet
  facet normal -1 0 0
    outer loop
      vertex 35 51 4
      vertex 35 56 36
      vertex 35 56 4
    endloop
  endfacet
  facet normal -1 -0 0
    outer loop
      vertex 35 56 36
      vertex 35 51 4
      vertex 35 51 36
    endloop
  endfacet
  facet normal -1 0 0
    outer loop
      vertex 35 43 4
      vertex 35 48 36
      vertex 35 48 4
    endloop
  endfacet
  facet normal -1 -0 0
    outer loop
      vertex 35 48 36
      vertex 35 43 4
      vertex 35 43 36
    endloop
  endfacet
  facet normal -1 0 0
    outer loop
      vertex 35 35 4
      vertex 35 40 36
      vertex 35 40 4
    endloop
  endfacet
  facet normal -1 -0 0
    outer loop
      vertex 35 40 36
      vertex 35 35 4
      vertex 35 35 36
    endloop
  endfacet
  facet normal -1 0 0
    outer loop
      vertex 35 27 4
      vertex 35 32 36
      vertex 35 32 4
    endloop
  endfacet
  facet normal -1 -0 0
    outer loop
      vertex 35 32 36
      vertex 35 27 4
      vertex 35 27 36
    endloop
  endfacet
  facet normal -1 0 0
    outer loop
      vertex 35 19 4
      vertex 35 24 36
      vertex 35 24 4
    endloop
  endfacet
  facet normal -1 -0 0
    outer loop
      vertex 35 24 36
      vertex 35 19 4
      vertex 35 19 36
    endloop
  endfacet
  facet normal -1 0 0
    outer loop
      vertex 35 11 4
      vertex 35 16 36
      vertex 35 16 4
    endloop
  endfacet
  facet normal -1 -0 0
    outer loop
      vertex 35 16 36
      vertex 35 11 4
      vertex 35 11 36
    endloop
  endfacet
endsolid OpenSCAD_Model
