solid Untitled-577cc7bb
facet normal 1.0 0.0 0.0
  outer loop
    vertex 146.94648364306636 117.26637635759111 0.0
    vertex 146.94648364306636 87.26637635759111 3.0
    vertex 146.94648364306636 87.26637635759111 0.0
  endloop
endfacet
facet normal 1.0 0.0 0.0
  outer loop
    vertex 146.94648364306636 87.26637635759111 3.0
    vertex 146.94648364306636 117.26637635759111 0.0
    vertex 146.94648364306636 117.26637635759111 3.0
  endloop
endfacet
facet normal -0.0 -1.0 -0.0
  outer loop
    vertex 146.94648364306636 87.26637635759111 3.0
    vertex 116.94648364306636 87.26637635759111 0.0
    vertex 146.94648364306636 87.26637635759111 0.0
  endloop
endfacet
facet normal -0.0 -1.0 -0.0
  outer loop
    vertex 116.94648364306636 87.26637635759111 0.0
    vertex 146.94648364306636 87.26637635759111 3.0
    vertex 116.94648364306636 87.26637635759111 3.0
  endloop
endfacet
facet normal 0.0 1.0 0.0
  outer loop
    vertex 126.19648364306636 108.01637635759113 0.9999999999999999
    vertex 137.69648364306636 108.01637635759113 0.0
    vertex 126.19648364306636 108.01637635759113 0.0
  endloop
endfacet
facet normal 0.0 1.0 0.0
  outer loop
    vertex 137.69648364306636 108.01637635759113 0.0
    vertex 126.19648364306636 108.01637635759113 0.9999999999999999
    vertex 137.69648364306636 108.01637635759113 0.9999999999999999
  endloop
endfacet
facet normal 0.0 -1.0 0.0
  outer loop
    vertex 137.69648364306636 96.51637635759111 0.9999999999999999
    vertex 135.69648364306636 96.51637635759111 0.0
    vertex 137.69648364306636 96.51637635759111 0.0
  endloop
endfacet
facet normal 0.0 -1.0 0.0
  outer loop
    vertex 135.69648364306636 96.51637635759111 0.0
    vertex 137.69648364306636 96.51637635759111 0.9999999999999999
    vertex 135.69648364306636 96.51637635759111 0.9999999999999999
  endloop
endfacet
facet normal 0.0 1.0 0.0
  outer loop
    vertex 116.94648364306636 117.26637635759111 3.0
    vertex 146.94648364306636 117.26637635759111 0.0
    vertex 116.94648364306636 117.26637635759111 0.0
  endloop
endfacet
facet normal 0.0 1.0 0.0
  outer loop
    vertex 146.94648364306636 117.26637635759111 0.0
    vertex 116.94648364306636 117.26637635759111 3.0
    vertex 146.94648364306636 117.26637635759111 3.0
  endloop
endfacet
facet normal -1.0 0.0 0.0
  outer loop
    vertex 116.94648364306636 117.26637635759111 3.0
    vertex 116.94648364306636 87.26637635759111 0.0
    vertex 116.94648364306636 87.26637635759111 3.0
  endloop
endfacet
facet normal -1.0 0.0 0.0
  outer loop
    vertex 116.94648364306636 87.26637635759111 0.0
    vertex 116.94648364306636 117.26637635759111 3.0
    vertex 116.94648364306636 117.26637635759111 0.0
  endloop
endfacet
facet normal 1.0 0.0 0.0
  outer loop
    vertex 137.69648364306636 108.01637635759113 0.0
    vertex 137.69648364306636 96.51637635759111 0.9999999999999999
    vertex 137.69648364306636 96.51637635759111 0.0
  endloop
endfacet
facet normal 1.0 0.0 0.0
  outer loop
    vertex 137.69648364306636 96.51637635759111 0.9999999999999999
    vertex 137.69648364306636 108.01637635759113 0.0
    vertex 137.69648364306636 108.01637635759113 0.9999999999999999
  endloop
endfacet
facet normal 0.0 0.0 -1.0
  outer loop
    vertex 124.19648364306636 110.01637635759111 0.9999999999999999
    vertex 126.19648364306636 108.01637635759113 0.9999999999999999
    vertex 124.19648364306636 94.51637635759111 0.9999999999999999
  endloop
endfacet
facet normal 0.0 0.0 -1.0
  outer loop
    vertex 126.19648364306636 108.01637635759113 0.9999999999999999
    vertex 124.19648364306636 110.01637635759111 0.9999999999999999
    vertex 139.6964836430664 110.01637635759111 0.9999999999999999
  endloop
endfacet
facet normal 0.0 0.0 -1.0
  outer loop
    vertex 126.19648364306636 108.01637635759113 0.9999999999999999
    vertex 139.6964836430664 110.01637635759111 0.9999999999999999
    vertex 137.69648364306636 108.01637635759113 0.9999999999999999
  endloop
endfacet
facet normal 0.0 0.0 -1.0
  outer loop
    vertex 137.69648364306636 108.01637635759113 0.9999999999999999
    vertex 139.6964836430664 110.01637635759111 0.9999999999999999
    vertex 137.69648364306636 96.51637635759111 0.9999999999999999
  endloop
endfacet
facet normal 0.0 0.0 -1.0
  outer loop
    vertex 137.69648364306636 96.51637635759111 0.9999999999999999
    vertex 135.69648364306636 94.51637635759111 0.9999999999999999
    vertex 135.69648364306636 96.51637635759111 0.9999999999999999
  endloop
endfacet
facet normal 0.0 0.0 -1.0
  outer loop
    vertex 135.69648364306636 94.51637635759111 0.9999999999999999
    vertex 137.69648364306636 96.51637635759111 0.9999999999999999
    vertex 139.6964836430664 94.51637635759111 0.9999999999999999
  endloop
endfacet
facet normal 0.0 0.0 -1.0
  outer loop
    vertex 139.6964836430664 94.51637635759111 0.9999999999999999
    vertex 137.69648364306636 96.51637635759111 0.9999999999999999
    vertex 139.6964836430664 110.01637635759111 0.9999999999999999
  endloop
endfacet
facet normal 0.0 0.0 -1.0
  outer loop
    vertex 124.19648364306636 94.51637635759111 0.9999999999999999
    vertex 126.19648364306636 96.51637635759111 0.9999999999999999
    vertex 128.19648364306636 94.51637635759111 0.9999999999999999
  endloop
endfacet
facet normal 0.0 0.0 -1.0
  outer loop
    vertex 126.19648364306636 96.51637635759111 0.9999999999999999
    vertex 124.19648364306636 94.51637635759111 0.9999999999999999
    vertex 126.19648364306636 108.01637635759113 0.9999999999999999
  endloop
endfacet
facet normal 0.0 0.0 -1.0
  outer loop
    vertex 128.19648364306636 94.51637635759111 0.9999999999999999
    vertex 126.19648364306636 96.51637635759111 0.9999999999999999
    vertex 128.19648364306636 96.51637635759111 0.9999999999999999
  endloop
endfacet
facet normal 0.0 0.0 -1.0
  outer loop
    vertex 137.69648364306636 96.51637635759111 0.0
    vertex 135.69648364306636 91.5163763575911 0.0
    vertex 135.69648364306636 96.51637635759111 0.0
  endloop
endfacet
facet normal 0.0 0.0 -1.0
  outer loop
    vertex 116.94648364306636 117.26637635759111 0.0
    vertex 126.19648364306636 108.01637635759113 0.0
    vertex 116.94648364306636 87.26637635759111 0.0
  endloop
endfacet
facet normal 0.0 0.0 -1.0
  outer loop
    vertex 126.19648364306636 108.01637635759113 0.0
    vertex 116.94648364306636 117.26637635759111 0.0
    vertex 146.94648364306636 117.26637635759111 0.0
  endloop
endfacet
facet normal 0.0 0.0 -1.0
  outer loop
    vertex 126.19648364306636 108.01637635759113 0.0
    vertex 146.94648364306636 117.26637635759111 0.0
    vertex 137.69648364306636 108.01637635759113 0.0
  endloop
endfacet
facet normal 0.0 0.0 -1.0
  outer loop
    vertex 137.69648364306636 108.01637635759113 0.0
    vertex 146.94648364306636 117.26637635759111 0.0
    vertex 137.69648364306636 96.51637635759111 0.0
  endloop
endfacet
facet normal 0.0 0.0 -1.0
  outer loop
    vertex 116.94648364306636 87.26637635759111 0.0
    vertex 128.19648364306636 91.5163763575911 0.0
    vertex 146.94648364306636 87.26637635759111 0.0
  endloop
endfacet
facet normal 0.0 0.0 -1.0
  outer loop
    vertex 128.19648364306636 91.5163763575911 0.0
    vertex 116.94648364306636 87.26637635759111 0.0
    vertex 126.19648364306636 96.51637635759111 0.0
  endloop
endfacet
facet normal 0.0 0.0 -1.0
  outer loop
    vertex 126.19648364306636 96.51637635759111 0.0
    vertex 116.94648364306636 87.26637635759111 0.0
    vertex 126.19648364306636 108.01637635759113 0.0
  endloop
endfacet
facet normal 0.0 0.0 -1.0
  outer loop
    vertex 128.19648364306636 91.5163763575911 0.0
    vertex 126.19648364306636 96.51637635759111 0.0
    vertex 128.19648364306636 96.51637635759111 0.0
  endloop
endfacet
facet normal 0.0 0.0 -1.0
  outer loop
    vertex 146.94648364306636 87.26637635759111 0.0
    vertex 128.19648364306636 91.5163763575911 0.0
    vertex 135.69648364306636 91.5163763575911 0.0
  endloop
endfacet
facet normal 0.0 0.0 -1.0
  outer loop
    vertex 146.94648364306636 87.26637635759111 0.0
    vertex 135.69648364306636 91.5163763575911 0.0
    vertex 137.69648364306636 96.51637635759111 0.0
  endloop
endfacet
facet normal 0.0 0.0 -1.0
  outer loop
    vertex 146.94648364306636 87.26637635759111 0.0
    vertex 137.69648364306636 96.51637635759111 0.0
    vertex 146.94648364306636 117.26637635759111 0.0
  endloop
endfacet
facet normal 0.0 1.0 0.0
  outer loop
    vertex 124.19648364306636 94.51637635759111 3.0
    vertex 128.19648364306636 94.51637635759111 0.9999999999999999
    vertex 124.19648364306636 94.51637635759111 0.9999999999999999
  endloop
endfacet
facet normal 0.0 1.0 0.0
  outer loop
    vertex 128.19648364306636 94.51637635759111 0.9999999999999999
    vertex 124.19648364306636 94.51637635759111 3.0
    vertex 128.19648364306636 94.51637635759111 3.0
  endloop
endfacet
facet normal 1.0 0.0 0.0
  outer loop
    vertex 124.19648364306636 110.01637635759111 0.9999999999999999
    vertex 124.19648364306636 94.51637635759111 3.0
    vertex 124.19648364306636 94.51637635759111 0.9999999999999999
  endloop
endfacet
facet normal 1.0 0.0 0.0
  outer loop
    vertex 124.19648364306636 94.51637635759111 3.0
    vertex 124.19648364306636 110.01637635759111 0.9999999999999999
    vertex 124.19648364306636 110.01637635759111 3.0
  endloop
endfacet
facet normal 0.0 -1.0 0.0
  outer loop
    vertex 139.6964836430664 110.01637635759111 3.0
    vertex 124.19648364306636 110.01637635759111 0.9999999999999999
    vertex 139.6964836430664 110.01637635759111 0.9999999999999999
  endloop
endfacet
facet normal 0.0 -1.0 0.0
  outer loop
    vertex 124.19648364306636 110.01637635759111 0.9999999999999999
    vertex 139.6964836430664 110.01637635759111 3.0
    vertex 124.19648364306636 110.01637635759111 3.0
  endloop
endfacet
facet normal -1.0 0.0 0.0
  outer loop
    vertex 139.6964836430664 110.01637635759111 3.0
    vertex 139.6964836430664 94.51637635759111 0.9999999999999999
    vertex 139.6964836430664 94.51637635759111 3.0
  endloop
endfacet
facet normal -1.0 0.0 0.0
  outer loop
    vertex 139.6964836430664 94.51637635759111 0.9999999999999999
    vertex 139.6964836430664 110.01637635759111 3.0
    vertex 139.6964836430664 110.01637635759111 0.9999999999999999
  endloop
endfacet
facet normal 0.0 1.0 0.0
  outer loop
    vertex 135.69648364306636 94.51637635759111 3.0
    vertex 139.6964836430664 94.51637635759111 0.9999999999999999
    vertex 135.69648364306636 94.51637635759111 0.9999999999999999
  endloop
endfacet
facet normal 0.0 1.0 0.0
  outer loop
    vertex 139.6964836430664 94.51637635759111 0.9999999999999999
    vertex 135.69648364306636 94.51637635759111 3.0
    vertex 139.6964836430664 94.51637635759111 3.0
  endloop
endfacet
facet normal 1.0 0.0 0.0
  outer loop
    vertex 135.69648364306636 91.5163763575911 0.0
    vertex 135.69648364306636 94.51637635759111 0.9999999999999999
    vertex 135.69648364306636 91.5163763575911 3.0
  endloop
endfacet
facet normal 1.0 0.0 0.0
  outer loop
    vertex 135.69648364306636 94.51637635759111 0.9999999999999999
    vertex 135.69648364306636 91.5163763575911 0.0
    vertex 135.69648364306636 96.51637635759111 0.0
  endloop
endfacet
facet normal 1.0 0.0 0.0
  outer loop
    vertex 135.69648364306636 94.51637635759111 0.9999999999999999
    vertex 135.69648364306636 96.51637635759111 0.0
    vertex 135.69648364306636 96.51637635759111 0.9999999999999999
  endloop
endfacet
facet normal 1.0 0.0 0.0
  outer loop
    vertex 135.69648364306636 94.51637635759111 3.0
    vertex 135.69648364306636 91.5163763575911 3.0
    vertex 135.69648364306636 94.51637635759111 0.9999999999999999
  endloop
endfacet
facet normal 0.0 -1.0 0.0
  outer loop
    vertex 135.69648364306636 91.5163763575911 3.0
    vertex 128.19648364306636 91.5163763575911 0.0
    vertex 135.69648364306636 91.5163763575911 0.0
  endloop
endfacet
facet normal 0.0 -1.0 0.0
  outer loop
    vertex 128.19648364306636 91.5163763575911 0.0
    vertex 135.69648364306636 91.5163763575911 3.0
    vertex 128.19648364306636 91.5163763575911 3.0
  endloop
endfacet
facet normal -1.0 -0.0 -0.0
  outer loop
    vertex 126.19648364306636 108.01637635759113 0.9999999999999999
    vertex 126.19648364306636 96.51637635759111 0.0
    vertex 126.19648364306636 96.51637635759111 0.9999999999999999
  endloop
endfacet
facet normal -1.0 -0.0 -0.0
  outer loop
    vertex 126.19648364306636 96.51637635759111 0.0
    vertex 126.19648364306636 108.01637635759113 0.9999999999999999
    vertex 126.19648364306636 108.01637635759113 0.0
  endloop
endfacet
facet normal -1.0 0.0 0.0
  outer loop
    vertex 128.19648364306636 94.51637635759111 3.0
    vertex 128.19648364306636 91.5163763575911 0.0
    vertex 128.19648364306636 91.5163763575911 3.0
  endloop
endfacet
facet normal -1.0 0.0 0.0
  outer loop
    vertex 128.19648364306636 91.5163763575911 0.0
    vertex 128.19648364306636 94.51637635759111 3.0
    vertex 128.19648364306636 94.51637635759111 0.9999999999999999
  endloop
endfacet
facet normal -1.0 0.0 0.0
  outer loop
    vertex 128.19648364306636 91.5163763575911 0.0
    vertex 128.19648364306636 94.51637635759111 0.9999999999999999
    vertex 128.19648364306636 96.51637635759111 0.0
  endloop
endfacet
facet normal -1.0 0.0 0.0
  outer loop
    vertex 128.19648364306636 96.51637635759111 0.0
    vertex 128.19648364306636 94.51637635759111 0.9999999999999999
    vertex 128.19648364306636 96.51637635759111 0.9999999999999999
  endloop
endfacet
facet normal 0.0 -1.0 0.0
  outer loop
    vertex 128.19648364306636 96.51637635759111 0.9999999999999999
    vertex 126.19648364306636 96.51637635759111 0.0
    vertex 128.19648364306636 96.51637635759111 0.0
  endloop
endfacet
facet normal 0.0 -1.0 0.0
  outer loop
    vertex 126.19648364306636 96.51637635759111 0.0
    vertex 128.19648364306636 96.51637635759111 0.9999999999999999
    vertex 126.19648364306636 96.51637635759111 0.9999999999999999
  endloop
endfacet
facet normal 0.0 0.0 1.0
  outer loop
    vertex 116.94648364306636 87.26637635759111 3.0
    vertex 124.19648364306636 94.51637635759111 3.0
    vertex 116.94648364306636 117.26637635759111 3.0
  endloop
endfacet
facet normal 0.0 0.0 1.0
  outer loop
    vertex 124.19648364306636 94.51637635759111 3.0
    vertex 116.94648364306636 87.26637635759111 3.0
    vertex 128.19648364306636 91.5163763575911 3.0
  endloop
endfacet
facet normal 0.0 0.0 1.0
  outer loop
    vertex 128.19648364306636 91.5163763575911 3.0
    vertex 116.94648364306636 87.26637635759111 3.0
    vertex 146.94648364306636 87.26637635759111 3.0
  endloop
endfacet
facet normal 0.0 0.0 1.0
  outer loop
    vertex 128.19648364306636 91.5163763575911 3.0
    vertex 146.94648364306636 87.26637635759111 3.0
    vertex 135.69648364306636 91.5163763575911 3.0
  endloop
endfacet
facet normal 0.0 0.0 1.0
  outer loop
    vertex 135.69648364306636 91.5163763575911 3.0
    vertex 146.94648364306636 87.26637635759111 3.0
    vertex 135.69648364306636 94.51637635759111 3.0
  endloop
endfacet
facet normal 0.0 0.0 1.0
  outer loop
    vertex 135.69648364306636 94.51637635759111 3.0
    vertex 146.94648364306636 87.26637635759111 3.0
    vertex 139.6964836430664 94.51637635759111 3.0
  endloop
endfacet
facet normal 0.0 0.0 1.0
  outer loop
    vertex 139.6964836430664 94.51637635759111 3.0
    vertex 146.94648364306636 87.26637635759111 3.0
    vertex 139.6964836430664 110.01637635759111 3.0
  endloop
endfacet
facet normal 0.0 0.0 1.0
  outer loop
    vertex 116.94648364306636 117.26637635759111 3.0
    vertex 124.19648364306636 110.01637635759111 3.0
    vertex 146.94648364306636 117.26637635759111 3.0
  endloop
endfacet
facet normal 0.0 0.0 1.0
  outer loop
    vertex 124.19648364306636 110.01637635759111 3.0
    vertex 116.94648364306636 117.26637635759111 3.0
    vertex 124.19648364306636 94.51637635759111 3.0
  endloop
endfacet
facet normal 0.0 0.0 1.0
  outer loop
    vertex 146.94648364306636 117.26637635759111 3.0
    vertex 124.19648364306636 110.01637635759111 3.0
    vertex 139.6964836430664 110.01637635759111 3.0
  endloop
endfacet
facet normal 0.0 0.0 1.0
  outer loop
    vertex 146.94648364306636 117.26637635759111 3.0
    vertex 139.6964836430664 110.01637635759111 3.0
    vertex 146.94648364306636 87.26637635759111 3.0
  endloop
endfacet
facet normal 0.0 0.0 1.0
  outer loop
    vertex 128.19648364306636 94.51637635759111 3.0
    vertex 124.19648364306636 94.51637635759111 3.0
    vertex 128.19648364306636 91.5163763575911 3.0
  endloop
endfacet
endsolid Untitled-577cc7bb
