solid ModelosHolderBuenos
facet normal -1.0574874309554658e-15 4.2299497238217203e-16 1.0
  outer loop
    vertex 590.9066672123482 181.00775234203726 1.9999999999999978
    vertex 588.9066672123481 186.00775234203726 1.9999999999999936
    vertex 588.9066672123481 181.00775234203724 1.9999999999999936
  endloop
endfacet
facet normal -1.0574874309554658e-15 4.2299497238217203e-16 1.0
  outer loop
    vertex 588.9066672123481 186.00775234203726 1.9999999999999936
    vertex 590.9066672123482 181.00775234203726 1.9999999999999978
    vertex 590.9066672123481 186.00775234203726 1.9999999999999936
  endloop
endfacet
facet normal 1.0 0.0 0.0
  outer loop
    vertex 572.9066672123481 186.00775234203726 1.9999999999999936
    vertex 572.9066672123481 181.00775234203743 32.99999999999999
    vertex 572.9066672123481 181.0077523420373 1.9999999999999936
  endloop
endfacet
facet normal 1.0 0.0 0.0
  outer loop
    vertex 572.9066672123481 181.00775234203743 32.99999999999999
    vertex 572.9066672123481 186.00775234203726 1.9999999999999936
    vertex 572.9066672123481 186.00775234203732 32.99999999999999
  endloop
endfacet
facet normal 1.0 0.0 0.0
  outer loop
    vertex 580.9066672123481 186.00775234203726 1.9999999999999936
    vertex 580.9066672123481 181.00775234203743 32.99999999999999
    vertex 580.9066672123481 181.0077523420373 1.9999999999999936
  endloop
endfacet
facet normal 1.0 0.0 0.0
  outer loop
    vertex 580.9066672123481 181.00775234203743 32.99999999999999
    vertex 580.9066672123481 186.00775234203726 1.9999999999999936
    vertex 580.9066672123481 186.00775234203732 32.99999999999999
  endloop
endfacet
facet normal -1.0 0.0 0.0
  outer loop
    vertex 578.9066672123481 181.00775234203743 32.99999999999999
    vertex 578.9066672123481 186.00775234203726 1.9999999999999936
    vertex 578.9066672123481 181.0077523420373 1.9999999999999936
  endloop
endfacet
facet normal -1.0 0.0 0.0
  outer loop
    vertex 578.9066672123481 186.00775234203726 1.9999999999999936
    vertex 578.9066672123481 181.00775234203743 32.99999999999999
    vertex 578.9066672123481 186.00775234203732 32.99999999999999
  endloop
endfacet
facet normal -1.0 0.0 0.0
  outer loop
    vertex 582.9066672123481 181.0077523420374 32.99999999999999
    vertex 582.9066672123481 186.00775234203726 1.9999999999999936
    vertex 582.9066672123481 181.00775234203726 1.9999999999999936
  endloop
endfacet
facet normal -1.0 0.0 0.0
  outer loop
    vertex 582.9066672123481 186.00775234203726 1.9999999999999936
    vertex 582.9066672123481 181.0077523420374 32.99999999999999
    vertex 582.9066672123481 186.00775234203732 32.99999999999999
  endloop
endfacet
facet normal -1.0 0.0 0.0
  outer loop
    vertex 566.9066672123481 181.00775234203743 32.99999999999999
    vertex 566.9066672123481 186.00775234203726 1.9999999999999936
    vertex 566.9066672123481 181.0077523420373 1.9999999999999936
  endloop
endfacet
facet normal -1.0 0.0 0.0
  outer loop
    vertex 566.9066672123481 186.00775234203726 1.9999999999999936
    vertex 566.9066672123481 181.00775234203743 32.99999999999999
    vertex 566.9066672123481 186.00775234203732 32.99999999999999
  endloop
endfacet
facet normal 0.0 0.0 1.0
  outer loop
    vertex 570.9066672123481 181.0077523420373 1.9999999999999936
    vertex 568.9066672123481 186.00775234203726 1.9999999999999936
    vertex 568.9066672123481 181.0077523420373 1.9999999999999936
  endloop
endfacet
facet normal 0.0 0.0 1.0
  outer loop
    vertex 568.9066672123481 186.00775234203726 1.9999999999999936
    vertex 570.9066672123481 181.0077523420373 1.9999999999999936
    vertex 570.9066672123481 186.00775234203726 1.9999999999999936
  endloop
endfacet
facet normal 0.0 0.0 1.0
  outer loop
    vertex 582.9066672123481 181.00775234203726 1.9999999999999936
    vertex 580.9066672123481 186.00775234203726 1.9999999999999936
    vertex 580.9066672123481 181.0077523420373 1.9999999999999936
  endloop
endfacet
facet normal 0.0 0.0 1.0
  outer loop
    vertex 580.9066672123481 186.00775234203726 1.9999999999999936
    vertex 582.9066672123481 181.00775234203726 1.9999999999999936
    vertex 582.9066672123481 186.00775234203726 1.9999999999999936
  endloop
endfacet
facet normal -1.0 0.0 0.0
  outer loop
    vertex 570.9066672123481 181.00775234203743 32.99999999999999
    vertex 570.9066672123481 186.00775234203726 1.9999999999999936
    vertex 570.9066672123481 181.0077523420373 1.9999999999999936
  endloop
endfacet
facet normal -1.0 0.0 0.0
  outer loop
    vertex 570.9066672123481 186.00775234203726 1.9999999999999936
    vertex 570.9066672123481 181.00775234203743 32.99999999999999
    vertex 570.9066672123481 186.00775234203732 32.99999999999999
  endloop
endfacet
facet normal 0.0 0.0 1.0
  outer loop
    vertex 578.9066672123481 181.0077523420373 1.9999999999999936
    vertex 576.9066672123481 186.00775234203726 1.9999999999999936
    vertex 576.9066672123481 181.0077523420373 1.9999999999999936
  endloop
endfacet
facet normal 0.0 0.0 1.0
  outer loop
    vertex 576.9066672123481 186.00775234203726 1.9999999999999936
    vertex 578.9066672123481 181.0077523420373 1.9999999999999936
    vertex 578.9066672123481 186.00775234203726 1.9999999999999936
  endloop
endfacet
facet normal 0.0 0.0 1.0
  outer loop
    vertex 574.9066672123481 181.0077523420373 1.9999999999999936
    vertex 572.9066672123481 186.00775234203726 1.9999999999999936
    vertex 572.9066672123481 181.0077523420373 1.9999999999999936
  endloop
endfacet
facet normal 0.0 0.0 1.0
  outer loop
    vertex 572.9066672123481 186.00775234203726 1.9999999999999936
    vertex 574.9066672123481 181.0077523420373 1.9999999999999936
    vertex 574.9066672123481 186.00775234203726 1.9999999999999936
  endloop
endfacet
facet normal 1.0 0.0 0.0
  outer loop
    vertex 584.9066672123481 186.00775234203726 1.9999999999999936
    vertex 584.9066672123481 181.0077523420374 32.99999999999999
    vertex 584.9066672123481 181.00775234203726 1.9999999999999936
  endloop
endfacet
facet normal 1.0 0.0 0.0
  outer loop
    vertex 584.9066672123481 181.0077523420374 32.99999999999999
    vertex 584.9066672123481 186.00775234203726 1.9999999999999936
    vertex 584.9066672123481 186.00775234203732 32.99999999999999
  endloop
endfacet
facet normal 1.0 0.0 0.0
  outer loop
    vertex 576.9066672123481 186.00775234203726 1.9999999999999936
    vertex 576.9066672123481 181.00775234203743 32.99999999999999
    vertex 576.9066672123481 181.0077523420373 1.9999999999999936
  endloop
endfacet
facet normal 1.0 0.0 0.0
  outer loop
    vertex 576.9066672123481 181.00775234203743 32.99999999999999
    vertex 576.9066672123481 186.00775234203726 1.9999999999999936
    vertex 576.9066672123481 186.00775234203732 32.99999999999999
  endloop
endfacet
facet normal -1.0 0.0 0.0
  outer loop
    vertex 574.9066672123481 181.00775234203743 32.99999999999999
    vertex 574.9066672123481 186.00775234203726 1.9999999999999936
    vertex 574.9066672123481 181.0077523420373 1.9999999999999936
  endloop
endfacet
facet normal -1.0 0.0 0.0
  outer loop
    vertex 574.9066672123481 186.00775234203726 1.9999999999999936
    vertex 574.9066672123481 181.00775234203743 32.99999999999999
    vertex 574.9066672123481 186.00775234203732 32.99999999999999
  endloop
endfacet
facet normal -2.114974861910975e-15 1.6919798895287358e-15 1.0
  outer loop
    vertex 592.9066672123482 181.0077523420372 1.9999999999999978
    vertex 594.9066672123481 186.00775234203726 1.9999999999999936
    vertex 592.9066672123481 186.00775234203724 1.9999999999999936
  endloop
endfacet
facet normal -2.114974861910975e-15 1.6919798895287358e-15 1.0
  outer loop
    vertex 594.9066672123481 186.00775234203726 1.9999999999999936
    vertex 592.9066672123482 181.0077523420372 1.9999999999999978
    vertex 594.906667212348 181.0077523420373 2.000000000000006
  endloop
endfacet
facet normal 1.0 0.0 0.0
  outer loop
    vertex 588.9066672123481 186.00775234203726 1.9999999999999936
    vertex 588.9066672123481 181.0077523420374 32.99999999999999
    vertex 588.9066672123481 181.00775234203724 1.9999999999999936
  endloop
endfacet
facet normal 1.0 0.0 0.0
  outer loop
    vertex 588.9066672123481 181.0077523420374 32.99999999999999
    vertex 588.9066672123481 186.00775234203726 1.9999999999999936
    vertex 588.9066672123481 186.00775234203732 32.99999999999999
  endloop
endfacet
facet normal 0.0 0.0 1.0
  outer loop
    vertex 586.9066672123481 181.00775234203724 1.9999999999999936
    vertex 584.9066672123481 186.00775234203726 1.9999999999999936
    vertex 584.9066672123481 181.00775234203726 1.9999999999999936
  endloop
endfacet
facet normal 0.0 0.0 1.0
  outer loop
    vertex 584.9066672123481 186.00775234203726 1.9999999999999936
    vertex 586.9066672123481 181.00775234203724 1.9999999999999936
    vertex 586.9066672123481 186.00775234203726 1.9999999999999936
  endloop
endfacet
facet normal -1.0 0.0 0.0
  outer loop
    vertex 586.9066672123481 181.0077523420374 32.99999999999999
    vertex 586.9066672123481 186.00775234203726 1.9999999999999936
    vertex 586.9066672123481 181.00775234203724 1.9999999999999936
  endloop
endfacet
facet normal -1.0 0.0 0.0
  outer loop
    vertex 586.9066672123481 186.00775234203726 1.9999999999999936
    vertex 586.9066672123481 181.0077523420374 32.99999999999999
    vertex 586.9066672123481 186.00775234203732 32.99999999999999
  endloop
endfacet
facet normal 0.0 -1.0 0.0
  outer loop
    vertex 566.9066672123481 186.00775234203732 32.99999999999999
    vertex 564.9066672123481 186.00775234203726 1.9999999999999936
    vertex 566.9066672123481 186.00775234203726 1.9999999999999936
  endloop
endfacet
facet normal 0.0 -1.0 0.0
  outer loop
    vertex 564.9066672123481 186.00775234203726 1.9999999999999936
    vertex 566.9066672123481 186.00775234203732 32.99999999999999
    vertex 564.9066672123481 186.00775234203732 32.99999999999999
  endloop
endfacet
facet normal 0.0 -1.0 0.0
  outer loop
    vertex 586.9066672123481 186.00775234203732 32.99999999999999
    vertex 584.9066672123481 186.00775234203726 1.9999999999999936
    vertex 586.9066672123481 186.00775234203726 1.9999999999999936
  endloop
endfacet
facet normal 0.0 -1.0 0.0
  outer loop
    vertex 584.9066672123481 186.00775234203726 1.9999999999999936
    vertex 586.9066672123481 186.00775234203732 32.99999999999999
    vertex 584.9066672123481 186.00775234203732 32.99999999999999
  endloop
endfacet
facet normal 0.0 -1.0 0.0
  outer loop
    vertex 590.9066672123481 186.00775234203732 32.99999999999999
    vertex 588.9066672123481 186.00775234203726 1.9999999999999936
    vertex 590.9066672123481 186.00775234203726 1.9999999999999936
  endloop
endfacet
facet normal 0.0 -1.0 0.0
  outer loop
    vertex 588.9066672123481 186.00775234203726 1.9999999999999936
    vertex 590.9066672123481 186.00775234203732 32.99999999999999
    vertex 588.9066672123481 186.00775234203732 32.99999999999999
  endloop
endfacet
facet normal 1.127986593019161e-14 -1.0 1.409983241273939e-15
  outer loop
    vertex 594.9066672123481 186.00775234203732 32.99999999999999
    vertex 592.9066672123481 186.00775234203724 1.9999999999999936
    vertex 594.9066672123481 186.00775234203726 1.9999999999999936
  endloop
endfacet
facet normal 1.127986593019161e-14 -1.0 1.409983241273939e-15
  outer loop
    vertex 592.9066672123481 186.00775234203724 1.9999999999999936
    vertex 594.9066672123481 186.00775234203732 32.99999999999999
    vertex 592.9066672123481 186.00775234203732 32.99999999999999
  endloop
endfacet
facet normal -1.0 -1.8047785488306498e-14 1.851374114752111e-31
  outer loop
    vertex 590.9066672123482 181.0077523420374 33.00000000000001
    vertex 590.9066672123481 186.00775234203726 1.9999999999999936
    vertex 590.9066672123482 181.00775234203726 1.9999999999999978
  endloop
endfacet
facet normal -1.0 -1.8047785488306498e-14 1.851374114752111e-31
  outer loop
    vertex 590.9066672123481 186.00775234203726 1.9999999999999936
    vertex 590.9066672123482 181.0077523420374 33.00000000000001
    vertex 590.9066672123481 186.00775234203732 32.99999999999999
  endloop
endfacet
facet normal 1.0 1.8047785488306494e-14 -5.099728039716036e-29
  outer loop
    vertex 592.9066672123481 186.00775234203724 1.9999999999999936
    vertex 592.9066672123482 181.0077523420374 33.00000000000001
    vertex 592.9066672123482 181.0077523420372 1.9999999999999978
  endloop
endfacet
facet normal 1.0 1.8047785488306494e-14 -5.099728039716036e-29
  outer loop
    vertex 592.9066672123482 181.0077523420374 33.00000000000001
    vertex 592.9066672123481 186.00775234203724 1.9999999999999936
    vertex 592.9066672123481 186.00775234203732 32.99999999999999
  endloop
endfacet
facet normal 1.0 0.0 0.0
  outer loop
    vertex 564.9066672123481 186.00775234203726 1.9999999999999936
    vertex 564.9066672123481 181.00775234203743 32.99999999999999
    vertex 564.9066672123481 181.0077523420373 1.9999999999999936
  endloop
endfacet
facet normal 1.0 0.0 0.0
  outer loop
    vertex 564.9066672123481 181.00775234203743 32.99999999999999
    vertex 564.9066672123481 186.00775234203726 1.9999999999999936
    vertex 564.9066672123481 186.00775234203732 32.99999999999999
  endloop
endfacet
facet normal 0.0 -1.0 0.0
  outer loop
    vertex 570.9066672123481 186.00775234203732 32.99999999999999
    vertex 568.9066672123481 186.00775234203726 1.9999999999999936
    vertex 570.9066672123481 186.00775234203726 1.9999999999999936
  endloop
endfacet
facet normal 0.0 -1.0 0.0
  outer loop
    vertex 568.9066672123481 186.00775234203726 1.9999999999999936
    vertex 570.9066672123481 186.00775234203732 32.99999999999999
    vertex 568.9066672123481 186.00775234203732 32.99999999999999
  endloop
endfacet
facet normal 0.0 -1.0 0.0
  outer loop
    vertex 574.9066672123481 186.00775234203732 32.99999999999999
    vertex 572.9066672123481 186.00775234203726 1.9999999999999936
    vertex 574.9066672123481 186.00775234203726 1.9999999999999936
  endloop
endfacet
facet normal 0.0 -1.0 0.0
  outer loop
    vertex 572.9066672123481 186.00775234203726 1.9999999999999936
    vertex 574.9066672123481 186.00775234203732 32.99999999999999
    vertex 572.9066672123481 186.00775234203732 32.99999999999999
  endloop
endfacet
facet normal 0.0 -1.0 0.0
  outer loop
    vertex 578.9066672123481 186.00775234203732 32.99999999999999
    vertex 576.9066672123481 186.00775234203726 1.9999999999999936
    vertex 578.9066672123481 186.00775234203726 1.9999999999999936
  endloop
endfacet
facet normal 0.0 -1.0 0.0
  outer loop
    vertex 576.9066672123481 186.00775234203726 1.9999999999999936
    vertex 578.9066672123481 186.00775234203732 32.99999999999999
    vertex 576.9066672123481 186.00775234203732 32.99999999999999
  endloop
endfacet
facet normal 0.0 -1.0 0.0
  outer loop
    vertex 582.9066672123481 186.00775234203732 32.99999999999999
    vertex 580.9066672123481 186.00775234203726 1.9999999999999936
    vertex 582.9066672123481 186.00775234203726 1.9999999999999936
  endloop
endfacet
facet normal 0.0 -1.0 0.0
  outer loop
    vertex 580.9066672123481 186.00775234203726 1.9999999999999936
    vertex 582.9066672123481 186.00775234203732 32.99999999999999
    vertex 580.9066672123481 186.00775234203732 32.99999999999999
  endloop
endfacet
facet normal 1.787110168720619e-16 4.147641945244805e-15 1.0
  outer loop
    vertex 568.9103440975136 154.01571807399662 2.0000000000001443
    vertex 570.909172735247 159.01618644299205 2.0000000104227857
    vertex 568.9091727901249 159.01571792281828 2.000000010422787
  endloop
endfacet
facet normal 1.787110168720619e-16 4.147641945244805e-15 1.0
  outer loop
    vertex 570.909172735247 159.01618644299205 2.0000000104227857
    vertex 568.9103440975136 154.01571807399662 2.0000000000001443
    vertex 570.9103440426359 154.01618659417042 2.0000000000001443
  endloop
endfacet
facet normal 0.9999999725611056 0.0002342600868968126 -1.796826389309391e-16
  outer loop
    vertex 568.9091727901249 159.01571792281828 2.000000010422787
    vertex 568.9103440975136 154.01571807399685 33.000000000000156
    vertex 568.9103440975136 154.01571807399662 2.0000000000001443
  endloop
endfacet
facet normal 0.9999999725611056 0.0002342600868968126 -1.796826389309391e-16
  outer loop
    vertex 568.9103440975136 154.01571807399685 33.000000000000156
    vertex 568.9091727901249 159.01571792281828 2.000000010422787
    vertex 568.9091727901249 159.0157179228185 33.00000001042278
  endloop
endfacet
facet normal 0.9999999725611056 0.0002342600868968126 -1.796826389309391e-16
  outer loop
    vertex 580.909172460858 159.01852904386107 2.000000010422798
    vertex 580.9103437682467 154.01852919503952 33.00000000000011
    vertex 580.9103437682467 154.01852919503932 2.0000000000000977
  endloop
endfacet
facet normal 0.9999999725611056 0.0002342600868968126 -1.796826389309391e-16
  outer loop
    vertex 580.9103437682467 154.01852919503952 33.00000000000011
    vertex 580.909172460858 159.01852904386107 2.000000010422798
    vertex 580.909172460858 159.0185290438612 33.000000010422795
  endloop
endfacet
facet normal 1.7937162246530967e-16 1.3276755400736397e-15 1.0
  outer loop
    vertex 580.9103437682467 154.01852919503932 2.0000000000000977
    vertex 582.9091724059803 159.01899756403483 2.000000010422798
    vertex 580.909172460858 159.01852904386107 2.000000010422798
  endloop
endfacet
facet normal 1.7937162246530967e-16 1.3276755400736397e-15 1.0
  outer loop
    vertex 582.9091724059803 159.01899756403483 2.000000010422798
    vertex 580.9103437682467 154.01852919503932 2.0000000000000977
    vertex 582.9103437133689 154.01899771521315 2.0000000000000964
  endloop
endfacet
facet normal -0.9999999725611056 -0.0002342600868968126 1.796826389309391e-16
  outer loop
    vertex 570.9103440426359 154.01618659417068 33.000000000000156
    vertex 570.909172735247 159.01618644299205 2.0000000104227857
    vertex 570.9103440426359 154.01618659417042 2.0000000000001443
  endloop
endfacet
facet normal -0.9999999725611056 -0.0002342600868968126 1.796826389309391e-16
  outer loop
    vertex 570.909172735247 159.01618644299205 2.0000000104227857
    vertex 570.9103440426359 154.01618659417068 33.000000000000156
    vertex 570.909172735247 159.01618644299228 33.00000001042278
  endloop
endfacet
facet normal 0.9999999725607794 0.00023426147843520368 -1.705333586558691e-18
  outer loop
    vertex 564.9091728998804 159.0147808824707 2.000000010422787
    vertex 564.9103442072693 154.01478103364917 33.00000000000015
    vertex 564.9103442072693 154.01478103364894 2.000000000000143
  endloop
endfacet
facet normal 0.9999999725607794 0.00023426147843520368 -1.705333586558691e-18
  outer loop
    vertex 564.9103442072693 154.01478103364917 33.00000000000015
    vertex 564.9091728998804 159.0147808824707 2.000000010422787
    vertex 564.9091728998804 159.01478088247092 33.00000001042278
  endloop
endfacet
facet normal 0.9999999725611056 0.0002342600868968126 -1.796826389309391e-16
  outer loop
    vertex 576.9091725706137 159.01759200351344 2.000000010422798
    vertex 576.9103438780022 154.01759215469193 33.00000000000011
    vertex 576.9103438780022 154.01759215469176 2.0000000000000977
  endloop
endfacet
facet normal 0.9999999725611056 0.0002342600868968126 -1.796826389309391e-16
  outer loop
    vertex 576.9103438780022 154.01759215469193 33.00000000000011
    vertex 576.9091725706137 159.01759200351344 2.000000010422798
    vertex 576.9091725706137 159.0175920035136 33.000000010422795
  endloop
endfacet
facet normal -1.7315720846073003e-16 1.4685912846330355e-15 1.0
  outer loop
    vertex 576.9103438780022 154.01759215469176 2.0000000000000977
    vertex 578.9091725157359 159.01806052368724 2.000000010422798
    vertex 576.9091725706137 159.01759200351344 2.000000010422798
  endloop
endfacet
facet normal -1.7315720846073003e-16 1.4685912846330355e-15 1.0
  outer loop
    vertex 578.9091725157359 159.01806052368724 2.000000010422798
    vertex 576.9103438780022 154.01759215469176 2.0000000000000977
    vertex 578.9103438231244 154.01806067486555 2.0000000000000977
  endloop
endfacet
facet normal -0.9999999725611056 -0.0002342600868968126 1.796826389309391e-16
  outer loop
    vertex 574.9103439328807 154.01712363451836 33.00000000000013
    vertex 574.9091726254915 159.01712348333965 2.000000010422798
    vertex 574.9103439328807 154.01712363451813 2.0000000000001203
  endloop
endfacet
facet normal -0.9999999725611056 -0.0002342600868968126 1.796826389309391e-16
  outer loop
    vertex 574.9091726254915 159.01712348333965 2.000000010422798
    vertex 574.9103439328807 154.01712363451836 33.00000000000013
    vertex 574.9091726254915 159.01712348333976 23.083513999999997
  endloop
endfacet
facet normal -0.9999999725611056 -0.0002342600868968126 1.796826389309391e-16
  outer loop
    vertex 574.9091726254915 159.01712348333976 23.083513999999997
    vertex 574.9103439328807 154.01712363451836 33.00000000000013
    vertex 574.9091726254915 159.01712348333982 33.000000010422795
  endloop
endfacet
facet normal -0.9999999725611056 -0.0002342600868968126 1.796826389309391e-16
  outer loop
    vertex 578.9103438231244 154.01806067486572 33.00000000000011
    vertex 578.9091725157359 159.01806052368724 2.000000010422798
    vertex 578.9103438231244 154.01806067486555 2.0000000000000977
  endloop
endfacet
facet normal -0.9999999725611056 -0.0002342600868968126 1.796826389309391e-16
  outer loop
    vertex 578.9091725157359 159.01806052368724 2.000000010422798
    vertex 578.9103438231244 154.01806067486572 33.00000000000011
    vertex 578.9091725157359 159.01806052368744 33.000000010422795
  endloop
endfacet
facet normal -2.9934539164284944e-15 2.8779138816253828e-15 1.0
  outer loop
    vertex 572.9103439877584 154.0166551143443 2.0000000000001203
    vertex 574.9091726254915 159.01712348333965 2.000000010422798
    vertex 572.9091726803692 159.01665496316585 2.0000000104227857
  endloop
endfacet
facet normal -2.9934539164284944e-15 2.8779138816253828e-15 1.0
  outer loop
    vertex 574.9091726254915 159.01712348333965 2.000000010422798
    vertex 572.9103439877584 154.0166551143443 2.0000000000001203
    vertex 574.9103439328807 154.01712363451813 2.0000000000001203
  endloop
endfacet
facet normal -0.9999999725607794 -0.00023426147845325253 1.7052885447213536e-18
  outer loop
    vertex 566.9103441523915 154.01524955382297 33.00000000000015
    vertex 566.9091728450026 159.01524940264449 2.000000010422787
    vertex 566.9103441523915 154.01524955382274 2.0000000000001417
  endloop
endfacet
facet normal -0.9999999725607794 -0.00023426147845325253 1.7052885447213536e-18
  outer loop
    vertex 566.9091728450026 159.01524940264449 2.000000010422787
    vertex 566.9103441523915 154.01524955382297 33.00000000000015
    vertex 566.9091728450026 159.0152494026447 33.00000001042278
  endloop
endfacet
facet normal 0.9999999725611056 0.0002342600868968126 -1.796826389309391e-16
  outer loop
    vertex 584.9091723511025 159.01946608420863 2.000000010422798
    vertex 584.9103436584911 154.01946623538709 33.00000000000011
    vertex 584.9103436584911 154.0194662353869 2.0000000000000964
  endloop
endfacet
facet normal 0.9999999725611056 0.0002342600868968126 -1.796826389309391e-16
  outer loop
    vertex 584.9103436584911 154.01946623538709 33.00000000000011
    vertex 584.9091723511025 159.01946608420863 2.000000010422798
    vertex 584.9091723511025 159.0194660842088 33.000000010422795
  endloop
endfacet
facet normal 0.9999999725611056 0.0002342600868968126 -1.796826389309391e-16
  outer loop
    vertex 572.9091726803692 159.01665496316585 2.0000000104227857
    vertex 572.9103439877584 154.0166551143445 33.00000000000013
    vertex 572.9103439877584 154.0166551143443 2.0000000000001203
  endloop
endfacet
facet normal 0.9999999725611056 0.0002342600868968126 -1.796826389309391e-16
  outer loop
    vertex 572.9103439877584 154.0166551143445 33.00000000000013
    vertex 572.9091726803692 159.01665496316585 2.0000000104227857
    vertex 572.9091726803692 159.01665496316608 33.00000001042278
  endloop
endfacet
facet normal -0.0002342600868968126 0.9999999725611056 -1.3276334840318756e-15
  outer loop
    vertex 576.9103438780022 154.01759215469193 33.00000000000011
    vertex 578.9103438231244 154.01806067486555 2.0000000000000977
    vertex 576.9103438780022 154.01759215469176 2.0000000000000977
  endloop
endfacet
facet normal -0.0002342600868968126 0.9999999725611056 -1.3276334840318756e-15
  outer loop
    vertex 578.9103438231244 154.01806067486555 2.0000000000000977
    vertex 576.9103438780022 154.01759215469193 33.00000000000011
    vertex 578.9103438231244 154.01806067486572 33.00000000000011
  endloop
endfacet
facet normal -0.00023426008690809248 0.9999999725611056 -2.7376167253058125e-15
  outer loop
    vertex 572.9103439877584 154.0166551143445 33.00000000000013
    vertex 574.9103439328807 154.01712363451813 2.0000000000001203
    vertex 572.9103439877584 154.0166551143443 2.0000000000001203
  endloop
endfacet
facet normal -0.00023426008690809248 0.9999999725611056 -2.7376167253058125e-15
  outer loop
    vertex 574.9103439328807 154.01712363451813 2.0000000000001203
    vertex 572.9103439877584 154.0166551143445 33.00000000000013
    vertex 574.9103439328807 154.01712363451836 33.00000000000013
  endloop
endfacet
facet normal -0.0002342600868968126 0.9999999725611056 -4.147599966579754e-15
  outer loop
    vertex 568.9103440975136 154.01571807399685 33.000000000000156
    vertex 570.9103440426359 154.01618659417042 2.0000000000001443
    vertex 568.9103440975136 154.01571807399662 2.0000000000001443
  endloop
endfacet
facet normal -0.0002342600868968126 0.9999999725611056 -4.147599966579754e-15
  outer loop
    vertex 570.9103440426359 154.01618659417042 2.0000000000001443
    vertex 568.9103440975136 154.01571807399685 33.000000000000156
    vertex 570.9103440426359 154.01618659417068 33.000000000000156
  endloop
endfacet
facet normal -0.0002342600868968126 0.9999999725611056 -4.147599966579754e-15
  outer loop
    vertex 564.9103442072693 154.01478103364894 2.000000000000143
    vertex 566.9103441523915 154.01524955382297 33.00000000000015
    vertex 566.9103441523915 154.01524955382274 2.0000000000001417
  endloop
endfacet
facet normal -0.0002342600868968126 0.9999999725611056 -4.147599966579754e-15
  outer loop
    vertex 566.9103441523915 154.01524955382297 33.00000000000015
    vertex 564.9103442072693 154.01478103364894 2.000000000000143
    vertex 564.9103442072693 154.01478103364917 33.00000000000015
  endloop
endfacet
facet normal -0.9999999725611056 -0.0002342600868968126 1.796826389309391e-16
  outer loop
    vertex 582.9103437133689 154.01899771521332 33.00000000000011
    vertex 582.9091724059803 159.01899756403483 2.000000010422798
    vertex 582.9103437133689 154.01899771521315 2.0000000000000964
  endloop
endfacet
facet normal -0.9999999725611056 -0.0002342600868968126 1.796826389309391e-16
  outer loop
    vertex 582.9091724059803 159.01899756403483 2.000000010422798
    vertex 582.9103437133689 154.01899771521332 33.00000000000011
    vertex 582.9091724059803 159.018997564035 33.000000010422795
  endloop
endfacet
facet normal -0.0002342600868968126 0.9999999725611056 1.4923329985160025e-15
  outer loop
    vertex 592.9103434389798 154.02134031608233 33.000000000000064
    vertex 594.910343384102 154.02180883625596 2.000000000000058
    vertex 592.9103434389798 154.0213403160822 2.000000000000058
  endloop
endfacet
facet normal -0.0002342600868968126 0.9999999725611056 1.4923329985160025e-15
  outer loop
    vertex 594.910343384102 154.02180883625596 2.000000000000058
    vertex 592.9103434389798 154.02134031608233 33.000000000000064
    vertex 594.910343384102 154.0218088362561 33.000000000000064
  endloop
endfacet
facet normal -0.9999999725611056 -0.0002342600868968126 1.796826389309391e-16
  outer loop
    vertex 590.9103434938579 154.02087179590836 33.00000000000008
    vertex 590.909172186469 159.02087164473005 2.0000000104228137
    vertex 590.9103434938579 154.0208717959082 2.000000000000078
  endloop
endfacet
facet normal -0.9999999725611056 -0.0002342600868968126 1.796826389309391e-16
  outer loop
    vertex 590.909172186469 159.02087164473005 2.0000000104228137
    vertex 590.9103434938579 154.02087179590836 33.00000000000008
    vertex 590.909172186469 159.0208716447302 33.00000001042281
  endloop
endfacet
facet normal 0.9999999725611056 0.0002342600868968126 -1.796826389309391e-16
  outer loop
    vertex 592.9091721315914 159.02134016490385 2.0000000104228124
    vertex 592.9103434389798 154.02134031608233 33.000000000000064
    vertex 592.9103434389798 154.0213403160822 2.000000000000058
  endloop
endfacet
facet normal 0.9999999725611056 0.0002342600868968126 -1.796826389309391e-16
  outer loop
    vertex 592.9103434389798 154.02134031608233 33.000000000000064
    vertex 592.9091721315914 159.02134016490385 2.0000000104228124
    vertex 592.9091721315914 159.021340164904 33.00000001042281
  endloop
endfacet
facet normal -4.050181621935375e-15 -3.652952114189177e-16 1.0
  outer loop
    vertex 588.9103435487356 154.02040327573437 2.000000000000078
    vertex 590.909172186469 159.02087164473005 2.0000000104228137
    vertex 588.9091722413469 159.02040312455622 2.000000010422797
  endloop
endfacet
facet normal -4.050181621935375e-15 -3.652952114189177e-16 1.0
  outer loop
    vertex 590.909172186469 159.02087164473005 2.0000000104228137
    vertex 588.9103435487356 154.02040327573437 2.000000000000078
    vertex 590.9103434938579 154.0208717959082 2.000000000000078
  endloop
endfacet
facet normal -0.00023426008690809248 0.9999999725611056 8.234975724206604e-17
  outer loop
    vertex 588.9103435487356 154.02040327573457 33.00000000000008
    vertex 590.9103434938579 154.0208717959082 2.000000000000078
    vertex 588.9103435487356 154.02040327573437 2.000000000000078
  endloop
endfacet
facet normal -0.00023426008690809248 0.9999999725611056 8.234975724206604e-17
  outer loop
    vertex 590.9103434938579 154.0208717959082 2.000000000000078
    vertex 588.9103435487356 154.02040327573457 33.00000000000008
    vertex 590.9103434938579 154.02087179590836 33.00000000000008
  endloop
endfacet
facet normal 1.7937162246532564e-16 1.3276755400736456e-15 1.0
  outer loop
    vertex 584.9103436584911 154.0194662353869 2.0000000000000964
    vertex 586.9091722962247 159.01993460438246 2.000000010422797
    vertex 584.9091723511025 159.01946608420863 2.000000010422798
  endloop
endfacet
facet normal 1.7937162246532564e-16 1.3276755400736456e-15 1.0
  outer loop
    vertex 586.9091722962247 159.01993460438246 2.000000010422797
    vertex 584.9103436584911 154.0194662353869 2.0000000000000964
    vertex 586.9103436036133 154.0199347555607 2.0000000000000964
  endloop
endfacet
facet normal -0.0002342600868968126 0.9999999725611056 -1.3276334840318756e-15
  outer loop
    vertex 584.9103436584911 154.01946623538709 33.00000000000011
    vertex 586.9103436036133 154.0199347555607 2.0000000000000964
    vertex 584.9103436584911 154.0194662353869 2.0000000000000964
  endloop
endfacet
facet normal -0.0002342600868968126 0.9999999725611056 -1.3276334840318756e-15
  outer loop
    vertex 586.9103436036133 154.0199347555607 2.0000000000000964
    vertex 584.9103436584911 154.01946623538709 33.00000000000011
    vertex 586.9103436036133 154.01993475556085 33.00000000000011
  endloop
endfacet
facet normal -0.0002342600868968126 0.9999999725611056 -1.3276334840318756e-15
  outer loop
    vertex 580.9103437682467 154.01852919503932 2.0000000000000977
    vertex 582.9103437133689 154.01899771521332 33.00000000000011
    vertex 582.9103437133689 154.01899771521315 2.0000000000000964
  endloop
endfacet
facet normal -0.0002342600868968126 0.9999999725611056 -1.3276334840318756e-15
  outer loop
    vertex 582.9103437133689 154.01899771521332 33.00000000000011
    vertex 580.9103437682467 154.01852919503932 2.0000000000000977
    vertex 580.9103437682467 154.01852919503952 33.00000000000011
  endloop
endfacet
facet normal -0.9999999725611056 -0.0002342600868968126 1.796826389309391e-16
  outer loop
    vertex 586.9103436036133 154.01993475556085 33.00000000000011
    vertex 586.9091722962247 159.01993460438246 2.000000010422797
    vertex 586.9103436036133 154.0199347555607 2.0000000000000964
  endloop
endfacet
facet normal -0.9999999725611056 -0.0002342600868968126 1.796826389309391e-16
  outer loop
    vertex 586.9091722962247 159.01993460438246 2.000000010422797
    vertex 586.9103436036133 154.01993475556085 33.00000000000011
    vertex 586.9091722962247 159.01993460438263 33.000000010422795
  endloop
endfacet
facet normal 0.9999999725611056 0.0002342600868968126 -1.796826389309391e-16
  outer loop
    vertex 588.9091722413469 159.02040312455622 2.000000010422797
    vertex 588.9103435487356 154.02040327573457 33.00000000000008
    vertex 588.9103435487356 154.02040327573437 2.000000000000078
  endloop
endfacet
facet normal 0.9999999725611056 0.0002342600868968126 -1.796826389309391e-16
  outer loop
    vertex 588.9103435487356 154.02040327573457 33.00000000000008
    vertex 588.9091722413469 159.02040312455622 2.000000010422797
    vertex 588.9091722413469 159.02040312455642 33.000000010422795
  endloop
endfacet
facet normal 7.75464337198341e-15 1.1298032274498714e-15 1.0
  outer loop
    vertex 592.9103434389798 154.0213403160822 2.000000000000058
    vertex 594.9091720767135 159.0218086850777 2.0000000104227813
    vertex 592.9091721315914 159.02134016490385 2.0000000104228124
  endloop
endfacet
facet normal 7.75464337198341e-15 1.1298032274498714e-15 1.0
  outer loop
    vertex 594.9091720767135 159.0218086850777 2.0000000104227813
    vertex 592.9103434389798 154.0213403160822 2.000000000000058
    vertex 594.910343384102 154.02180883625596 2.000000000000058
  endloop
endfacet
facet normal 0.0002342600868969756 -0.9999999725611056 3.371651147707815e-15
  outer loop
    vertex 596.9105775893117 153.02227738386875 33.00000000000017
    vertex 564.910344207834 153.01478100621028 2.7503772001895444e-13
    vertex 596.9105775893117 153.02227738386867 2.6225688287695446e-13
  endloop
endfacet
facet normal 0.0002342600868969756 -0.9999999725611056 3.371651147707815e-15
  outer loop
    vertex 564.910344207834 153.01478100621028 2.7503772001895444e-13
    vertex 596.9105775893117 153.02227738386875 33.00000000000017
    vertex 564.9103442072693 153.01478100621028 33.00000000000015
  endloop
endfacet
facet normal 1.632505627482625e-12 1.260647458137017e-10 1.0
  outer loop
    vertex 568.9066672123481 181.00775234203743 32.99999999999999
    vertex 566.9066672123481 186.00775234203732 32.99999999999999
    vertex 566.9066672123481 181.00775234203743 32.99999999999999
  endloop
endfacet
facet normal 1.632505627482625e-12 1.260647458137017e-10 1.0
  outer loop
    vertex 572.9066672123481 181.00775234203743 32.99999999999999
    vertex 570.9066672123481 186.00775234203732 32.99999999999999
    vertex 570.9066672123481 181.00775234203743 32.99999999999999
  endloop
endfacet
facet normal 1.632505627482625e-12 1.260647458137017e-10 1.0
  outer loop
    vertex 576.9066672123481 181.00775234203743 32.99999999999999
    vertex 574.9066672123481 186.00775234203732 32.99999999999999
    vertex 574.9066672123481 181.00775234203743 32.99999999999999
  endloop
endfacet
facet normal 1.632505627482625e-12 1.260647458137017e-10 1.0
  outer loop
    vertex 580.9066672123481 181.00775234203743 32.99999999999999
    vertex 578.9066672123481 186.00775234203732 32.99999999999999
    vertex 578.9066672123481 181.00775234203743 32.99999999999999
  endloop
endfacet
facet normal 1.632505627482625e-12 1.260647458137017e-10 1.0
  outer loop
    vertex 584.9066672123481 181.0077523420374 32.99999999999999
    vertex 582.9066672123481 186.00775234203732 32.99999999999999
    vertex 582.9066672123481 181.0077523420374 32.99999999999999
  endloop
endfacet
facet normal 1.632505627482625e-12 1.260647458137017e-10 1.0
  outer loop
    vertex 588.9066672123481 181.0077523420374 32.99999999999999
    vertex 586.9066672123481 186.00775234203732 32.99999999999999
    vertex 586.9066672123481 181.0077523420374 32.99999999999999
  endloop
endfacet
facet normal 1.632505627482625e-12 1.260647458137017e-10 1.0
  outer loop
    vertex 592.9066672123482 181.0077523420374 33.00000000000001
    vertex 592.9066672123481 186.00775234203732 32.99999999999999
    vertex 590.9066672123482 181.0077523420374 33.00000000000001
  endloop
endfacet
facet normal 1.632505627482625e-12 1.260647458137017e-10 1.0
  outer loop
    vertex 596.9105775893117 153.02227738386875 33.00000000000017
    vertex 564.9103442072693 154.01478103364917 33.00000000000015
    vertex 564.9103442072693 153.01478100621028 33.00000000000015
  endloop
endfacet
facet normal 1.632505627482625e-12 1.260647458137017e-10 1.0
  outer loop
    vertex 564.9103442072693 154.01478103364917 33.00000000000015
    vertex 596.9105775893117 153.02227738386875 33.00000000000017
    vertex 566.9103441523915 154.01524955382297 33.00000000000015
  endloop
endfacet
facet normal 1.632505627482625e-12 1.260647458137017e-10 1.0
  outer loop
    vertex 566.9103441523915 154.01524955382297 33.00000000000015
    vertex 596.9105775893117 153.02227738386875 33.00000000000017
    vertex 568.9103440975136 154.01571807399685 33.000000000000156
  endloop
endfacet
facet normal 1.632505627482625e-12 1.260647458137017e-10 1.0
  outer loop
    vertex 566.9103441523915 154.01524955382297 33.00000000000015
    vertex 568.9103440975136 154.01571807399685 33.000000000000156
    vertex 568.9091727901249 159.0157179228185 33.00000001042278
  endloop
endfacet
facet normal 1.632505627482625e-12 1.260647458137017e-10 1.0
  outer loop
    vertex 568.9103440975136 154.01571807399685 33.000000000000156
    vertex 596.9105775893117 153.02227738386875 33.00000000000017
    vertex 570.9103440426359 154.01618659417068 33.000000000000156
  endloop
endfacet
facet normal 1.632505627482625e-12 1.260647458137017e-10 1.0
  outer loop
    vertex 570.9103440426359 154.01618659417068 33.000000000000156
    vertex 596.9105775893117 153.02227738386875 33.00000000000017
    vertex 572.9103439877584 154.0166551143445 33.00000000000013
  endloop
endfacet
facet normal 1.632505627482625e-12 1.260647458137017e-10 1.0
  outer loop
    vertex 570.9103440426359 154.01618659417068 33.000000000000156
    vertex 572.9103439877584 154.0166551143445 33.00000000000013
    vertex 572.9091726803692 159.01665496316608 33.00000001042278
  endloop
endfacet
facet normal 1.632505627482625e-12 1.260647458137017e-10 1.0
  outer loop
    vertex 572.9103439877584 154.0166551143445 33.00000000000013
    vertex 596.9105775893117 153.02227738386875 33.00000000000017
    vertex 574.9103439328807 154.01712363451836 33.00000000000013
  endloop
endfacet
facet normal 1.632505627482625e-12 1.260647458137017e-10 1.0
  outer loop
    vertex 574.9103439328807 154.01712363451836 33.00000000000013
    vertex 596.9105775893117 153.02227738386875 33.00000000000017
    vertex 576.9103438780022 154.01759215469193 33.00000000000011
  endloop
endfacet
facet normal 1.632505627482625e-12 1.260647458137017e-10 1.0
  outer loop
    vertex 574.9103439328807 154.01712363451836 33.00000000000013
    vertex 576.9103438780022 154.01759215469193 33.00000000000011
    vertex 576.9091725706137 159.0175920035136 33.000000010422795
  endloop
endfacet
facet normal 1.632505627482625e-12 1.260647458137017e-10 1.0
  outer loop
    vertex 576.9103438780022 154.01759215469193 33.00000000000011
    vertex 596.9105775893117 153.02227738386875 33.00000000000017
    vertex 578.9103438231244 154.01806067486572 33.00000000000011
  endloop
endfacet
facet normal 1.632505627482625e-12 1.260647458137017e-10 1.0
  outer loop
    vertex 578.9103438231244 154.01806067486572 33.00000000000011
    vertex 596.9105775893117 153.02227738386875 33.00000000000017
    vertex 580.9103437682467 154.01852919503952 33.00000000000011
  endloop
endfacet
facet normal 1.632505627482625e-12 1.260647458137017e-10 1.0
  outer loop
    vertex 578.9103438231244 154.01806067486572 33.00000000000011
    vertex 580.9103437682467 154.01852919503952 33.00000000000011
    vertex 580.909172460858 159.0185290438612 33.000000010422795
  endloop
endfacet
facet normal 1.632505627482625e-12 1.260647458137017e-10 1.0
  outer loop
    vertex 580.9103437682467 154.01852919503952 33.00000000000011
    vertex 596.9105775893117 153.02227738386875 33.00000000000017
    vertex 582.9103437133689 154.01899771521332 33.00000000000011
  endloop
endfacet
facet normal 1.632505627482625e-12 1.260647458137017e-10 1.0
  outer loop
    vertex 582.9103437133689 154.01899771521332 33.00000000000011
    vertex 596.9105775893117 153.02227738386875 33.00000000000017
    vertex 584.9103436584911 154.01946623538709 33.00000000000011
  endloop
endfacet
facet normal 1.632505627482625e-12 1.260647458137017e-10 1.0
  outer loop
    vertex 582.9103437133689 154.01899771521332 33.00000000000011
    vertex 584.9103436584911 154.01946623538709 33.00000000000011
    vertex 584.9091723511025 159.0194660842088 33.000000010422795
  endloop
endfacet
facet normal 1.632505627482625e-12 1.260647458137017e-10 1.0
  outer loop
    vertex 584.9103436584911 154.01946623538709 33.00000000000011
    vertex 596.9105775893117 153.02227738386875 33.00000000000017
    vertex 586.9103436036133 154.01993475556085 33.00000000000011
  endloop
endfacet
facet normal 1.632505627482625e-12 1.260647458137017e-10 1.0
  outer loop
    vertex 586.9103436036133 154.01993475556085 33.00000000000011
    vertex 596.9105775893117 153.02227738386875 33.00000000000017
    vertex 588.9103435487356 154.02040327573457 33.00000000000008
  endloop
endfacet
facet normal 1.632505627482625e-12 1.260647458137017e-10 1.0
  outer loop
    vertex 586.9103436036133 154.01993475556085 33.00000000000011
    vertex 588.9103435487356 154.02040327573457 33.00000000000008
    vertex 588.9091722413469 159.02040312455642 33.000000010422795
  endloop
endfacet
facet normal 1.632505627482625e-12 1.260647458137017e-10 1.0
  outer loop
    vertex 588.9103435487356 154.02040327573457 33.00000000000008
    vertex 596.9105775893117 153.02227738386875 33.00000000000017
    vertex 590.9103434938579 154.02087179590836 33.00000000000008
  endloop
endfacet
facet normal 1.632505627482625e-12 1.260647458137017e-10 1.0
  outer loop
    vertex 590.9103434938579 154.02087179590836 33.00000000000008
    vertex 596.9105775893117 153.02227738386875 33.00000000000017
    vertex 592.9103434389798 154.02134031608233 33.000000000000064
  endloop
endfacet
facet normal 1.632505627482625e-12 1.260647458137017e-10 1.0
  outer loop
    vertex 590.9103434938579 154.02087179590836 33.00000000000008
    vertex 592.9103434389798 154.02134031608233 33.000000000000064
    vertex 592.9091721315914 159.021340164904 33.00000001042281
  endloop
endfacet
facet normal 1.632505627482625e-12 1.260647458137017e-10 1.0
  outer loop
    vertex 592.9103434389798 154.02134031608233 33.000000000000064
    vertex 596.9105775893117 153.02227738386875 33.00000000000017
    vertex 594.910343384102 154.0218088362561 33.000000000000064
  endloop
endfacet
facet normal 1.632505627482625e-12 1.260647458137017e-10 1.0
  outer loop
    vertex 594.910343384102 154.0218088362561 33.000000000000064
    vertex 596.9105775893117 153.02227738386875 33.00000000000017
    vertex 596.9066672123482 187.00775234203738 33.000000000000014
  endloop
endfacet
facet normal 1.632505627482625e-12 1.260647458137017e-10 1.0
  outer loop
    vertex 566.9066672123481 186.00775234203732 32.99999999999999
    vertex 564.9066672123481 187.00775234203718 32.99999999999999
    vertex 564.9066672123481 186.00775234203732 32.99999999999999
  endloop
endfacet
facet normal 1.632505627482625e-12 1.260647458137017e-10 1.0
  outer loop
    vertex 564.9066672123481 187.00775234203718 32.99999999999999
    vertex 566.9066672123481 186.00775234203732 32.99999999999999
    vertex 596.9066672123482 187.00775234203738 33.000000000000014
  endloop
endfacet
facet normal 1.632505627482625e-12 1.260647458137017e-10 1.0
  outer loop
    vertex 596.9066672123482 187.00775234203738 33.000000000000014
    vertex 566.9066672123481 186.00775234203732 32.99999999999999
    vertex 568.9066672123481 186.00775234203732 32.99999999999999
  endloop
endfacet
facet normal 1.632505627482625e-12 1.260647458137017e-10 1.0
  outer loop
    vertex 568.9066672123481 186.00775234203732 32.99999999999999
    vertex 566.9066672123481 186.00775234203732 32.99999999999999
    vertex 568.9066672123481 181.00775234203743 32.99999999999999
  endloop
endfacet
facet normal 1.632505627482625e-12 1.260647458137017e-10 1.0
  outer loop
    vertex 596.9066672123482 187.00775234203738 33.000000000000014
    vertex 568.9066672123481 186.00775234203732 32.99999999999999
    vertex 570.9066672123481 186.00775234203732 32.99999999999999
  endloop
endfacet
facet normal 1.632505627482625e-12 1.260647458137017e-10 1.0
  outer loop
    vertex 596.9066672123482 187.00775234203738 33.000000000000014
    vertex 570.9066672123481 186.00775234203732 32.99999999999999
    vertex 572.9066672123481 186.00775234203732 32.99999999999999
  endloop
endfacet
facet normal 1.632505627482625e-12 1.260647458137017e-10 1.0
  outer loop
    vertex 572.9066672123481 186.00775234203732 32.99999999999999
    vertex 570.9066672123481 186.00775234203732 32.99999999999999
    vertex 572.9066672123481 181.00775234203743 32.99999999999999
  endloop
endfacet
facet normal 1.632505627482625e-12 1.260647458137017e-10 1.0
  outer loop
    vertex 596.9066672123482 187.00775234203738 33.000000000000014
    vertex 572.9066672123481 186.00775234203732 32.99999999999999
    vertex 574.9066672123481 186.00775234203732 32.99999999999999
  endloop
endfacet
facet normal 1.632505627482625e-12 1.260647458137017e-10 1.0
  outer loop
    vertex 596.9066672123482 187.00775234203738 33.000000000000014
    vertex 574.9066672123481 186.00775234203732 32.99999999999999
    vertex 576.9066672123481 186.00775234203732 32.99999999999999
  endloop
endfacet
facet normal 1.632505627482625e-12 1.260647458137017e-10 1.0
  outer loop
    vertex 576.9066672123481 186.00775234203732 32.99999999999999
    vertex 574.9066672123481 186.00775234203732 32.99999999999999
    vertex 576.9066672123481 181.00775234203743 32.99999999999999
  endloop
endfacet
facet normal 1.632505627482625e-12 1.260647458137017e-10 1.0
  outer loop
    vertex 596.9066672123482 187.00775234203738 33.000000000000014
    vertex 576.9066672123481 186.00775234203732 32.99999999999999
    vertex 578.9066672123481 186.00775234203732 32.99999999999999
  endloop
endfacet
facet normal 1.632505627482625e-12 1.260647458137017e-10 1.0
  outer loop
    vertex 596.9066672123482 187.00775234203738 33.000000000000014
    vertex 578.9066672123481 186.00775234203732 32.99999999999999
    vertex 580.9066672123481 186.00775234203732 32.99999999999999
  endloop
endfacet
facet normal 1.632505627482625e-12 1.260647458137017e-10 1.0
  outer loop
    vertex 580.9066672123481 186.00775234203732 32.99999999999999
    vertex 578.9066672123481 186.00775234203732 32.99999999999999
    vertex 580.9066672123481 181.00775234203743 32.99999999999999
  endloop
endfacet
facet normal 1.632505627482625e-12 1.260647458137017e-10 1.0
  outer loop
    vertex 596.9066672123482 187.00775234203738 33.000000000000014
    vertex 580.9066672123481 186.00775234203732 32.99999999999999
    vertex 582.9066672123481 186.00775234203732 32.99999999999999
  endloop
endfacet
facet normal 1.632505627482625e-12 1.260647458137017e-10 1.0
  outer loop
    vertex 596.9066672123482 187.00775234203738 33.000000000000014
    vertex 582.9066672123481 186.00775234203732 32.99999999999999
    vertex 584.9066672123481 186.00775234203732 32.99999999999999
  endloop
endfacet
facet normal 1.632505627482625e-12 1.260647458137017e-10 1.0
  outer loop
    vertex 584.9066672123481 186.00775234203732 32.99999999999999
    vertex 582.9066672123481 186.00775234203732 32.99999999999999
    vertex 584.9066672123481 181.0077523420374 32.99999999999999
  endloop
endfacet
facet normal 1.632505627482625e-12 1.260647458137017e-10 1.0
  outer loop
    vertex 596.9066672123482 187.00775234203738 33.000000000000014
    vertex 584.9066672123481 186.00775234203732 32.99999999999999
    vertex 586.9066672123481 186.00775234203732 32.99999999999999
  endloop
endfacet
facet normal 1.632505627482625e-12 1.260647458137017e-10 1.0
  outer loop
    vertex 596.9066672123482 187.00775234203738 33.000000000000014
    vertex 586.9066672123481 186.00775234203732 32.99999999999999
    vertex 588.9066672123481 186.00775234203732 32.99999999999999
  endloop
endfacet
facet normal 1.632505627482625e-12 1.260647458137017e-10 1.0
  outer loop
    vertex 588.9066672123481 186.00775234203732 32.99999999999999
    vertex 586.9066672123481 186.00775234203732 32.99999999999999
    vertex 588.9066672123481 181.0077523420374 32.99999999999999
  endloop
endfacet
facet normal 1.632505627482625e-12 1.260647458137017e-10 1.0
  outer loop
    vertex 596.9066672123482 187.00775234203738 33.000000000000014
    vertex 588.9066672123481 186.00775234203732 32.99999999999999
    vertex 590.9066672123481 186.00775234203732 32.99999999999999
  endloop
endfacet
facet normal 1.632505627482625e-12 1.260647458137017e-10 1.0
  outer loop
    vertex 596.9066672123482 187.00775234203738 33.000000000000014
    vertex 590.9066672123481 186.00775234203732 32.99999999999999
    vertex 592.9066672123481 186.00775234203732 32.99999999999999
  endloop
endfacet
facet normal 1.632505627482625e-12 1.260647458137017e-10 1.0
  outer loop
    vertex 592.9066672123481 186.00775234203732 32.99999999999999
    vertex 590.9066672123481 186.00775234203732 32.99999999999999
    vertex 590.9066672123482 181.0077523420374 33.00000000000001
  endloop
endfacet
facet normal 1.632505627482625e-12 1.260647458137017e-10 1.0
  outer loop
    vertex 596.9066672123482 187.00775234203738 33.000000000000014
    vertex 592.9066672123481 186.00775234203732 32.99999999999999
    vertex 594.9066672123481 186.00775234203732 32.99999999999999
  endloop
endfacet
facet normal 1.632505627482625e-12 1.260647458137017e-10 1.0
  outer loop
    vertex 596.9066672123482 187.00775234203738 33.000000000000014
    vertex 594.9066672123481 186.00775234203732 32.99999999999999
    vertex 594.910343384102 154.0218088362561 33.000000000000064
  endloop
endfacet
facet normal 1.632505627482625e-12 1.260647458137017e-10 1.0
  outer loop
    vertex 592.9091721315914 159.021340164904 33.00000001042281
    vertex 590.909172186469 159.0208716447302 33.00000001042281
    vertex 590.9103434938579 154.02087179590836 33.00000000000008
  endloop
endfacet
facet normal 1.632505627482625e-12 1.260647458137017e-10 1.0
  outer loop
    vertex 588.9091722413469 159.02040312455642 33.000000010422795
    vertex 586.9091722962247 159.01993460438263 33.000000010422795
    vertex 586.9103436036133 154.01993475556085 33.00000000000011
  endloop
endfacet
facet normal 1.632505627482625e-12 1.260647458137017e-10 1.0
  outer loop
    vertex 584.9091723511025 159.0194660842088 33.000000010422795
    vertex 582.9091724059803 159.018997564035 33.000000010422795
    vertex 582.9103437133689 154.01899771521332 33.00000000000011
  endloop
endfacet
facet normal 1.632505627482625e-12 1.260647458137017e-10 1.0
  outer loop
    vertex 580.909172460858 159.0185290438612 33.000000010422795
    vertex 578.9091725157359 159.01806052368744 33.000000010422795
    vertex 578.9103438231244 154.01806067486572 33.00000000000011
  endloop
endfacet
facet normal 1.632505627482625e-12 1.260647458137017e-10 1.0
  outer loop
    vertex 576.9091725706137 159.0175920035136 33.000000010422795
    vertex 574.9091726254915 159.01712348333982 33.000000010422795
    vertex 574.9103439328807 154.01712363451836 33.00000000000013
  endloop
endfacet
facet normal 1.632505627482625e-12 1.260647458137017e-10 1.0
  outer loop
    vertex 572.9091726803692 159.01665496316608 33.00000001042278
    vertex 570.909172735247 159.01618644299228 33.00000001042278
    vertex 570.9103440426359 154.01618659417068 33.000000000000156
  endloop
endfacet
facet normal 1.632505627482625e-12 1.260647458137017e-10 1.0
  outer loop
    vertex 568.9091727901249 159.0157179228185 33.00000001042278
    vertex 566.9091728450026 159.0152494026447 33.00000001042278
    vertex 566.9103441523915 154.01524955382297 33.00000000000015
  endloop
endfacet
facet normal -0.9999999924620259 -0.00012269806853776327 4.597001224930265e-06
  outer loop
    vertex 594.9083212648334 174.01486143061157 20.50000000000014
    vertex 594.9083212648334 172.01486143061157 16.500000000000124
    vertex 594.9083212648334 172.01486143061157 20.50000000000014
  endloop
endfacet
facet normal -0.9999999924620259 -0.00012269806853776327 4.597001224930265e-06
  outer loop
    vertex 594.910343384102 154.0218088362561 33.000000000000064
    vertex 594.9091720767135 159.0218086850777 2.0000000104227813
    vertex 594.910343384102 154.02180883625596 2.000000000000058
  endloop
endfacet
facet normal -0.9999999924620259 -0.00012269806853776327 4.597001224930265e-06
  outer loop
    vertex 594.9091720767135 159.0218086850777 2.0000000104227813
    vertex 594.910343384102 154.0218088362561 33.000000000000064
    vertex 594.9087815057972 166.0148614570893 20.50000000000014
  endloop
endfacet
facet normal -0.9999999924620259 -0.00012269806853776327 4.597001224930265e-06
  outer loop
    vertex 594.9087815057972 166.0148614570893 20.50000000000014
    vertex 594.910343384102 154.0218088362561 33.000000000000064
    vertex 594.9085513853153 170.0148614438505 24.500000000000142
  endloop
endfacet
facet normal -0.9999999924620259 -0.00012269806853776327 4.597001224930265e-06
  outer loop
    vertex 594.9085513853153 170.0148614438505 24.500000000000142
    vertex 594.910343384102 154.0218088362561 33.000000000000064
    vertex 594.9066672123481 186.00775234203732 32.99999999999999
  endloop
endfacet
facet normal -0.9999999924620259 -0.00012269806853776327 4.597001224930265e-06
  outer loop
    vertex 594.9085513853153 170.0148614438505 24.500000000000142
    vertex 594.9066672123481 186.00775234203732 32.99999999999999
    vertex 594.9083212648334 174.01486143061157 20.50000000000014
  endloop
endfacet
facet normal -0.9999999924620259 -0.00012269806853776327 4.597001224930265e-06
  outer loop
    vertex 594.9083212648334 174.01486143061157 20.50000000000014
    vertex 594.9066672123481 186.00775234203732 32.99999999999999
    vertex 594.906667212348 181.0077523420373 2.000000000000006
  endloop
endfacet
facet normal -0.9999999924620259 -0.00012269806853776327 4.597001224930265e-06
  outer loop
    vertex 594.906667212348 181.0077523420373 2.000000000000006
    vertex 594.9066672123481 186.00775234203732 32.99999999999999
    vertex 594.9066672123481 186.00775234203726 1.9999999999999936
  endloop
endfacet
facet normal -0.9999999924620259 -0.00012269806853776327 4.597001224930265e-06
  outer loop
    vertex 594.9091720767135 159.0218086850777 2.0000000104227813
    vertex 594.906667212348 181.0077523420373 -5.639932965095795e-15
    vertex 594.9103449789 159.02180868507764 1.0422708918156331e-08
  endloop
endfacet
facet normal -0.9999999924620259 -0.00012269806853776327 4.597001224930265e-06
  outer loop
    vertex 594.906667212348 181.0077523420373 -5.639932965095795e-15
    vertex 594.9091720767135 159.0218086850777 2.0000000104227813
    vertex 594.9087815057972 168.0148614570893 16.500000000000142
  endloop
endfacet
facet normal -0.9999999924620259 -0.00012269806853776327 4.597001224930265e-06
  outer loop
    vertex 594.9087815057972 168.0148614570893 16.500000000000142
    vertex 594.9091720767135 159.0218086850777 2.0000000104227813
    vertex 594.9087815057972 166.0148614570893 20.50000000000014
  endloop
endfacet
facet normal -0.9999999924620259 -0.00012269806853776327 4.597001224930265e-06
  outer loop
    vertex 594.9087815057972 168.0148614570893 16.500000000000142
    vertex 594.9087815057972 166.0148614570893 20.50000000000014
    vertex 594.9087815057972 168.0148614570893 20.50000000000014
  endloop
endfacet
facet normal -0.9999999924620259 -0.00012269806853776327 4.597001224930265e-06
  outer loop
    vertex 594.906667212348 181.0077523420373 -5.639932965095795e-15
    vertex 594.9087815057972 168.0148614570893 16.500000000000142
    vertex 594.9085513853153 170.01486144385044 16.500000000000135
  endloop
endfacet
facet normal -0.9999999924620259 -0.00012269806853776327 4.597001224930265e-06
  outer loop
    vertex 594.906667212348 181.0077523420373 -5.639932965095795e-15
    vertex 594.9085513853153 170.01486144385044 16.500000000000135
    vertex 594.9083212648334 172.01486143061157 16.500000000000124
  endloop
endfacet
facet normal -0.9999999924620259 -0.00012269806853776327 4.597001224930265e-06
  outer loop
    vertex 594.906667212348 181.0077523420373 -5.639932965095795e-15
    vertex 594.9083212648334 172.01486143061157 16.500000000000124
    vertex 594.9083212648334 174.01486143061157 20.50000000000014
  endloop
endfacet
facet normal -0.9999999924620259 -0.00012269806853776327 4.597001224930265e-06
  outer loop
    vertex 594.906667212348 181.0077523420373 -5.639932965095795e-15
    vertex 594.9083212648334 174.01486143061157 20.50000000000014
    vertex 594.906667212348 181.0077523420373 2.000000000000006
  endloop
endfacet
facet normal 1.0 0.0 0.0
  outer loop
    vertex 568.9066672123481 186.00775234203726 1.9999999999999936
    vertex 568.9066672123481 181.00775234203743 32.99999999999999
    vertex 568.9066672123481 181.0077523420373 1.9999999999999936
  endloop
endfacet
facet normal 1.0 0.0 0.0
  outer loop
    vertex 568.9066672123481 181.00775234203743 32.99999999999999
    vertex 568.9066672123481 186.00775234203726 1.9999999999999936
    vertex 568.9066672123481 186.00775234203732 32.99999999999999
  endloop
endfacet
facet normal -7.648288154545832e-13 -1.520888137336882e-10 -1.0
  outer loop
    vertex 566.9066672123481 186.00775234203726 1.9999999999999936
    vertex 564.9066672123481 181.0077523420373 1.9999999999999936
    vertex 564.9066672123481 186.00775234203726 1.9999999999999936
  endloop
endfacet
facet normal -7.648288154545832e-13 -1.520888137336882e-10 -1.0
  outer loop
    vertex 564.9066672123481 181.0077523420373 1.9999999999999936
    vertex 566.9066672123481 186.00775234203726 1.9999999999999936
    vertex 564.9091728998804 159.0147808824707 2.000000010422787
  endloop
endfacet
facet normal -7.648288154545832e-13 -1.520888137336882e-10 -1.0
  outer loop
    vertex 564.9091728998804 159.0147808824707 2.000000010422787
    vertex 566.9066672123481 186.00775234203726 1.9999999999999936
    vertex 564.9103442072693 154.01478103364894 2.000000000000143
  endloop
endfacet
facet normal -7.648288154545832e-13 -1.520888137336882e-10 -1.0
  outer loop
    vertex 564.9103442072693 154.01478103364894 2.000000000000143
    vertex 566.9066672123481 186.00775234203726 1.9999999999999936
    vertex 566.9066672123481 181.0077523420373 1.9999999999999936
  endloop
endfacet
facet normal -7.648288154545832e-13 -1.520888137336882e-10 -1.0
  outer loop
    vertex 564.9103442072693 154.01478103364894 2.000000000000143
    vertex 566.9066672123481 181.0077523420373 1.9999999999999936
    vertex 566.9091728450026 159.01524940264449 2.000000010422787
  endloop
endfacet
facet normal -7.648288154545832e-13 -1.520888137336882e-10 -1.0
  outer loop
    vertex 564.9103442072693 154.01478103364894 2.000000000000143
    vertex 566.9091728450026 159.01524940264449 2.000000010422787
    vertex 566.9103441523915 154.01524955382274 2.0000000000001417
  endloop
endfacet
facet normal -0.9999998021839185 -5.696559579525834e-05 0.0006264080500831988
  outer loop
    vertex 566.9091728450026 159.01524940264449 2.000000010422787
    vertex 566.9066672123481 181.00775234203724 -5.639932965095795e-15
    vertex 566.9066672123481 159.01524867357014 5.211371378877061e-09
  endloop
endfacet
facet normal -0.9999998021839185 -5.696559579525834e-05 0.0006264080500831988
  outer loop
    vertex 566.9066672123481 181.00775234203724 -5.639932965095795e-15
    vertex 566.9091728450026 159.01524940264449 2.000000010422787
    vertex 566.9066672123481 181.0077523420373 1.9999999999999936
  endloop
endfacet
facet normal -1.0806092366620108e-15 -1.0 5.11699391491611e-15
  outer loop
    vertex 594.906667212348 181.0077523420373 2.000000000000006
    vertex 566.9066672123481 181.00775234203724 -5.639932965095795e-15
    vertex 594.906667212348 181.0077523420373 -5.639932965095795e-15
  endloop
endfacet
facet normal -1.0806092366620108e-15 -1.0 5.11699391491611e-15
  outer loop
    vertex 566.9066672123481 181.00775234203724 -5.639932965095795e-15
    vertex 594.906667212348 181.0077523420373 2.000000000000006
    vertex 592.9066672123482 181.0077523420372 1.9999999999999978
  endloop
endfacet
facet normal -1.0806092366620108e-15 -1.0 5.11699391491611e-15
  outer loop
    vertex 566.9066672123481 181.00775234203724 -5.639932965095795e-15
    vertex 592.9066672123482 181.0077523420372 1.9999999999999978
    vertex 588.9066672123481 181.00775234203724 1.9999999999999936
  endloop
endfacet
facet normal -1.0806092366620108e-15 -1.0 5.11699391491611e-15
  outer loop
    vertex 592.9066672123482 181.0077523420372 1.9999999999999978
    vertex 590.9066672123482 181.00775234203726 1.9999999999999978
    vertex 588.9066672123481 181.00775234203724 1.9999999999999936
  endloop
endfacet
facet normal -1.0806092366620108e-15 -1.0 5.11699391491611e-15
  outer loop
    vertex 590.9066672123482 181.00775234203726 1.9999999999999978
    vertex 592.9066672123482 181.0077523420372 1.9999999999999978
    vertex 592.9066672123482 181.0077523420374 33.00000000000001
  endloop
endfacet
facet normal -1.0806092366620108e-15 -1.0 5.11699391491611e-15
  outer loop
    vertex 590.9066672123482 181.00775234203726 1.9999999999999978
    vertex 592.9066672123482 181.0077523420374 33.00000000000001
    vertex 590.9066672123482 181.0077523420374 33.00000000000001
  endloop
endfacet
facet normal -1.0806092366620108e-15 -1.0 5.11699391491611e-15
  outer loop
    vertex 588.9066672123481 181.0077523420374 32.99999999999999
    vertex 586.9066672123481 181.00775234203724 1.9999999999999936
    vertex 588.9066672123481 181.00775234203724 1.9999999999999936
  endloop
endfacet
facet normal -1.0806092366620108e-15 -1.0 5.11699391491611e-15
  outer loop
    vertex 586.9066672123481 181.00775234203724 1.9999999999999936
    vertex 588.9066672123481 181.0077523420374 32.99999999999999
    vertex 586.9066672123481 181.0077523420374 32.99999999999999
  endloop
endfacet
facet normal -1.0806092366620108e-15 -1.0 5.11699391491611e-15
  outer loop
    vertex 584.9066672123481 181.0077523420374 32.99999999999999
    vertex 582.9066672123481 181.00775234203726 1.9999999999999936
    vertex 584.9066672123481 181.00775234203726 1.9999999999999936
  endloop
endfacet
facet normal -1.0806092366620108e-15 -1.0 5.11699391491611e-15
  outer loop
    vertex 582.9066672123481 181.00775234203726 1.9999999999999936
    vertex 584.9066672123481 181.0077523420374 32.99999999999999
    vertex 582.9066672123481 181.0077523420374 32.99999999999999
  endloop
endfacet
facet normal -1.0806092366620108e-15 -1.0 5.11699391491611e-15
  outer loop
    vertex 580.9066672123481 181.00775234203743 32.99999999999999
    vertex 578.9066672123481 181.0077523420373 1.9999999999999936
    vertex 580.9066672123481 181.0077523420373 1.9999999999999936
  endloop
endfacet
facet normal -1.0806092366620108e-15 -1.0 5.11699391491611e-15
  outer loop
    vertex 578.9066672123481 181.0077523420373 1.9999999999999936
    vertex 580.9066672123481 181.00775234203743 32.99999999999999
    vertex 578.9066672123481 181.00775234203743 32.99999999999999
  endloop
endfacet
facet normal -1.0806092366620108e-15 -1.0 5.11699391491611e-15
  outer loop
    vertex 576.9066672123481 181.00775234203743 32.99999999999999
    vertex 574.9066672123481 181.0077523420373 1.9999999999999936
    vertex 576.9066672123481 181.0077523420373 1.9999999999999936
  endloop
endfacet
facet normal -1.0806092366620108e-15 -1.0 5.11699391491611e-15
  outer loop
    vertex 574.9066672123481 181.0077523420373 1.9999999999999936
    vertex 576.9066672123481 181.00775234203743 32.99999999999999
    vertex 574.9066672123481 181.00775234203743 32.99999999999999
  endloop
endfacet
facet normal -1.0806092366620108e-15 -1.0 5.11699391491611e-15
  outer loop
    vertex 572.9066672123481 181.00775234203743 32.99999999999999
    vertex 570.9066672123481 181.0077523420373 1.9999999999999936
    vertex 572.9066672123481 181.0077523420373 1.9999999999999936
  endloop
endfacet
facet normal -1.0806092366620108e-15 -1.0 5.11699391491611e-15
  outer loop
    vertex 570.9066672123481 181.0077523420373 1.9999999999999936
    vertex 572.9066672123481 181.00775234203743 32.99999999999999
    vertex 570.9066672123481 181.00775234203743 32.99999999999999
  endloop
endfacet
facet normal -1.0806092366620108e-15 -1.0 5.11699391491611e-15
  outer loop
    vertex 588.9066672123481 181.00775234203724 1.9999999999999936
    vertex 566.9066672123481 181.0077523420373 1.9999999999999936
    vertex 566.9066672123481 181.00775234203724 -5.639932965095795e-15
  endloop
endfacet
facet normal -1.0806092366620108e-15 -1.0 5.11699391491611e-15
  outer loop
    vertex 566.9066672123481 181.0077523420373 1.9999999999999936
    vertex 588.9066672123481 181.00775234203724 1.9999999999999936
    vertex 586.9066672123481 181.00775234203724 1.9999999999999936
  endloop
endfacet
facet normal -1.0806092366620108e-15 -1.0 5.11699391491611e-15
  outer loop
    vertex 566.9066672123481 181.0077523420373 1.9999999999999936
    vertex 586.9066672123481 181.00775234203724 1.9999999999999936
    vertex 584.9066672123481 181.00775234203726 1.9999999999999936
  endloop
endfacet
facet normal -1.0806092366620108e-15 -1.0 5.11699391491611e-15
  outer loop
    vertex 566.9066672123481 181.0077523420373 1.9999999999999936
    vertex 584.9066672123481 181.00775234203726 1.9999999999999936
    vertex 582.9066672123481 181.00775234203726 1.9999999999999936
  endloop
endfacet
facet normal -1.0806092366620108e-15 -1.0 5.11699391491611e-15
  outer loop
    vertex 566.9066672123481 181.0077523420373 1.9999999999999936
    vertex 582.9066672123481 181.00775234203726 1.9999999999999936
    vertex 580.9066672123481 181.0077523420373 1.9999999999999936
  endloop
endfacet
facet normal -1.0806092366620108e-15 -1.0 5.11699391491611e-15
  outer loop
    vertex 566.9066672123481 181.0077523420373 1.9999999999999936
    vertex 580.9066672123481 181.0077523420373 1.9999999999999936
    vertex 578.9066672123481 181.0077523420373 1.9999999999999936
  endloop
endfacet
facet normal -1.0806092366620108e-15 -1.0 5.11699391491611e-15
  outer loop
    vertex 566.9066672123481 181.0077523420373 1.9999999999999936
    vertex 578.9066672123481 181.0077523420373 1.9999999999999936
    vertex 576.9066672123481 181.0077523420373 1.9999999999999936
  endloop
endfacet
facet normal -1.0806092366620108e-15 -1.0 5.11699391491611e-15
  outer loop
    vertex 566.9066672123481 181.0077523420373 1.9999999999999936
    vertex 576.9066672123481 181.0077523420373 1.9999999999999936
    vertex 574.9066672123481 181.0077523420373 1.9999999999999936
  endloop
endfacet
facet normal -1.0806092366620108e-15 -1.0 5.11699391491611e-15
  outer loop
    vertex 566.9066672123481 181.0077523420373 1.9999999999999936
    vertex 574.9066672123481 181.0077523420373 1.9999999999999936
    vertex 572.9066672123481 181.0077523420373 1.9999999999999936
  endloop
endfacet
facet normal -1.0806092366620108e-15 -1.0 5.11699391491611e-15
  outer loop
    vertex 566.9066672123481 181.0077523420373 1.9999999999999936
    vertex 572.9066672123481 181.0077523420373 1.9999999999999936
    vertex 570.9066672123481 181.0077523420373 1.9999999999999936
  endloop
endfacet
facet normal -1.0806092366620108e-15 -1.0 5.11699391491611e-15
  outer loop
    vertex 566.9066672123481 181.0077523420373 1.9999999999999936
    vertex 570.9066672123481 181.0077523420373 1.9999999999999936
    vertex 568.9066672123481 181.0077523420373 1.9999999999999936
  endloop
endfacet
facet normal -1.0806092366620108e-15 -1.0 5.11699391491611e-15
  outer loop
    vertex 566.9066672123481 181.0077523420373 1.9999999999999936
    vertex 568.9066672123481 181.0077523420373 1.9999999999999936
    vertex 568.9066672123481 181.00775234203743 32.99999999999999
  endloop
endfacet
facet normal -1.0806092366620108e-15 -1.0 5.11699391491611e-15
  outer loop
    vertex 566.9066672123481 181.0077523420373 1.9999999999999936
    vertex 568.9066672123481 181.00775234203743 32.99999999999999
    vertex 566.9066672123481 181.00775234203743 32.99999999999999
  endloop
endfacet
facet normal -2.609678621911619e-09 -2.369605349752428e-10 -1.0
  outer loop
    vertex 566.9066672123481 181.00775234203724 -5.639932965095795e-15
    vertex 564.9097593509726 159.01478088720796 1.0422748397687087e-08
    vertex 564.9097593509726 181.00775234203724 5.2113036996814796e-09
  endloop
endfacet
facet normal -2.609678621911619e-09 -2.369605349752428e-10 -1.0
  outer loop
    vertex 564.9097593509726 159.01478088720796 1.0422748397687087e-08
    vertex 566.9066672123481 181.00775234203724 -5.639932965095795e-15
    vertex 566.9066672123481 159.01524867357014 5.211371378877061e-09
  endloop
endfacet
facet normal -0.00023425932336923488 0.9999999725612844 -8.608284973630688e-10
  outer loop
    vertex 566.9091728450026 159.01524940264449 2.000000010422787
    vertex 594.9103449789 159.02180868507764 1.0422708918156331e-08
    vertex 566.9066672123481 159.01524867357014 5.211371378877061e-09
  endloop
endfacet
facet normal -0.00023425932336923488 0.9999999725612844 -8.608284973630688e-10
  outer loop
    vertex 594.9103449789 159.02180868507764 1.0422708918156331e-08
    vertex 566.9091728450026 159.01524940264449 2.000000010422787
    vertex 570.909172735247 159.01618644299205 2.0000000104227857
  endloop
endfacet
facet normal -0.00023425932336923488 0.9999999725612844 -8.608284973630688e-10
  outer loop
    vertex 594.9103449789 159.02180868507764 1.0422708918156331e-08
    vertex 570.909172735247 159.01618644299205 2.0000000104227857
    vertex 594.9091720767135 159.0218086850777 2.0000000104227813
  endloop
endfacet
facet normal -0.00023425932336923488 0.9999999725612844 -8.608284973630688e-10
  outer loop
    vertex 570.909172735247 159.01618644299205 2.0000000104227857
    vertex 566.9091728450026 159.01524940264449 2.000000010422787
    vertex 568.9091727901249 159.01571792281828 2.000000010422787
  endloop
endfacet
facet normal -0.00023425932336923488 0.9999999725612844 -8.608284973630688e-10
  outer loop
    vertex 568.9091727901249 159.01571792281828 2.000000010422787
    vertex 566.9091728450026 159.01524940264449 2.000000010422787
    vertex 566.9091728450026 159.0152494026447 33.00000001042278
  endloop
endfacet
facet normal -0.00023425932336923488 0.9999999725612844 -8.608284973630688e-10
  outer loop
    vertex 568.9091727901249 159.01571792281828 2.000000010422787
    vertex 566.9091728450026 159.0152494026447 33.00000001042278
    vertex 568.9091727901249 159.0157179228185 33.00000001042278
  endloop
endfacet
facet normal -0.00023425932336923488 0.9999999725612844 -8.608284973630688e-10
  outer loop
    vertex 570.909172735247 159.01618644299228 33.00000001042278
    vertex 572.9091726803692 159.01665496316585 2.0000000104227857
    vertex 570.909172735247 159.01618644299205 2.0000000104227857
  endloop
endfacet
facet normal -0.00023425932336923488 0.9999999725612844 -8.608284973630688e-10
  outer loop
    vertex 572.9091726803692 159.01665496316585 2.0000000104227857
    vertex 570.909172735247 159.01618644299228 33.00000001042278
    vertex 572.9091726803692 159.01665496316608 33.00000001042278
  endloop
endfacet
facet normal -0.00023425932336923488 0.9999999725612844 -8.608284973630688e-10
  outer loop
    vertex 574.9091726254915 159.01712348333976 23.083513999999997
    vertex 576.9091725706137 159.01759200351344 2.000000010422798
    vertex 574.9091726254915 159.01712348333965 2.000000010422798
  endloop
endfacet
facet normal -0.00023425932336923488 0.9999999725612844 -8.608284973630688e-10
  outer loop
    vertex 576.9091725706137 159.01759200351344 2.000000010422798
    vertex 574.9091726254915 159.01712348333976 23.083513999999997
    vertex 576.9091725706137 159.0175920035136 33.000000010422795
  endloop
endfacet
facet normal -0.00023425932336923488 0.9999999725612844 -8.608284973630688e-10
  outer loop
    vertex 576.9091725706137 159.0175920035136 33.000000010422795
    vertex 574.9091726254915 159.01712348333976 23.083513999999997
    vertex 574.9091726254915 159.01712348333982 33.000000010422795
  endloop
endfacet
facet normal -0.00023425932336923488 0.9999999725612844 -8.608284973630688e-10
  outer loop
    vertex 578.9091725157359 159.01806052368744 33.000000010422795
    vertex 580.909172460858 159.01852904386107 2.000000010422798
    vertex 578.9091725157359 159.01806052368724 2.000000010422798
  endloop
endfacet
facet normal -0.00023425932336923488 0.9999999725612844 -8.608284973630688e-10
  outer loop
    vertex 580.909172460858 159.01852904386107 2.000000010422798
    vertex 578.9091725157359 159.01806052368744 33.000000010422795
    vertex 580.909172460858 159.0185290438612 33.000000010422795
  endloop
endfacet
facet normal -0.00023425932336923488 0.9999999725612844 -8.608284973630688e-10
  outer loop
    vertex 574.9091726254915 159.01712348333965 2.000000010422798
    vertex 586.9091722962247 159.01993460438246 2.000000010422797
    vertex 572.9091726803692 159.01665496316585 2.0000000104227857
  endloop
endfacet
facet normal -0.00023425932336923488 0.9999999725612844 -8.608284973630688e-10
  outer loop
    vertex 586.9091722962247 159.01993460438246 2.000000010422797
    vertex 574.9091726254915 159.01712348333965 2.000000010422798
    vertex 584.9091723511025 159.01946608420863 2.000000010422798
  endloop
endfacet
facet normal -0.00023425932336923488 0.9999999725612844 -8.608284973630688e-10
  outer loop
    vertex 584.9091723511025 159.01946608420863 2.000000010422798
    vertex 574.9091726254915 159.01712348333965 2.000000010422798
    vertex 576.9091725706137 159.01759200351344 2.000000010422798
  endloop
endfacet
facet normal -0.00023425932336923488 0.9999999725612844 -8.608284973630688e-10
  outer loop
    vertex 584.9091723511025 159.01946608420863 2.000000010422798
    vertex 576.9091725706137 159.01759200351344 2.000000010422798
    vertex 578.9091725157359 159.01806052368724 2.000000010422798
  endloop
endfacet
facet normal -0.00023425932336923488 0.9999999725612844 -8.608284973630688e-10
  outer loop
    vertex 584.9091723511025 159.01946608420863 2.000000010422798
    vertex 578.9091725157359 159.01806052368724 2.000000010422798
    vertex 580.909172460858 159.01852904386107 2.000000010422798
  endloop
endfacet
facet normal -0.00023425932336923488 0.9999999725612844 -8.608284973630688e-10
  outer loop
    vertex 584.9091723511025 159.01946608420863 2.000000010422798
    vertex 580.909172460858 159.01852904386107 2.000000010422798
    vertex 582.9091724059803 159.01899756403483 2.000000010422798
  endloop
endfacet
facet normal -0.00023425932336923488 0.9999999725612844 -8.608284973630688e-10
  outer loop
    vertex 584.9091723511025 159.01946608420863 2.000000010422798
    vertex 582.9091724059803 159.01899756403483 2.000000010422798
    vertex 582.9091724059803 159.018997564035 33.000000010422795
  endloop
endfacet
facet normal -0.00023425932336923488 0.9999999725612844 -8.608284973630688e-10
  outer loop
    vertex 584.9091723511025 159.01946608420863 2.000000010422798
    vertex 582.9091724059803 159.018997564035 33.000000010422795
    vertex 584.9091723511025 159.0194660842088 33.000000010422795
  endloop
endfacet
facet normal -0.00023425932336923488 0.9999999725612844 -8.608284973630688e-10
  outer loop
    vertex 586.9091722962247 159.01993460438263 33.000000010422795
    vertex 588.9091722413469 159.02040312455622 2.000000010422797
    vertex 586.9091722962247 159.01993460438246 2.000000010422797
  endloop
endfacet
facet normal -0.00023425932336923488 0.9999999725612844 -8.608284973630688e-10
  outer loop
    vertex 588.9091722413469 159.02040312455622 2.000000010422797
    vertex 586.9091722962247 159.01993460438263 33.000000010422795
    vertex 588.9091722413469 159.02040312455642 33.000000010422795
  endloop
endfacet
facet normal -0.00023425932336923488 0.9999999725612844 -8.608284973630688e-10
  outer loop
    vertex 594.9091720767135 159.0218086850777 2.0000000104227813
    vertex 588.9091722413469 159.02040312455622 2.000000010422797
    vertex 592.9091721315914 159.02134016490385 2.0000000104228124
  endloop
endfacet
facet normal -0.00023425932336923488 0.9999999725612844 -8.608284973630688e-10
  outer loop
    vertex 588.9091722413469 159.02040312455622 2.000000010422797
    vertex 594.9091720767135 159.0218086850777 2.0000000104227813
    vertex 572.9091726803692 159.01665496316585 2.0000000104227857
  endloop
endfacet
facet normal -0.00023425932336923488 0.9999999725612844 -8.608284973630688e-10
  outer loop
    vertex 572.9091726803692 159.01665496316585 2.0000000104227857
    vertex 594.9091720767135 159.0218086850777 2.0000000104227813
    vertex 570.909172735247 159.01618644299205 2.0000000104227857
  endloop
endfacet
facet normal -0.00023425932336923488 0.9999999725612844 -8.608284973630688e-10
  outer loop
    vertex 588.9091722413469 159.02040312455622 2.000000010422797
    vertex 572.9091726803692 159.01665496316585 2.0000000104227857
    vertex 586.9091722962247 159.01993460438246 2.000000010422797
  endloop
endfacet
facet normal -0.00023425932336923488 0.9999999725612844 -8.608284973630688e-10
  outer loop
    vertex 592.9091721315914 159.02134016490385 2.0000000104228124
    vertex 588.9091722413469 159.02040312455622 2.000000010422797
    vertex 590.909172186469 159.02087164473005 2.0000000104228137
  endloop
endfacet
facet normal -0.00023425932336923488 0.9999999725612844 -8.608284973630688e-10
  outer loop
    vertex 592.9091721315914 159.02134016490385 2.0000000104228124
    vertex 590.909172186469 159.02087164473005 2.0000000104228137
    vertex 592.9091721315914 159.021340164904 33.00000001042281
  endloop
endfacet
facet normal -0.00023425932336923488 0.9999999725612844 -8.608284973630688e-10
  outer loop
    vertex 592.9091721315914 159.021340164904 33.00000001042281
    vertex 590.909172186469 159.02087164473005 2.0000000104228137
    vertex 590.909172186469 159.0208716447302 33.00000001042281
  endloop
endfacet
facet normal 0.9999995755020307 5.696561940552763e-05 0.0009196470392383224
  outer loop
    vertex 564.9097593509726 159.01478088720796 1.0422748397687087e-08
    vertex 564.9066672123481 181.0077523420373 1.9999999999999936
    vertex 564.9091728998804 159.0147808824707 2.000000010422787
  endloop
endfacet
facet normal 0.9999995755020307 5.696561940552763e-05 0.0009196470392383224
  outer loop
    vertex 564.9066672123481 181.0077523420373 1.9999999999999936
    vertex 564.9097593509726 159.01478088720796 1.0422748397687087e-08
    vertex 564.9097593509726 181.00775234203724 5.2113036996814796e-09
  endloop
endfacet
facet normal -3.4759109922323225e-11 -1.2187370898244462e-10 -1.0
  outer loop
    vertex 596.9066672123482 187.00775234203718 1.2971845819720328e-13
    vertex 564.9097593509726 181.00775234203724 5.2113036996814796e-09
    vertex 564.9066672123481 187.00775234203718 1.2971845819720328e-13
  endloop
endfacet
facet normal -3.4759109922323225e-11 -1.2187370898244462e-10 -1.0
  outer loop
    vertex 564.9097593509726 181.00775234203724 5.2113036996814796e-09
    vertex 596.9066672123482 187.00775234203718 1.2971845819720328e-13
    vertex 566.9066672123481 181.00775234203724 -5.639932965095795e-15
  endloop
endfacet
facet normal -3.4759109922323225e-11 -1.2187370898244462e-10 -1.0
  outer loop
    vertex 566.9066672123481 181.00775234203724 -5.639932965095795e-15
    vertex 596.9066672123482 187.00775234203718 1.2971845819720328e-13
    vertex 594.906667212348 181.0077523420373 -5.639932965095795e-15
  endloop
endfacet
facet normal -3.4759109922323225e-11 -1.2187370898244462e-10 -1.0
  outer loop
    vertex 594.906667212348 181.0077523420373 -5.639932965095795e-15
    vertex 596.9066672123482 187.00775234203718 1.2971845819720328e-13
    vertex 594.9103449789 159.02180868507764 1.0422708918156331e-08
  endloop
endfacet
facet normal -3.4759109922323225e-11 -1.2187370898244462e-10 -1.0
  outer loop
    vertex 566.9066672123481 159.01524867357014 5.211371378877061e-09
    vertex 564.910344207834 153.01478100621028 2.7503772001895444e-13
    vertex 564.9097593509726 159.01478088720796 1.0422748397687087e-08
  endloop
endfacet
facet normal -3.4759109922323225e-11 -1.2187370898244462e-10 -1.0
  outer loop
    vertex 564.910344207834 153.01478100621028 2.7503772001895444e-13
    vertex 566.9066672123481 159.01524867357014 5.211371378877061e-09
    vertex 596.9105775893117 153.02227738386867 2.6225688287695446e-13
  endloop
endfacet
facet normal -3.4759109922323225e-11 -1.2187370898244462e-10 -1.0
  outer loop
    vertex 596.9105775893117 153.02227738386867 2.6225688287695446e-13
    vertex 566.9066672123481 159.01524867357014 5.211371378877061e-09
    vertex 594.9103449789 159.02180868507764 1.0422708918156331e-08
  endloop
endfacet
facet normal -3.4759109922323225e-11 -1.2187370898244462e-10 -1.0
  outer loop
    vertex 596.9105775893117 153.02227738386867 2.6225688287695446e-13
    vertex 594.9103449789 159.02180868507764 1.0422708918156331e-08
    vertex 596.9066672123482 187.00775234203718 1.2971845819720328e-13
  endloop
endfacet
facet normal 0.9999999933805706 0.00011506024095471592 -4.729222762500138e-19
  outer loop
    vertex 596.9105775893117 153.02227738386867 2.6225688287695446e-13
    vertex 596.9088525213119 168.01501487619186 16.500000000000146
    vertex 596.9105775893117 153.02227738386875 33.00000000000017
  endloop
endfacet
facet normal 0.9999999933805706 0.00011506024095471592 -4.729222762500138e-19
  outer loop
    vertex 596.9088525213119 168.01501487619186 16.500000000000146
    vertex 596.9105775893117 153.02227738386867 2.6225688287695446e-13
    vertex 596.9066672123482 187.00775234203718 1.2971845819720328e-13
  endloop
endfacet
facet normal 0.9999999933805706 0.00011506024095471592 -4.729222762500138e-19
  outer loop
    vertex 596.9105775893117 153.02227738386875 33.00000000000017
    vertex 596.9088525213119 168.01501487619186 16.500000000000146
    vertex 596.9088525213119 166.01501487619186 20.500000000000142
  endloop
endfacet
facet normal 0.9999999933805706 0.00011506024095471592 -4.729222762500138e-19
  outer loop
    vertex 596.9088525213119 168.01501487619186 16.500000000000146
    vertex 596.9066672123482 187.00775234203718 1.2971845819720328e-13
    vertex 596.9086224008299 170.01501486295297 16.50000000000014
  endloop
endfacet
facet normal 0.9999999933805706 0.00011506024095471592 -4.729222762500138e-19
  outer loop
    vertex 596.9086224008299 170.01501486295297 16.50000000000014
    vertex 596.9066672123482 187.00775234203718 1.2971845819720328e-13
    vertex 596.908392280348 172.0150148497141 16.500000000000128
  endloop
endfacet
facet normal 0.9999999933805706 0.00011506024095471592 -4.729222762500138e-19
  outer loop
    vertex 596.908392280348 172.0150148497141 16.500000000000128
    vertex 596.9066672123482 187.00775234203718 1.2971845819720328e-13
    vertex 596.908392280348 172.0150148497141 20.500000000000142
  endloop
endfacet
facet normal 0.9999999933805706 0.00011506024095471592 -4.729222762500138e-19
  outer loop
    vertex 596.908392280348 172.0150148497141 20.500000000000142
    vertex 596.9066672123482 187.00775234203718 1.2971845819720328e-13
    vertex 596.908392280348 174.0150148497141 20.500000000000142
  endloop
endfacet
facet normal 0.9999999933805706 0.00011506024095471592 -4.729222762500138e-19
  outer loop
    vertex 596.9105775893117 153.02227738386875 33.00000000000017
    vertex 596.9086224008299 170.01501486295302 24.500000000000146
    vertex 596.9066672123482 187.00775234203738 33.000000000000014
  endloop
endfacet
facet normal 0.9999999933805706 0.00011506024095471592 -4.729222762500138e-19
  outer loop
    vertex 596.9086224008299 170.01501486295302 24.500000000000146
    vertex 596.9105775893117 153.02227738386875 33.00000000000017
    vertex 596.9088525213119 166.01501487619186 20.500000000000142
  endloop
endfacet
facet normal 0.9999999933805706 0.00011506024095471592 -4.729222762500138e-19
  outer loop
    vertex 596.9066672123482 187.00775234203738 33.000000000000014
    vertex 596.9086224008299 170.01501486295302 24.500000000000146
    vertex 596.908392280348 174.0150148497141 20.500000000000142
  endloop
endfacet
facet normal 0.9999999933805706 0.00011506024095471592 -4.729222762500138e-19
  outer loop
    vertex 596.9066672123482 187.00775234203738 33.000000000000014
    vertex 596.908392280348 174.0150148497141 20.500000000000142
    vertex 596.9066672123482 187.00775234203718 1.2971845819720328e-13
  endloop
endfacet
facet normal 0.9999999933805706 0.00011506024095471592 -4.729222762500138e-19
  outer loop
    vertex 596.9088525213119 168.01501487619186 20.500000000000142
    vertex 596.9088525213119 166.01501487619186 20.500000000000142
    vertex 596.9088525213119 168.01501487619186 16.500000000000146
  endloop
endfacet
facet normal -5.423991784577275e-05 0.7071067797563481 -0.7071067805364611
  outer loop
    vertex 596.9086224008299 170.01501486295302 24.500000000000146
    vertex 594.9087815057972 166.0148614570893 20.50000000000014
    vertex 594.9085513853153 170.0148614438505 24.500000000000142
  endloop
endfacet
facet normal -5.423991784577275e-05 0.7071067797563481 -0.7071067805364611
  outer loop
    vertex 594.9087815057972 166.0148614570893 20.50000000000014
    vertex 596.9086224008299 170.01501486295302 24.500000000000146
    vertex 596.9088525213119 166.01501487619186 20.500000000000142
  endloop
endfacet
facet normal -1.611078024219693e-15 0.0 1.0
  outer loop
    vertex 596.9088525213119 166.01501487619186 20.500000000000142
    vertex 594.9087815057972 168.0148614570893 20.50000000000014
    vertex 594.9087815057972 166.0148614570893 20.50000000000014
  endloop
endfacet
facet normal -1.611078024219693e-15 0.0 1.0
  outer loop
    vertex 594.9087815057972 168.0148614570893 20.50000000000014
    vertex 596.9088525213119 166.01501487619186 20.500000000000142
    vertex 596.9088525213119 168.01501487619186 20.500000000000142
  endloop
endfacet
facet normal -7.670682737058408e-05 0.9999999970580313 0.0
  outer loop
    vertex 594.9087815057972 168.0148614570893 20.50000000000014
    vertex 596.9088525213119 168.01501487619186 16.500000000000146
    vertex 594.9087815057972 168.0148614570893 16.500000000000142
  endloop
endfacet
facet normal -7.670682737058408e-05 0.9999999970580313 0.0
  outer loop
    vertex 596.9088525213119 168.01501487619186 16.500000000000146
    vertex 594.9087815057972 168.0148614570893 20.50000000000014
    vertex 596.9088525213119 168.01501487619186 20.500000000000142
  endloop
endfacet
facet normal -1.6112943206827968e-15 2.8197811053004346e-15 1.0
  outer loop
    vertex 594.9087815057972 168.0148614570893 16.500000000000142
    vertex 596.9086224008299 170.01501486295297 16.50000000000014
    vertex 594.9085513853153 170.01486144385044 16.500000000000135
  endloop
endfacet
facet normal -1.6112943206827968e-15 2.8197811053004346e-15 1.0
  outer loop
    vertex 596.9086224008299 170.01501486295297 16.50000000000014
    vertex 594.9087815057972 168.0148614570893 16.500000000000142
    vertex 596.9088525213119 168.01501487619186 16.500000000000146
  endloop
endfacet
facet normal -1.6115106313651235e-15 5.639747581626225e-15 1.0
  outer loop
    vertex 594.9085513853153 170.01486144385044 16.500000000000135
    vertex 596.908392280348 172.0150148497141 16.500000000000128
    vertex 594.9083212648334 172.01486143061157 16.500000000000124
  endloop
endfacet
facet normal -1.6115106313651235e-15 5.639747581626225e-15 1.0
  outer loop
    vertex 596.908392280348 172.0150148497141 16.500000000000128
    vertex 594.9085513853153 170.01486144385044 16.500000000000135
    vertex 596.9086224008299 170.01501486295297 16.50000000000014
  endloop
endfacet
facet normal 7.670682737058408e-05 -0.9999999970580314 0.0
  outer loop
    vertex 596.908392280348 172.0150148497141 16.500000000000128
    vertex 594.9083212648334 172.01486143061157 20.50000000000014
    vertex 594.9083212648334 172.01486143061157 16.500000000000124
  endloop
endfacet
facet normal 7.670682737058408e-05 -0.9999999970580314 0.0
  outer loop
    vertex 594.9083212648334 172.01486143061157 20.50000000000014
    vertex 596.908392280348 172.0150148497141 16.500000000000128
    vertex 596.908392280348 172.0150148497141 20.500000000000142
  endloop
endfacet
facet normal -1.611078024219693e-15 0.0 1.0
  outer loop
    vertex 596.908392280348 172.0150148497141 20.500000000000142
    vertex 594.9083212648334 174.01486143061157 20.50000000000014
    vertex 594.9083212648334 172.01486143061157 20.50000000000014
  endloop
endfacet
facet normal -1.611078024219693e-15 0.0 1.0
  outer loop
    vertex 594.9083212648334 174.01486143061157 20.50000000000014
    vertex 596.908392280348 172.0150148497141 20.500000000000142
    vertex 596.908392280348 174.0150148497141 20.500000000000142
  endloop
endfacet
facet normal 5.4239917848051754e-05 -0.7071067797563559 -0.707106780536453
  outer loop
    vertex 596.908392280348 174.0150148497141 20.500000000000142
    vertex 594.9085513853153 170.0148614438505 24.500000000000142
    vertex 594.9083212648334 174.01486143061157 20.50000000000014
  endloop
endfacet
facet normal 5.4239917848051754e-05 -0.7071067797563559 -0.707106780536453
  outer loop
    vertex 594.9085513853153 170.0148614438505 24.500000000000142
    vertex 596.908392280348 174.0150148497141 20.500000000000142
    vertex 596.9086224008299 170.01501486295302 24.500000000000146
  endloop
endfacet
facet normal -0.9999999935098389 -0.00011393121761075426 7.066803298177578e-19
  outer loop
    vertex 566.9091728450026 159.0152494026447 33.00000001042278
    vertex 566.9066672123481 181.0077523420373 1.9999999999999936
    vertex 566.9091728450026 159.01524940264449 2.000000010422787
  endloop
endfacet
facet normal -0.9999999935098389 -0.00011393121761075426 7.066803298177578e-19
  outer loop
    vertex 566.9066672123481 181.0077523420373 1.9999999999999936
    vertex 566.9091728450026 159.0152494026447 33.00000001042278
    vertex 566.9066672123481 181.00775234203743 32.99999999999999
  endloop
endfacet
facet normal 7.646518824545978e-13 1.5208880623958243e-10 1.0
  outer loop
    vertex 564.9103442072693 154.01478103364917 33.00000000000015
    vertex 566.9091728450026 159.0152494026447 33.00000001042278
    vertex 566.9066672123481 181.00775234203743 32.99999999999999
  endloop
endfacet
facet normal 7.646518824545978e-13 1.5208880623958243e-10 1.0
  outer loop
    vertex 566.9091728450026 159.0152494026447 33.00000001042278
    vertex 564.9103442072693 154.01478103364917 33.00000000000015
    vertex 566.9103441523915 154.01524955382297 33.00000000000015
  endloop
endfacet
facet normal 7.646518824545978e-13 1.5208880623958243e-10 1.0
  outer loop
    vertex 564.9091728998804 159.01478088247092 33.00000001042278
    vertex 564.9066672123481 186.00775234203732 32.99999999999999
    vertex 564.9066672123481 181.00775234203743 32.99999999999999
  endloop
endfacet
facet normal 7.646518824545978e-13 1.5208880623958243e-10 1.0
  outer loop
    vertex 564.9066672123481 186.00775234203732 32.99999999999999
    vertex 564.9091728998804 159.01478088247092 33.00000001042278
    vertex 566.9066672123481 186.00775234203732 32.99999999999999
  endloop
endfacet
facet normal 7.646518824545978e-13 1.5208880623958243e-10 1.0
  outer loop
    vertex 566.9066672123481 186.00775234203732 32.99999999999999
    vertex 564.9091728998804 159.01478088247092 33.00000001042278
    vertex 564.9103442072693 154.01478103364917 33.00000000000015
  endloop
endfacet
facet normal 7.646518824545978e-13 1.5208880623958243e-10 1.0
  outer loop
    vertex 566.9066672123481 186.00775234203732 32.99999999999999
    vertex 564.9103442072693 154.01478103364917 33.00000000000015
    vertex 566.9066672123481 181.00775234203743 32.99999999999999
  endloop
endfacet
facet normal 0.9999999935098312 0.00011393128575692766 -7.089312791117863e-19
  outer loop
    vertex 564.9066672123481 181.0077523420373 1.9999999999999936
    vertex 564.9091728998804 159.01478088247092 33.00000001042278
    vertex 564.9091728998804 159.0147808824707 2.000000010422787
  endloop
endfacet
facet normal 0.9999999935098312 0.00011393128575692766 -7.089312791117863e-19
  outer loop
    vertex 564.9091728998804 159.01478088247092 33.00000001042278
    vertex 564.9066672123481 181.0077523420373 1.9999999999999936
    vertex 564.9066672123481 181.00775234203743 32.99999999999999
  endloop
endfacet
facet normal -2.819966482547894e-15 1.0 -2.7345129527737298e-15
  outer loop
    vertex 564.9066672123481 187.00775234203718 32.99999999999999
    vertex 596.9066672123482 187.00775234203718 1.2971845819720328e-13
    vertex 564.9066672123481 187.00775234203718 1.2971845819720328e-13
  endloop
endfacet
facet normal -2.819966482547894e-15 1.0 -2.7345129527737298e-15
  outer loop
    vertex 596.9066672123482 187.00775234203718 1.2971845819720328e-13
    vertex 564.9066672123481 187.00775234203718 32.99999999999999
    vertex 596.9066672123482 187.00775234203738 33.000000000000014
  endloop
endfacet
facet normal 0.9999999878744127 0.00015572788465281786 -2.1624598113330025e-08
  outer loop
    vertex 564.910344207834 153.01478100621028 2.7503772001895444e-13
    vertex 564.9103442072693 154.01478103364894 2.000000000000143
    vertex 564.9103442072693 153.01478100621028 33.00000000000015
  endloop
endfacet
facet normal 0.9999999878744127 0.00015572788465281786 -2.1624598113330025e-08
  outer loop
    vertex 564.9103442072693 154.01478103364894 2.000000000000143
    vertex 564.910344207834 153.01478100621028 2.7503772001895444e-13
    vertex 564.9097593509726 159.01478088720796 1.0422748397687087e-08
  endloop
endfacet
facet normal 0.9999999878744127 0.00015572788465281786 -2.1624598113330025e-08
  outer loop
    vertex 564.9103442072693 154.01478103364894 2.000000000000143
    vertex 564.9097593509726 159.01478088720796 1.0422748397687087e-08
    vertex 564.9091728998804 159.0147808824707 2.000000010422787
  endloop
endfacet
facet normal 0.9999999878744127 0.00015572788465281786 -2.1624598113330025e-08
  outer loop
    vertex 564.9103442072693 154.01478103364917 33.00000000000015
    vertex 564.9103442072693 153.01478100621028 33.00000000000015
    vertex 564.9103442072693 154.01478103364894 2.000000000000143
  endloop
endfacet
facet normal 0.9999999653934982 0.0002630532787038057 3.996897229895375e-06
  outer loop
    vertex 564.9066672123481 187.00775234203718 1.2971845819720328e-13
    vertex 564.9066672123481 181.0077523420373 1.9999999999999936
    vertex 564.9097593509726 181.00775234203724 5.2113036996814796e-09
  endloop
endfacet
facet normal 0.9999999653934982 0.0002630532787038057 3.996897229895375e-06
  outer loop
    vertex 564.9066672123481 181.0077523420373 1.9999999999999936
    vertex 564.9066672123481 187.00775234203718 1.2971845819720328e-13
    vertex 564.9066672123481 186.00775234203726 1.9999999999999936
  endloop
endfacet
facet normal 0.9999999653934982 0.0002630532787038057 3.996897229895375e-06
  outer loop
    vertex 564.9066672123481 186.00775234203726 1.9999999999999936
    vertex 564.9066672123481 187.00775234203718 1.2971845819720328e-13
    vertex 564.9066672123481 186.00775234203732 32.99999999999999
  endloop
endfacet
facet normal 0.9999999653934982 0.0002630532787038057 3.996897229895375e-06
  outer loop
    vertex 564.9066672123481 186.00775234203732 32.99999999999999
    vertex 564.9066672123481 187.00775234203718 1.2971845819720328e-13
    vertex 564.9066672123481 187.00775234203718 32.99999999999999
  endloop
endfacet
endsolid ModelosHolderBuenos
