solid ModelosHolderBuenos
facet normal 1.0 -1.5039821240255524e-14 -2.2559731860383126e-14
  outer loop
    vertex 425.6041617348671 337.8056852633089 -2.2559731860383126e-14
    vertex 425.60416173486686 317.805685263309 1.999999999999977
    vertex 425.60416173486686 317.805685263309 -2.2559731860383126e-14
  endloop
endfacet
facet normal 1.0 -1.5039821240255524e-14 -2.2559731860383126e-14
  outer loop
    vertex 425.60416173486686 317.805685263309 1.999999999999977
    vertex 425.6041617348671 337.8056852633089 -2.2559731860383126e-14
    vertex 425.6041617348671 327.805685263309 1.999999999999977
  endloop
endfacet
facet normal 1.0 -1.5039821240255524e-14 -2.2559731860383126e-14
  outer loop
    vertex 425.6041617348671 327.805685263309 1.999999999999977
    vertex 425.6041617348671 337.8056852633089 -2.2559731860383126e-14
    vertex 425.6041617348671 337.8056852633089 1.999999999999977
  endloop
endfacet
facet normal 0.0 0.0 1.0
  outer loop
    vertex 424.6041617348671 327.805685263309 1.9999999999999996
    vertex 422.60416173486715 334.80568526330893 1.9999999999999996
    vertex 422.604161734867 327.805685263309 1.9999999999999996
  endloop
endfacet
facet normal 0.0 0.0 1.0
  outer loop
    vertex 424.6041617348671 336.80568526330893 1.9999999999999996
    vertex 420.9041617348672 334.80568526330893 1.9999999999999996
    vertex 422.60416173486715 334.80568526330893 1.9999999999999996
  endloop
endfacet
facet normal 0.0 0.0 -1.0
  outer loop
    vertex 393.1041617348671 339.8056852633089 0.0
    vertex 389.1041617348671 337.8056852633089 0.0
    vertex 389.1041617348671 339.8056852633089 0.0
  endloop
endfacet
facet normal 0.0 0.0 -1.0
  outer loop
    vertex 389.1041617348671 337.8056852633089 0.0
    vertex 361.6041617348674 317.80568526330904 0.0
    vertex 361.6041617348672 337.8056852633089 0.0
  endloop
endfacet
facet normal 0.0 0.0 -1.0
  outer loop
    vertex 361.6041617348674 317.80568526330904 0.0
    vertex 389.1041617348671 337.8056852633089 0.0
    vertex 362.6041617348674 317.80568526330904 0.0
  endloop
endfacet
facet normal 0.0 0.0 -1.0
  outer loop
    vertex 362.6041617348674 317.80568526330904 0.0
    vertex 389.1041617348671 337.8056852633089 0.0
    vertex 424.6041617348671 337.8056852633089 0.0
  endloop
endfacet
facet normal 0.0 0.0 -1.0
  outer loop
    vertex 424.6041617348671 337.8056852633089 0.0
    vertex 389.1041617348671 337.8056852633089 0.0
    vertex 393.1041617348671 337.8056852633089 0.0
  endloop
endfacet
facet normal 0.0 0.0 -1.0
  outer loop
    vertex 393.1041617348671 337.8056852633089 0.0
    vertex 389.1041617348671 337.8056852633089 0.0
    vertex 393.1041617348671 339.8056852633089 0.0
  endloop
endfacet
facet normal 0.0 0.0 1.0
  outer loop
    vertex 424.6041617348671 327.805685263309 1.9999999999999996
    vertex 424.6041617348671 336.80568526330893 1.9999999999999996
    vertex 422.60416173486715 334.80568526330893 1.9999999999999996
  endloop
endfacet
facet normal 0.0 0.0 1.0
  outer loop
    vertex 424.6041617348671 336.80568526330893 1.9999999999999996
    vertex 424.6041617348671 327.805685263309 1.9999999999999996
    vertex 425.6041617348671 327.805685263309 1.999999999999977
  endloop
endfacet
facet normal 0.0 0.0 1.0
  outer loop
    vertex 424.6041617348671 336.80568526330893 1.9999999999999996
    vertex 425.6041617348671 327.805685263309 1.999999999999977
    vertex 424.6041617348671 337.8056852633089 1.9999999999999996
  endloop
endfacet
facet normal 0.0 0.0 1.0
  outer loop
    vertex 424.6041617348671 337.8056852633089 1.9999999999999996
    vertex 425.6041617348671 327.805685263309 1.999999999999977
    vertex 425.6041617348671 337.8056852633089 1.999999999999977
  endloop
endfacet
facet normal 1.0 -2.578255069758099e-14 9.815908975812749e-30
  outer loop
    vertex 422.60416173486715 334.80568526330893 3.999999999999999
    vertex 422.604161734867 327.805685263309 3.999999999999999
    vertex 422.60416173486715 334.80568526330893 1.9999999999999996
  endloop
endfacet
facet normal 1.0 0.0 0.0
  outer loop
    vertex 422.604161734867 327.805685263309 1.9999999999999996
    vertex 422.604161734867 320.80568526330904 3.999999999999999
    vertex 422.604161734867 320.80568526330904 1.9999999999999996
  endloop
endfacet
facet normal 0.0 0.0 1.0
  outer loop
    vertex 425.60416173486686 317.805685263309 1.999999999999977
    vertex 424.6041617348668 318.805685263309 1.9999999999999996
    vertex 424.6041617348668 317.805685263309 1.9999999999999996
  endloop
endfacet
facet normal 0.0 0.0 1.0
  outer loop
    vertex 424.6041617348668 318.805685263309 1.9999999999999996
    vertex 425.60416173486686 317.805685263309 1.999999999999977
    vertex 424.6041617348671 327.805685263309 1.9999999999999996
  endloop
endfacet
facet normal 0.0 0.0 1.0
  outer loop
    vertex 424.6041617348671 327.805685263309 1.9999999999999996
    vertex 425.60416173486686 317.805685263309 1.999999999999977
    vertex 425.6041617348671 327.805685263309 1.999999999999977
  endloop
endfacet
facet normal 0.0 0.0 1.0
  outer loop
    vertex 424.6041617348671 327.805685263309 1.9999999999999996
    vertex 422.604161734867 327.805685263309 1.9999999999999996
    vertex 424.6041617348668 318.805685263309 1.9999999999999996
  endloop
endfacet
facet normal 1.0 -2.578255069758099e-14 -3.0939060837096864e-13
  outer loop
    vertex 422.60416173486715 334.80568526330893 3.999999999999999
    vertex 422.60416173486715 328.805685263309 4.499999999999999
    vertex 422.604161734867 327.805685263309 3.999999999999999
  endloop
endfacet
facet normal 1.0 0.0 0.0
  outer loop
    vertex 422.60416173486715 334.80568526330893 4.499999999999999
    vertex 422.60416173486715 328.805685263309 4.499999999999999
    vertex 422.60416173486715 334.80568526330893 3.999999999999999
  endloop
endfacet
facet normal 1.0 0.0 0.0
  outer loop
    vertex 422.604161734867 327.805685263309 3.999999999999999
    vertex 422.604161734867 320.80568526330904 4.499999999999999
    vertex 422.604161734867 320.80568526330904 3.999999999999999
  endloop
endfacet
facet normal 1.0 0.0 0.0
  outer loop
    vertex 422.604161734867 327.805685263309 3.999999999999999
    vertex 422.604161734867 326.805685263309 7.0
    vertex 422.604161734867 326.805685263309 4.499999999999999
  endloop
endfacet
facet normal 0.0 1.0 0.0
  outer loop
    vertex 420.9041617348672 334.80568526330893 7.0
    vertex 422.60416173486715 334.80568526330893 1.9999999999999996
    vertex 420.9041617348672 334.80568526330893 1.9999999999999996
  endloop
endfacet
facet normal 0.0 1.0 0.0
  outer loop
    vertex 422.60416173486715 334.80568526330893 1.9999999999999996
    vertex 420.9041617348672 334.80568526330893 7.0
    vertex 422.60416173486715 334.80568526330893 3.999999999999999
  endloop
endfacet
facet normal 0.0 1.0 0.0
  outer loop
    vertex 422.60416173486715 334.80568526330893 3.999999999999999
    vertex 420.9041617348672 334.80568526330893 7.0
    vertex 422.60416173486715 334.80568526330893 4.499999999999999
  endloop
endfacet
facet normal 0.0 1.0 0.0
  outer loop
    vertex 422.60416173486715 334.80568526330893 4.499999999999999
    vertex 420.9041617348672 334.80568526330893 7.0
    vertex 422.60416173486715 334.80568526330893 7.0
  endloop
endfacet
facet normal 1.0 0.0 0.0
  outer loop
    vertex 422.60416173486715 334.80568526330893 4.499999999999999
    vertex 422.60416173486715 328.805685263309 7.0
    vertex 422.60416173486715 328.805685263309 4.499999999999999
  endloop
endfacet
facet normal 0.0 -1.0 0.0
  outer loop
    vertex 422.604161734867 320.80568526330904 3.999999999999999
    vertex 420.904161734867 320.80568526330904 1.9999999999999996
    vertex 422.604161734867 320.80568526330904 1.9999999999999996
  endloop
endfacet
facet normal 0.0 -1.0 0.0
  outer loop
    vertex 420.904161734867 320.80568526330904 1.9999999999999996
    vertex 422.604161734867 320.80568526330904 3.999999999999999
    vertex 420.904161734867 320.80568526330904 7.0
  endloop
endfacet
facet normal 0.0 -1.0 0.0
  outer loop
    vertex 420.904161734867 320.80568526330904 7.0
    vertex 422.604161734867 320.80568526330904 3.999999999999999
    vertex 422.604161734867 320.80568526330904 4.499999999999999
  endloop
endfacet
facet normal 0.0 -1.0 0.0
  outer loop
    vertex 420.904161734867 320.80568526330904 7.0
    vertex 422.604161734867 320.80568526330904 4.499999999999999
    vertex 422.604161734867 320.80568526330904 7.0
  endloop
endfacet
facet normal 0.0 0.0 -1.0
  outer loop
    vertex 424.6041617348671 337.8056852633089 0.0
    vertex 425.60416173486686 317.805685263309 -2.2559731860383126e-14
    vertex 362.6041617348674 317.80568526330904 0.0
  endloop
endfacet
facet normal 0.0 0.0 -1.0
  outer loop
    vertex 425.60416173486686 317.805685263309 -2.2559731860383126e-14
    vertex 424.6041617348671 337.8056852633089 0.0
    vertex 425.6041617348671 337.8056852633089 -2.2559731860383126e-14
  endloop
endfacet
facet normal 0.0 0.0 1.0
  outer loop
    vertex 361.6041617348672 337.8056852633089 1.9999999999999996
    vertex 365.1041617348671 334.80568526330893 1.9999999999999996
    vertex 389.1041617348671 337.8056852633089 1.9999999999999996
  endloop
endfacet
facet normal 0.0 0.0 1.0
  outer loop
    vertex 365.1041617348671 334.80568526330893 1.9999999999999996
    vertex 361.6041617348672 337.8056852633089 1.9999999999999996
    vertex 361.6041617348674 317.80568526330904 1.9999999999999996
  endloop
endfacet
facet normal 0.0 0.0 1.0
  outer loop
    vertex 365.1041617348671 334.80568526330893 1.9999999999999996
    vertex 361.6041617348674 317.80568526330904 1.9999999999999996
    vertex 362.6041617348674 317.80568526330904 1.9999999999999996
  endloop
endfacet
facet normal 0.0 0.0 1.0
  outer loop
    vertex 365.1041617348671 334.80568526330893 1.9999999999999996
    vertex 362.6041617348674 317.80568526330904 1.9999999999999996
    vertex 365.1041617348671 320.805685263309 1.9999999999999996
  endloop
endfacet
facet normal 0.0 0.0 1.0
  outer loop
    vertex 389.1041617348671 337.8056852633089 1.9999999999999996
    vertex 365.1041617348671 334.80568526330893 1.9999999999999996
    vertex 366.80416173486714 334.80568526330893 1.9999999999999991
  endloop
endfacet
facet normal 0.0 0.0 1.0
  outer loop
    vertex 424.6041617348668 317.805685263309 1.9999999999999996
    vertex 365.1041617348671 320.805685263309 1.9999999999999996
    vertex 362.6041617348674 317.80568526330904 1.9999999999999996
  endloop
endfacet
facet normal 0.0 0.0 1.0
  outer loop
    vertex 365.1041617348671 320.805685263309 1.9999999999999996
    vertex 424.6041617348668 317.805685263309 1.9999999999999996
    vertex 366.80416173486714 320.805685263309 1.9999999999999991
  endloop
endfacet
facet normal 0.0 0.0 1.0
  outer loop
    vertex 366.80416173486714 320.805685263309 1.9999999999999991
    vertex 424.6041617348668 317.805685263309 1.9999999999999996
    vertex 366.80416173486714 334.80568526330893 1.9999999999999991
  endloop
endfacet
facet normal 0.0 0.0 1.0
  outer loop
    vertex 366.80416173486714 334.80568526330893 1.9999999999999991
    vertex 424.6041617348668 317.805685263309 1.9999999999999996
    vertex 389.1041617348671 337.8056852633089 1.9999999999999996
  endloop
endfacet
facet normal 0.0 0.0 1.0
  outer loop
    vertex 389.1041617348671 337.8056852633089 1.9999999999999996
    vertex 424.6041617348668 317.805685263309 1.9999999999999996
    vertex 389.1041617348671 339.8056852633089 1.9999999999999996
  endloop
endfacet
facet normal 0.0 0.0 1.0
  outer loop
    vertex 389.1041617348671 339.8056852633089 1.9999999999999996
    vertex 424.6041617348668 317.805685263309 1.9999999999999996
    vertex 393.1041617348671 337.8056852633089 1.9999999999999996
  endloop
endfacet
facet normal 0.0 0.0 1.0
  outer loop
    vertex 393.1041617348671 337.8056852633089 1.9999999999999996
    vertex 424.6041617348668 317.805685263309 1.9999999999999996
    vertex 420.904161734867 320.80568526330904 1.9999999999999996
  endloop
endfacet
facet normal 0.0 0.0 1.0
  outer loop
    vertex 420.904161734867 320.80568526330904 1.9999999999999996
    vertex 424.6041617348668 317.805685263309 1.9999999999999996
    vertex 424.6041617348668 318.805685263309 1.9999999999999996
  endloop
endfacet
facet normal 0.0 0.0 1.0
  outer loop
    vertex 393.1041617348671 337.8056852633089 1.9999999999999996
    vertex 420.9041617348672 334.80568526330893 1.9999999999999996
    vertex 424.6041617348671 337.8056852633089 1.9999999999999996
  endloop
endfacet
facet normal 0.0 0.0 1.0
  outer loop
    vertex 420.9041617348672 334.80568526330893 1.9999999999999996
    vertex 393.1041617348671 337.8056852633089 1.9999999999999996
    vertex 420.904161734867 320.80568526330904 1.9999999999999996
  endloop
endfacet
facet normal 0.0 0.0 1.0
  outer loop
    vertex 424.6041617348671 337.8056852633089 1.9999999999999996
    vertex 420.9041617348672 334.80568526330893 1.9999999999999996
    vertex 424.6041617348671 336.80568526330893 1.9999999999999996
  endloop
endfacet
facet normal 0.0 0.0 1.0
  outer loop
    vertex 393.1041617348671 339.8056852633089 1.9999999999999996
    vertex 389.1041617348671 339.8056852633089 1.9999999999999996
    vertex 393.1041617348671 337.8056852633089 1.9999999999999996
  endloop
endfacet
facet normal 1.0 -2.5782550697580993e-14 -9.815908975812753e-30
  outer loop
    vertex 422.60416173486715 334.80568526330893 1.9999999999999996
    vertex 422.604161734867 327.805685263309 3.999999999999999
    vertex 422.604161734867 327.805685263309 1.9999999999999996
  endloop
endfacet
facet normal 1.0 -1.8047785488306574e-13 -9.619590796296363e-30
  outer loop
    vertex 422.60416173486715 328.805685263309 7.0
    vertex 422.604161734867 327.805685263309 3.999999999999999
    vertex 422.60416173486715 328.805685263309 4.499999999999999
  endloop
endfacet
facet normal 1.0 0.0 0.0
  outer loop
    vertex 422.60416173486715 334.80568526330893 7.0
    vertex 422.60416173486715 328.805685263309 7.0
    vertex 422.60416173486715 334.80568526330893 4.499999999999999
  endloop
endfacet
facet normal 0.0 0.0 1.0
  outer loop
    vertex 424.6041617348668 318.805685263309 1.9999999999999996
    vertex 422.604161734867 320.80568526330904 1.9999999999999996
    vertex 420.904161734867 320.80568526330904 1.9999999999999996
  endloop
endfacet
facet normal 0.0 0.0 1.0
  outer loop
    vertex 422.604161734867 320.80568526330904 7.0
    vertex 420.9041617348672 334.80568526330893 7.0
    vertex 420.904161734867 320.80568526330904 7.0
  endloop
endfacet
facet normal 0.0 0.0 1.0
  outer loop
    vertex 420.9041617348672 334.80568526330893 7.0
    vertex 422.604161734867 320.80568526330904 7.0
    vertex 422.604161734867 326.805685263309 7.0
  endloop
endfacet
facet normal 0.0 0.0 1.0
  outer loop
    vertex 420.9041617348672 334.80568526330893 7.0
    vertex 422.604161734867 326.805685263309 7.0
    vertex 422.60416173486715 334.80568526330893 7.0
  endloop
endfacet
facet normal 0.0 0.0 1.0
  outer loop
    vertex 422.60416173486715 334.80568526330893 7.0
    vertex 422.604161734867 326.805685263309 7.0
    vertex 422.60416173486715 328.805685263309 7.0
  endloop
endfacet
facet normal 1.0 0.0 0.0
  outer loop
    vertex 422.604161734867 327.805685263309 3.999999999999999
    vertex 422.604161734867 320.80568526330904 3.999999999999999
    vertex 422.604161734867 327.805685263309 1.9999999999999996
  endloop
endfacet
facet normal 1.0 -9.023892744153288e-14 -3.007964248051089e-14
  outer loop
    vertex 422.60416173486715 328.805685263309 7.0
    vertex 422.604161734867 326.805685263309 7.0
    vertex 422.604161734867 327.805685263309 3.999999999999999
  endloop
endfacet
facet normal 1.0 0.0 0.0
  outer loop
    vertex 422.604161734867 327.805685263309 3.999999999999999
    vertex 422.604161734867 326.805685263309 4.499999999999999
    vertex 422.604161734867 320.80568526330904 4.499999999999999
  endloop
endfacet
facet normal 0.0 0.0 1.0
  outer loop
    vertex 424.6041617348668 318.805685263309 1.9999999999999996
    vertex 422.604161734867 327.805685263309 1.9999999999999996
    vertex 422.604161734867 320.80568526330904 1.9999999999999996
  endloop
endfacet
facet normal 1.0 0.0 0.0
  outer loop
    vertex 422.604161734867 326.805685263309 7.0
    vertex 422.604161734867 320.80568526330904 7.0
    vertex 422.604161734867 326.805685263309 4.499999999999999
  endloop
endfacet
facet normal 0.0 1.0 0.0
  outer loop
    vertex 361.6041617348672 337.8056852633089 1.9999999999999996
    vertex 389.1041617348671 337.8056852633089 0.0
    vertex 361.6041617348672 337.8056852633089 0.0
  endloop
endfacet
facet normal 0.0 1.0 0.0
  outer loop
    vertex 389.1041617348671 337.8056852633089 0.0
    vertex 361.6041617348672 337.8056852633089 1.9999999999999996
    vertex 389.1041617348671 337.8056852633089 1.9999999999999996
  endloop
endfacet
facet normal 1.0 0.0 0.0
  outer loop
    vertex 422.604161734867 326.805685263309 4.499999999999999
    vertex 422.604161734867 320.80568526330904 7.0
    vertex 422.604161734867 320.80568526330904 4.499999999999999
  endloop
endfacet
facet normal 0.0 1.0 0.0
  outer loop
    vertex 365.1041617348671 334.80568526330893 1.9999999999999996
    vertex 366.80416173486714 334.80568526330893 7.0
    vertex 366.80416173486714 334.80568526330893 1.9999999999999991
  endloop
endfacet
facet normal 0.0 1.0 0.0
  outer loop
    vertex 366.80416173486714 334.80568526330893 7.0
    vertex 365.1041617348671 334.80568526330893 1.9999999999999996
    vertex 365.1041617348671 334.80568526330893 7.0
  endloop
endfacet
facet normal -1.0 0.0 0.0
  outer loop
    vertex 365.1041617348671 334.80568526330893 7.0
    vertex 365.1041617348671 320.805685263309 1.9999999999999996
    vertex 365.1041617348671 320.805685263309 7.0
  endloop
endfacet
facet normal -1.0 0.0 0.0
  outer loop
    vertex 365.1041617348671 320.805685263309 1.9999999999999996
    vertex 365.1041617348671 334.80568526330893 7.0
    vertex 365.1041617348671 334.80568526330893 1.9999999999999996
  endloop
endfacet
facet normal 0.0 0.0 1.0
  outer loop
    vertex 366.80416173486714 320.805685263309 7.0
    vertex 365.1041617348671 334.80568526330893 7.0
    vertex 365.1041617348671 320.805685263309 7.0
  endloop
endfacet
facet normal 0.0 0.0 1.0
  outer loop
    vertex 365.1041617348671 334.80568526330893 7.0
    vertex 366.80416173486714 320.805685263309 7.0
    vertex 366.80416173486714 334.80568526330893 7.0
  endloop
endfacet
facet normal -1.0 -1.0026547493503703e-14 0.0
  outer loop
    vertex 361.6041617348672 337.8056852633089 1.9999999999999996
    vertex 361.6041617348674 317.80568526330904 0.0
    vertex 361.6041617348674 317.80568526330904 1.9999999999999996
  endloop
endfacet
facet normal -1.0 -1.0026547493503703e-14 0.0
  outer loop
    vertex 361.6041617348674 317.80568526330904 0.0
    vertex 361.6041617348672 337.8056852633089 1.9999999999999996
    vertex 361.6041617348672 337.8056852633089 0.0
  endloop
endfacet
facet normal 1.0 0.0 0.0
  outer loop
    vertex 366.80416173486714 334.80568526330893 1.9999999999999991
    vertex 366.80416173486714 320.805685263309 7.0
    vertex 366.80416173486714 320.805685263309 1.9999999999999991
  endloop
endfacet
facet normal 1.0 0.0 0.0
  outer loop
    vertex 366.80416173486714 320.805685263309 7.0
    vertex 366.80416173486714 334.80568526330893 1.9999999999999991
    vertex 366.80416173486714 334.80568526330893 7.0
  endloop
endfacet
facet normal 0.0 -1.0 0.0
  outer loop
    vertex 366.80416173486714 320.805685263309 7.0
    vertex 365.1041617348671 320.805685263309 1.9999999999999996
    vertex 366.80416173486714 320.805685263309 1.9999999999999991
  endloop
endfacet
facet normal 0.0 -1.0 0.0
  outer loop
    vertex 365.1041617348671 320.805685263309 1.9999999999999996
    vertex 366.80416173486714 320.805685263309 7.0
    vertex 365.1041617348671 320.805685263309 7.0
  endloop
endfacet
facet normal 2.3499720687898836e-16 0.0 1.0
  outer loop
    vertex 366.80416173486714 320.805685263309 1.9999999999999991
    vertex 365.1041617348671 334.80568526330893 1.9999999999999996
    vertex 365.1041617348671 320.805685263309 1.9999999999999996
  endloop
endfacet
facet normal 2.3499720687898836e-16 0.0 1.0
  outer loop
    vertex 365.1041617348671 334.80568526330893 1.9999999999999996
    vertex 366.80416173486714 320.805685263309 1.9999999999999991
    vertex 366.80416173486714 334.80568526330893 1.9999999999999991
  endloop
endfacet
facet normal -1.0 1.2891275348790495e-14 0.0
  outer loop
    vertex 420.9041617348672 334.80568526330893 7.0
    vertex 420.904161734867 320.80568526330904 1.9999999999999996
    vertex 420.904161734867 320.80568526330904 7.0
  endloop
endfacet
facet normal -1.0 1.2891275348790495e-14 0.0
  outer loop
    vertex 420.904161734867 320.80568526330904 1.9999999999999996
    vertex 420.9041617348672 334.80568526330893 7.0
    vertex 420.9041617348672 334.80568526330893 1.9999999999999996
  endloop
endfacet
facet normal -7.277332858188189e-16 -1.0 0.0
  outer loop
    vertex 425.60416173486686 317.805685263309 1.999999999999977
    vertex 362.6041617348674 317.80568526330904 0.0
    vertex 425.60416173486686 317.805685263309 -2.2559731860383126e-14
  endloop
endfacet
facet normal -7.277332858188189e-16 -1.0 0.0
  outer loop
    vertex 362.6041617348674 317.80568526330904 0.0
    vertex 425.60416173486686 317.805685263309 1.999999999999977
    vertex 361.6041617348674 317.80568526330904 0.0
  endloop
endfacet
facet normal -7.277332858188189e-16 -1.0 0.0
  outer loop
    vertex 361.6041617348674 317.80568526330904 0.0
    vertex 425.60416173486686 317.805685263309 1.999999999999977
    vertex 361.6041617348674 317.80568526330904 1.9999999999999996
  endloop
endfacet
facet normal -7.277332858188189e-16 -1.0 0.0
  outer loop
    vertex 361.6041617348674 317.80568526330904 1.9999999999999996
    vertex 425.60416173486686 317.805685263309 1.999999999999977
    vertex 424.6041617348668 317.805685263309 1.9999999999999996
  endloop
endfacet
facet normal -7.277332858188189e-16 -1.0 0.0
  outer loop
    vertex 361.6041617348674 317.80568526330904 1.9999999999999996
    vertex 424.6041617348668 317.805685263309 1.9999999999999996
    vertex 362.6041617348674 317.80568526330904 1.9999999999999996
  endloop
endfacet
facet normal 0.0 1.0 0.0
  outer loop
    vertex 393.1041617348671 337.8056852633089 1.9999999999999996
    vertex 424.6041617348671 337.8056852633089 0.0
    vertex 393.1041617348671 337.8056852633089 0.0
  endloop
endfacet
facet normal 0.0 1.0 0.0
  outer loop
    vertex 424.6041617348671 337.8056852633089 0.0
    vertex 393.1041617348671 337.8056852633089 1.9999999999999996
    vertex 425.6041617348671 337.8056852633089 1.999999999999977
  endloop
endfacet
facet normal 0.0 1.0 0.0
  outer loop
    vertex 425.6041617348671 337.8056852633089 1.999999999999977
    vertex 393.1041617348671 337.8056852633089 1.9999999999999996
    vertex 424.6041617348671 337.8056852633089 1.9999999999999996
  endloop
endfacet
facet normal 0.0 1.0 0.0
  outer loop
    vertex 425.6041617348671 337.8056852633089 1.999999999999977
    vertex 425.6041617348671 337.8056852633089 -2.2559731860383126e-14
    vertex 424.6041617348671 337.8056852633089 0.0
  endloop
endfacet
facet normal 0.0 1.0 0.0
  outer loop
    vertex 389.1041617348671 339.8056852633089 1.9999999999999996
    vertex 393.1041617348671 339.8056852633089 0.0
    vertex 389.1041617348671 339.8056852633089 0.0
  endloop
endfacet
facet normal 0.0 1.0 0.0
  outer loop
    vertex 393.1041617348671 339.8056852633089 0.0
    vertex 389.1041617348671 339.8056852633089 1.9999999999999996
    vertex 393.1041617348671 339.8056852633089 1.9999999999999996
  endloop
endfacet
facet normal -1.0 0.0 0.0
  outer loop
    vertex 389.1041617348671 339.8056852633089 1.9999999999999996
    vertex 389.1041617348671 337.8056852633089 0.0
    vertex 389.1041617348671 337.8056852633089 1.9999999999999996
  endloop
endfacet
facet normal -1.0 0.0 0.0
  outer loop
    vertex 389.1041617348671 337.8056852633089 0.0
    vertex 389.1041617348671 339.8056852633089 1.9999999999999996
    vertex 389.1041617348671 339.8056852633089 0.0
  endloop
endfacet
facet normal 1.0 0.0 0.0
  outer loop
    vertex 393.1041617348671 339.8056852633089 0.0
    vertex 393.1041617348671 337.8056852633089 1.9999999999999996
    vertex 393.1041617348671 337.8056852633089 0.0
  endloop
endfacet
facet normal 1.0 0.0 0.0
  outer loop
    vertex 393.1041617348671 337.8056852633089 1.9999999999999996
    vertex 393.1041617348671 339.8056852633089 0.0
    vertex 393.1041617348671 339.8056852633089 1.9999999999999996
  endloop
endfacet
endsolid ModelosHolderBuenos
