solid Untitled-577cda64
facet normal 1.0 0.0 0.0
  outer loop
    vertex 146.94648364306636 117.26637635759111 0.0
    vertex 146.94648364306636 87.26637635759111 3.0
    vertex 146.94648364306636 87.26637635759111 0.0
  endloop
endfacet
facet normal 1.0 0.0 0.0
  outer loop
    vertex 146.94648364306636 87.26637635759111 3.0
    vertex 146.94648364306636 117.26637635759111 0.0
    vertex 146.94648364306636 117.26637635759111 3.0
  endloop
endfacet
facet normal -0.0 -1.0 -0.0
  outer loop
    vertex 146.94648364306636 87.26637635759111 3.0
    vertex 116.94648364306636 87.26637635759111 0.0
    vertex 146.94648364306636 87.26637635759111 0.0
  endloop
endfacet
facet normal -0.0 -1.0 -0.0
  outer loop
    vertex 116.94648364306636 87.26637635759111 0.0
    vertex 146.94648364306636 87.26637635759111 3.0
    vertex 116.94648364306636 87.26637635759111 3.0
  endloop
endfacet
facet normal -0.0 -1.0 -0.0
  outer loop
    vertex 116.94648364306636 87.26637635759111 3.0
    vertex 146.94648364306636 87.26637635759111 3.0
    vertex 135.69648364306636 87.26637635759111 3.0
  endloop
endfacet
facet normal -0.0 -1.0 -0.0
  outer loop
    vertex 116.94648364306636 87.26637635759111 3.0
    vertex 135.69648364306636 87.26637635759111 3.0
    vertex 128.19648364306636 87.26637635759111 3.0
  endloop
endfacet
facet normal 0.0 1.0 0.0
  outer loop
    vertex 124.94648364306634 109.26637635759113 0.9999999999999999
    vertex 138.94648364306636 109.26637635759113 0.0
    vertex 124.94648364306634 109.26637635759113 0.0
  endloop
endfacet
facet normal 0.0 1.0 0.0
  outer loop
    vertex 138.94648364306636 109.26637635759113 0.0
    vertex 124.94648364306634 109.26637635759113 0.9999999999999999
    vertex 138.94648364306636 109.26637635759113 0.9999999999999999
  endloop
endfacet
facet normal 0.0 -1.0 0.0
  outer loop
    vertex 138.94648364306636 95.26637635759111 0.9999999999999999
    vertex 135.69648364306636 95.26637635759111 0.0
    vertex 138.94648364306636 95.26637635759111 0.0
  endloop
endfacet
facet normal 0.0 -1.0 0.0
  outer loop
    vertex 135.69648364306636 95.26637635759111 0.0
    vertex 138.94648364306636 95.26637635759111 0.9999999999999999
    vertex 135.69648364306636 95.26637635759111 0.9999999999999999
  endloop
endfacet
facet normal 0.0 1.0 0.0
  outer loop
    vertex 116.94648364306636 117.26637635759111 3.0
    vertex 146.94648364306636 117.26637635759111 0.0
    vertex 116.94648364306636 117.26637635759111 0.0
  endloop
endfacet
facet normal 0.0 1.0 0.0
  outer loop
    vertex 146.94648364306636 117.26637635759111 0.0
    vertex 116.94648364306636 117.26637635759111 3.0
    vertex 146.94648364306636 117.26637635759111 3.0
  endloop
endfacet
facet normal -1.0 0.0 0.0
  outer loop
    vertex 116.94648364306636 117.26637635759111 3.0
    vertex 116.94648364306636 87.26637635759111 0.0
    vertex 116.94648364306636 87.26637635759111 3.0
  endloop
endfacet
facet normal -1.0 0.0 0.0
  outer loop
    vertex 116.94648364306636 87.26637635759111 0.0
    vertex 116.94648364306636 117.26637635759111 3.0
    vertex 116.94648364306636 117.26637635759111 0.0
  endloop
endfacet
facet normal 1.0 0.0 0.0
  outer loop
    vertex 138.94648364306636 109.26637635759113 0.0
    vertex 138.94648364306636 95.26637635759111 0.9999999999999999
    vertex 138.94648364306636 95.26637635759111 0.0
  endloop
endfacet
facet normal 1.0 0.0 0.0
  outer loop
    vertex 138.94648364306636 95.26637635759111 0.9999999999999999
    vertex 138.94648364306636 109.26637635759113 0.0
    vertex 138.94648364306636 109.26637635759113 0.9999999999999999
  endloop
endfacet
facet normal 0.0 0.0 -1.0
  outer loop
    vertex 123.94648364306636 110.26637635759113 0.9999999999999999
    vertex 124.94648364306634 109.26637635759113 0.9999999999999999
    vertex 123.94648364306636 94.26637635759111 0.9999999999999999
  endloop
endfacet
facet normal 0.0 0.0 -1.0
  outer loop
    vertex 124.94648364306634 109.26637635759113 0.9999999999999999
    vertex 123.94648364306636 110.26637635759113 0.9999999999999999
    vertex 139.9464836430664 110.26637635759113 0.9999999999999999
  endloop
endfacet
facet normal 0.0 0.0 -1.0
  outer loop
    vertex 124.94648364306634 109.26637635759113 0.9999999999999999
    vertex 139.9464836430664 110.26637635759113 0.9999999999999999
    vertex 138.94648364306636 109.26637635759113 0.9999999999999999
  endloop
endfacet
facet normal 0.0 0.0 -1.0
  outer loop
    vertex 138.94648364306636 109.26637635759113 0.9999999999999999
    vertex 139.9464836430664 110.26637635759113 0.9999999999999999
    vertex 138.94648364306636 95.26637635759111 0.9999999999999999
  endloop
endfacet
facet normal 0.0 0.0 -1.0
  outer loop
    vertex 138.94648364306636 95.26637635759111 0.9999999999999999
    vertex 135.69648364306636 94.26637635759111 0.9999999999999999
    vertex 135.69648364306636 95.26637635759111 0.9999999999999999
  endloop
endfacet
facet normal 0.0 0.0 -1.0
  outer loop
    vertex 135.69648364306636 94.26637635759111 0.9999999999999999
    vertex 138.94648364306636 95.26637635759111 0.9999999999999999
    vertex 139.9464836430664 94.26637635759111 0.9999999999999999
  endloop
endfacet
facet normal 0.0 0.0 -1.0
  outer loop
    vertex 139.9464836430664 94.26637635759111 0.9999999999999999
    vertex 138.94648364306636 95.26637635759111 0.9999999999999999
    vertex 139.9464836430664 110.26637635759113 0.9999999999999999
  endloop
endfacet
facet normal 0.0 0.0 -1.0
  outer loop
    vertex 123.94648364306636 94.26637635759111 0.9999999999999999
    vertex 124.94648364306634 95.26637635759111 0.9999999999999999
    vertex 128.19648364306636 94.26637635759111 0.9999999999999999
  endloop
endfacet
facet normal 0.0 0.0 -1.0
  outer loop
    vertex 124.94648364306634 95.26637635759111 0.9999999999999999
    vertex 123.94648364306636 94.26637635759111 0.9999999999999999
    vertex 124.94648364306634 109.26637635759113 0.9999999999999999
  endloop
endfacet
facet normal 0.0 0.0 -1.0
  outer loop
    vertex 128.19648364306636 94.26637635759111 0.9999999999999999
    vertex 124.94648364306634 95.26637635759111 0.9999999999999999
    vertex 128.19648364306636 95.26637635759111 0.9999999999999999
  endloop
endfacet
facet normal 0.0 0.0 -1.0
  outer loop
    vertex 138.94648364306636 95.26637635759111 0.0
    vertex 135.69648364306636 91.5163763575911 0.0
    vertex 135.69648364306636 95.26637635759111 0.0
  endloop
endfacet
facet normal 0.0 0.0 -1.0
  outer loop
    vertex 116.94648364306636 117.26637635759111 0.0
    vertex 124.94648364306634 109.26637635759113 0.0
    vertex 116.94648364306636 87.26637635759111 0.0
  endloop
endfacet
facet normal 0.0 0.0 -1.0
  outer loop
    vertex 124.94648364306634 109.26637635759113 0.0
    vertex 116.94648364306636 117.26637635759111 0.0
    vertex 146.94648364306636 117.26637635759111 0.0
  endloop
endfacet
facet normal 0.0 0.0 -1.0
  outer loop
    vertex 124.94648364306634 109.26637635759113 0.0
    vertex 146.94648364306636 117.26637635759111 0.0
    vertex 138.94648364306636 109.26637635759113 0.0
  endloop
endfacet
facet normal 0.0 0.0 -1.0
  outer loop
    vertex 138.94648364306636 109.26637635759113 0.0
    vertex 146.94648364306636 117.26637635759111 0.0
    vertex 138.94648364306636 95.26637635759111 0.0
  endloop
endfacet
facet normal 0.0 0.0 -1.0
  outer loop
    vertex 116.94648364306636 87.26637635759111 0.0
    vertex 128.19648364306636 91.5163763575911 0.0
    vertex 146.94648364306636 87.26637635759111 0.0
  endloop
endfacet
facet normal 0.0 0.0 -1.0
  outer loop
    vertex 128.19648364306636 91.5163763575911 0.0
    vertex 116.94648364306636 87.26637635759111 0.0
    vertex 124.94648364306634 95.26637635759111 0.0
  endloop
endfacet
facet normal 0.0 0.0 -1.0
  outer loop
    vertex 124.94648364306634 95.26637635759111 0.0
    vertex 116.94648364306636 87.26637635759111 0.0
    vertex 124.94648364306634 109.26637635759113 0.0
  endloop
endfacet
facet normal 0.0 0.0 -1.0
  outer loop
    vertex 128.19648364306636 91.5163763575911 0.0
    vertex 124.94648364306634 95.26637635759111 0.0
    vertex 128.19648364306636 95.26637635759111 0.0
  endloop
endfacet
facet normal 0.0 0.0 -1.0
  outer loop
    vertex 146.94648364306636 87.26637635759111 0.0
    vertex 128.19648364306636 91.5163763575911 0.0
    vertex 135.69648364306636 91.5163763575911 0.0
  endloop
endfacet
facet normal 0.0 0.0 -1.0
  outer loop
    vertex 146.94648364306636 87.26637635759111 0.0
    vertex 135.69648364306636 91.5163763575911 0.0
    vertex 138.94648364306636 95.26637635759111 0.0
  endloop
endfacet
facet normal 0.0 0.0 -1.0
  outer loop
    vertex 146.94648364306636 87.26637635759111 0.0
    vertex 138.94648364306636 95.26637635759111 0.0
    vertex 146.94648364306636 117.26637635759111 0.0
  endloop
endfacet
facet normal 0.0 1.0 0.0
  outer loop
    vertex 123.94648364306636 94.26637635759111 3.0
    vertex 128.19648364306636 94.26637635759111 0.9999999999999999
    vertex 123.94648364306636 94.26637635759111 0.9999999999999999
  endloop
endfacet
facet normal 0.0 1.0 0.0
  outer loop
    vertex 128.19648364306636 94.26637635759111 0.9999999999999999
    vertex 123.94648364306636 94.26637635759111 3.0
    vertex 128.19648364306636 94.26637635759111 3.0
  endloop
endfacet
facet normal 1.0 0.0 0.0
  outer loop
    vertex 123.94648364306636 110.26637635759113 0.9999999999999999
    vertex 123.94648364306636 94.26637635759111 3.0
    vertex 123.94648364306636 94.26637635759111 0.9999999999999999
  endloop
endfacet
facet normal 1.0 0.0 0.0
  outer loop
    vertex 123.94648364306636 94.26637635759111 3.0
    vertex 123.94648364306636 110.26637635759113 0.9999999999999999
    vertex 123.94648364306636 110.26637635759113 3.0
  endloop
endfacet
facet normal 0.0 -1.0 0.0
  outer loop
    vertex 139.9464836430664 110.26637635759113 3.0
    vertex 123.94648364306636 110.26637635759113 0.9999999999999999
    vertex 139.9464836430664 110.26637635759113 0.9999999999999999
  endloop
endfacet
facet normal 0.0 -1.0 0.0
  outer loop
    vertex 123.94648364306636 110.26637635759113 0.9999999999999999
    vertex 139.9464836430664 110.26637635759113 3.0
    vertex 123.94648364306636 110.26637635759113 3.0
  endloop
endfacet
facet normal -1.0 0.0 0.0
  outer loop
    vertex 139.9464836430664 110.26637635759113 3.0
    vertex 139.9464836430664 94.26637635759111 0.9999999999999999
    vertex 139.9464836430664 94.26637635759111 3.0
  endloop
endfacet
facet normal -1.0 0.0 0.0
  outer loop
    vertex 139.9464836430664 94.26637635759111 0.9999999999999999
    vertex 139.9464836430664 110.26637635759113 3.0
    vertex 139.9464836430664 110.26637635759113 0.9999999999999999
  endloop
endfacet
facet normal 0.0 1.0 0.0
  outer loop
    vertex 135.69648364306636 94.26637635759111 3.0
    vertex 139.9464836430664 94.26637635759111 0.9999999999999999
    vertex 135.69648364306636 94.26637635759111 0.9999999999999999
  endloop
endfacet
facet normal 0.0 1.0 0.0
  outer loop
    vertex 139.9464836430664 94.26637635759111 0.9999999999999999
    vertex 135.69648364306636 94.26637635759111 3.0
    vertex 139.9464836430664 94.26637635759111 3.0
  endloop
endfacet
facet normal 1.0 0.0 0.0
  outer loop
    vertex 135.69648364306636 95.26637635759111 0.0
    vertex 135.69648364306636 91.5163763575911 3.0
    vertex 135.69648364306636 91.5163763575911 0.0
  endloop
endfacet
facet normal 1.0 0.0 0.0
  outer loop
    vertex 135.69648364306636 91.5163763575911 3.0
    vertex 135.69648364306636 95.26637635759111 0.0
    vertex 135.69648364306636 94.26637635759111 0.9999999999999999
  endloop
endfacet
facet normal 1.0 0.0 0.0
  outer loop
    vertex 135.69648364306636 94.26637635759111 0.9999999999999999
    vertex 135.69648364306636 95.26637635759111 0.0
    vertex 135.69648364306636 95.26637635759111 0.9999999999999999
  endloop
endfacet
facet normal 1.0 0.0 0.0
  outer loop
    vertex 135.69648364306636 94.26637635759111 3.0
    vertex 135.69648364306636 91.5163763575911 3.0
    vertex 135.69648364306636 94.26637635759111 0.9999999999999999
  endloop
endfacet
facet normal -1.0 -0.0 -0.0
  outer loop
    vertex 124.94648364306634 109.26637635759113 0.9999999999999999
    vertex 124.94648364306634 95.26637635759111 0.0
    vertex 124.94648364306634 95.26637635759111 0.9999999999999999
  endloop
endfacet
facet normal -1.0 -0.0 -0.0
  outer loop
    vertex 124.94648364306634 95.26637635759111 0.0
    vertex 124.94648364306634 109.26637635759113 0.9999999999999999
    vertex 124.94648364306634 109.26637635759113 0.0
  endloop
endfacet
facet normal -1.0 0.0 0.0
  outer loop
    vertex 128.19648364306636 94.26637635759111 3.0
    vertex 128.19648364306636 91.5163763575911 0.0
    vertex 128.19648364306636 91.5163763575911 3.0
  endloop
endfacet
facet normal -1.0 0.0 0.0
  outer loop
    vertex 128.19648364306636 91.5163763575911 0.0
    vertex 128.19648364306636 94.26637635759111 3.0
    vertex 128.19648364306636 94.26637635759111 0.9999999999999999
  endloop
endfacet
facet normal -1.0 0.0 0.0
  outer loop
    vertex 128.19648364306636 91.5163763575911 0.0
    vertex 128.19648364306636 94.26637635759111 0.9999999999999999
    vertex 128.19648364306636 95.26637635759111 0.0
  endloop
endfacet
facet normal -1.0 0.0 0.0
  outer loop
    vertex 128.19648364306636 95.26637635759111 0.0
    vertex 128.19648364306636 94.26637635759111 0.9999999999999999
    vertex 128.19648364306636 95.26637635759111 0.9999999999999999
  endloop
endfacet
facet normal 0.0 -1.0 0.0
  outer loop
    vertex 128.19648364306636 95.26637635759111 0.9999999999999999
    vertex 124.94648364306634 95.26637635759111 0.0
    vertex 128.19648364306636 95.26637635759111 0.0
  endloop
endfacet
facet normal 0.0 -1.0 0.0
  outer loop
    vertex 124.94648364306634 95.26637635759111 0.0
    vertex 128.19648364306636 95.26637635759111 0.9999999999999999
    vertex 124.94648364306634 95.26637635759111 0.9999999999999999
  endloop
endfacet
facet normal 1.0 0.0 0.0
  outer loop
    vertex 135.69648364306636 91.5163763575911 3.0
    vertex 135.69648364306636 87.26637635759111 3.0
    vertex 135.69648364306636 91.5163763575911 0.0
  endloop
endfacet
facet normal 0.0 0.0 1.0
  outer loop
    vertex 116.94648364306636 87.26637635759111 3.0
    vertex 123.94648364306636 94.26637635759111 3.0
    vertex 116.94648364306636 117.26637635759111 3.0
  endloop
endfacet
facet normal 0.0 0.0 1.0
  outer loop
    vertex 123.94648364306636 94.26637635759111 3.0
    vertex 116.94648364306636 87.26637635759111 3.0
    vertex 128.19648364306636 87.26637635759111 3.0
  endloop
endfacet
facet normal 0.0 0.0 1.0
  outer loop
    vertex 123.94648364306636 94.26637635759111 3.0
    vertex 128.19648364306636 87.26637635759111 3.0
    vertex 128.19648364306636 94.26637635759111 3.0
  endloop
endfacet
facet normal 0.0 0.0 1.0
  outer loop
    vertex 128.19648364306636 94.26637635759111 3.0
    vertex 128.19648364306636 87.26637635759111 3.0
    vertex 128.19648364306636 91.5163763575911 3.0
  endloop
endfacet
facet normal 0.0 0.0 1.0
  outer loop
    vertex 146.94648364306636 87.26637635759111 3.0
    vertex 135.69648364306636 91.5163763575911 3.0
    vertex 135.69648364306636 87.26637635759111 3.0
  endloop
endfacet
facet normal 0.0 0.0 1.0
  outer loop
    vertex 135.69648364306636 91.5163763575911 3.0
    vertex 146.94648364306636 87.26637635759111 3.0
    vertex 135.69648364306636 94.26637635759111 3.0
  endloop
endfacet
facet normal 0.0 0.0 1.0
  outer loop
    vertex 135.69648364306636 94.26637635759111 3.0
    vertex 146.94648364306636 87.26637635759111 3.0
    vertex 139.9464836430664 94.26637635759111 3.0
  endloop
endfacet
facet normal 0.0 0.0 1.0
  outer loop
    vertex 139.9464836430664 94.26637635759111 3.0
    vertex 146.94648364306636 87.26637635759111 3.0
    vertex 139.9464836430664 110.26637635759113 3.0
  endloop
endfacet
facet normal 0.0 0.0 1.0
  outer loop
    vertex 116.94648364306636 117.26637635759111 3.0
    vertex 123.94648364306636 110.26637635759113 3.0
    vertex 146.94648364306636 117.26637635759111 3.0
  endloop
endfacet
facet normal 0.0 0.0 1.0
  outer loop
    vertex 123.94648364306636 110.26637635759113 3.0
    vertex 116.94648364306636 117.26637635759111 3.0
    vertex 123.94648364306636 94.26637635759111 3.0
  endloop
endfacet
facet normal 0.0 0.0 1.0
  outer loop
    vertex 146.94648364306636 117.26637635759111 3.0
    vertex 123.94648364306636 110.26637635759113 3.0
    vertex 139.9464836430664 110.26637635759113 3.0
  endloop
endfacet
facet normal 0.0 0.0 1.0
  outer loop
    vertex 146.94648364306636 117.26637635759111 3.0
    vertex 139.9464836430664 110.26637635759113 3.0
    vertex 146.94648364306636 87.26637635759111 3.0
  endloop
endfacet
facet normal -1.0 0.0 0.0
  outer loop
    vertex 128.19648364306636 91.5163763575911 0.0
    vertex 128.19648364306636 87.26637635759111 3.0
    vertex 128.19648364306636 91.5163763575911 3.0
  endloop
endfacet
facet normal 0.0 -0.576683197598656 -0.8169678632647611
  outer loop
    vertex 135.69648364306636 91.5163763575911 0.0
    vertex 128.19648364306636 87.26637635759111 3.0
    vertex 128.19648364306636 91.5163763575911 0.0
  endloop
endfacet
facet normal 0.0 -0.576683197598656 -0.8169678632647611
  outer loop
    vertex 128.19648364306636 87.26637635759111 3.0
    vertex 135.69648364306636 91.5163763575911 0.0
    vertex 135.69648364306636 87.26637635759111 3.0
  endloop
endfacet
endsolid Untitled-577cda64
