solid ModelosHolderBuenos
facet normal 0.0 0.0 -1.0
  outer loop
    vertex 433.1790487734106 309.1806997272101 0.0
    vertex 371.1790487734109 291.1806997272102 0.0
    vertex 371.1790487734107 309.18069972721 0.0
  endloop
endfacet
facet normal 0.0 0.0 -1.0
  outer loop
    vertex 371.1790487734109 291.1806997272102 0.0
    vertex 433.1790487734106 309.1806997272101 0.0
    vertex 433.17904877341044 291.18069972721014 0.0
  endloop
endfacet
facet normal -7.277332858188131e-16 1.0 0.0
  outer loop
    vertex 371.1790487734107 309.18069972721 1.9999999999999998
    vertex 433.1790487734106 309.1806997272101 0.0
    vertex 371.1790487734107 309.18069972721 0.0
  endloop
endfacet
facet normal -7.277332858188131e-16 1.0 0.0
  outer loop
    vertex 433.1790487734106 309.1806997272101 0.0
    vertex 371.1790487734107 309.18069972721 1.9999999999999998
    vertex 433.1790487734106 309.1806997272101 1.9999999999999998
  endloop
endfacet
facet normal 0.0 0.0 1.0
  outer loop
    vertex 433.17904877341056 300.18069972721014 1.9999999999999998
    vertex 431.17904877341067 301.18069972721014 1.9999999999999998
    vertex 431.17904877341056 300.18069972721014 1.9999999999999998
  endloop
endfacet
facet normal 0.0 0.0 1.0
  outer loop
    vertex 371.1790487734109 291.1806997272102 1.9999999999999998
    vertex 433.1790487734106 309.1806997272101 1.9999999999999998
    vertex 371.1790487734107 309.18069972721 1.9999999999999998
  endloop
endfacet
facet normal 0.0 0.0 1.0
  outer loop
    vertex 433.1790487734106 309.1806997272101 1.9999999999999998
    vertex 371.1790487734109 291.1806997272102 1.9999999999999998
    vertex 429.42904877341067 301.18069972721014 1.9999999999999998
  endloop
endfacet
facet normal 0.0 0.0 1.0
  outer loop
    vertex 429.42904877341067 301.18069972721014 1.9999999999999998
    vertex 371.1790487734109 291.1806997272102 1.9999999999999998
    vertex 429.4290487734105 299.18069972721014 1.9999999999999998
  endloop
endfacet
facet normal 0.0 0.0 1.0
  outer loop
    vertex 433.1790487734106 309.1806997272101 1.9999999999999998
    vertex 429.42904877341067 301.18069972721014 1.9999999999999998
    vertex 431.17904877341067 301.18069972721014 1.9999999999999998
  endloop
endfacet
facet normal 0.0 0.0 1.0
  outer loop
    vertex 433.1790487734106 309.1806997272101 1.9999999999999998
    vertex 431.17904877341067 301.18069972721014 1.9999999999999998
    vertex 433.17904877341056 300.18069972721014 1.9999999999999998
  endloop
endfacet
facet normal 0.0 0.0 1.0
  outer loop
    vertex 433.17904877341044 291.18069972721014 1.9999999999999998
    vertex 429.4290487734105 299.18069972721014 1.9999999999999998
    vertex 371.1790487734109 291.1806997272102 1.9999999999999998
  endloop
endfacet
facet normal 0.0 0.0 1.0
  outer loop
    vertex 429.4290487734105 299.18069972721014 1.9999999999999998
    vertex 433.17904877341044 291.18069972721014 1.9999999999999998
    vertex 431.17904877341044 299.18069972721014 1.9999999999999998
  endloop
endfacet
facet normal 0.0 0.0 1.0
  outer loop
    vertex 431.17904877341044 299.18069972721014 1.9999999999999998
    vertex 433.17904877341044 291.18069972721014 1.9999999999999998
    vertex 431.17904877341056 300.18069972721014 1.9999999999999998
  endloop
endfacet
facet normal 0.0 0.0 1.0
  outer loop
    vertex 431.17904877341056 300.18069972721014 1.9999999999999998
    vertex 433.17904877341044 291.18069972721014 1.9999999999999998
    vertex 433.17904877341056 300.18069972721014 1.9999999999999998
  endloop
endfacet
facet normal 1.0 -1.0026547493503654e-14 0.0
  outer loop
    vertex 433.1790487734106 309.1806997272101 0.0
    vertex 433.17904877341044 291.18069972721014 1.9999999999999998
    vertex 433.17904877341044 291.18069972721014 0.0
  endloop
endfacet
facet normal 1.0 -1.0026547493503654e-14 0.0
  outer loop
    vertex 433.17904877341044 291.18069972721014 1.9999999999999998
    vertex 433.1790487734106 309.1806997272101 0.0
    vertex 433.17904877341056 300.18069972721014 1.9999999999999998
  endloop
endfacet
facet normal 1.0 -1.0026547493503654e-14 0.0
  outer loop
    vertex 433.17904877341056 300.18069972721014 1.9999999999999998
    vertex 433.1790487734106 309.1806997272101 0.0
    vertex 433.1790487734106 309.1806997272101 1.9999999999999998
  endloop
endfacet
facet normal -7.277332858188173e-16 -1.0 -0.0
  outer loop
    vertex 433.17904877341044 291.18069972721014 1.9999999999999998
    vertex 371.1790487734109 291.1806997272102 0.0
    vertex 433.17904877341044 291.18069972721014 0.0
  endloop
endfacet
facet normal -7.277332858188173e-16 -1.0 -0.0
  outer loop
    vertex 371.1790487734109 291.1806997272102 0.0
    vertex 433.17904877341044 291.18069972721014 1.9999999999999998
    vertex 371.1790487734109 291.1806997272102 1.9999999999999998
  endloop
endfacet
facet normal -1.0 -1.0026547493503704e-14 -0.0
  outer loop
    vertex 371.1790487734107 309.18069972721 1.9999999999999998
    vertex 371.1790487734109 291.1806997272102 0.0
    vertex 371.1790487734109 291.1806997272102 1.9999999999999998
  endloop
endfacet
facet normal -1.0 -1.0026547493503704e-14 -0.0
  outer loop
    vertex 371.1790487734109 291.1806997272102 0.0
    vertex 371.1790487734107 309.18069972721 1.9999999999999998
    vertex 371.1790487734107 309.18069972721 0.0
  endloop
endfacet
facet normal 0.0 1.0 0.0
  outer loop
    vertex 431.17904877341067 301.18069972721014 7.0
    vertex 432.17904877341067 301.18069972721014 4.5
    vertex 431.17904877341067 301.18069972721014 4.5
  endloop
endfacet
facet normal 1.0 0.0 0.0
  outer loop
    vertex 431.17904877341056 300.18069972721014 3.9999999999999996
    vertex 431.17904877341056 299.18069972721014 4.5
    vertex 431.17904877341056 299.18069972721014 3.9999999999999996
  endloop
endfacet
facet normal 1.0 0.0 0.0
  outer loop
    vertex 431.17904877341056 299.18069972721014 4.5
    vertex 431.17904877341056 300.18069972721014 3.9999999999999996
    vertex 431.17904877341056 300.18069972721014 4.5
  endloop
endfacet
facet normal 1.0 -9.02389274415288e-14 1.4351979761244686e-42
  outer loop
    vertex 431.17904877341067 301.18069972721014 1.9999999999999998
    vertex 431.17904877341056 300.18069972721014 3.9999999999999996
    vertex 431.17904877341056 300.18069972721014 1.9999999999999998
  endloop
endfacet
facet normal 1.0 -9.02389274415288e-14 1.4351979761244686e-42
  outer loop
    vertex 431.17904877341056 300.18069972721014 3.9999999999999996
    vertex 431.17904877341067 301.18069972721014 1.9999999999999998
    vertex 431.17904877341067 301.18069972721014 3.9999999999999996
  endloop
endfacet
facet normal 0.0 0.0 1.0
  outer loop
    vertex 431.17904877341044 299.18069972721014 7.0
    vertex 429.42904877341067 301.18069972721014 7.0
    vertex 429.4290487734105 299.18069972721014 7.0
  endloop
endfacet
facet normal 0.0 0.0 1.0
  outer loop
    vertex 429.42904877341067 301.18069972721014 7.0
    vertex 431.17904877341044 299.18069972721014 7.0
    vertex 431.17904877341067 301.18069972721014 7.0
  endloop
endfacet
facet normal 0.0 0.0 1.0
  outer loop
    vertex 431.17904877341067 301.18069972721014 7.0
    vertex 431.17904877341044 299.18069972721014 7.0
    vertex 431.17904877341056 300.18069972721014 7.0
  endloop
endfacet
facet normal 0.0 -1.0 0.0
  outer loop
    vertex 431.17904877341044 299.18069972721014 7.0
    vertex 431.17904877341056 299.18069972721014 4.5
    vertex 432.17904877341067 299.18069972721014 4.5
  endloop
endfacet
facet normal 1.0 -4.5119463720766435e-14 -2.255973186038318e-14
  outer loop
    vertex 431.17904877341056 300.18069972721014 1.9999999999999998
    vertex 431.17904877341056 299.18069972721014 3.9999999999999996
    vertex 431.17904877341044 299.18069972721014 1.9999999999999998
  endloop
endfacet
facet normal 1.0 -4.5119463720766435e-14 -2.255973186038318e-14
  outer loop
    vertex 431.17904877341056 299.18069972721014 3.9999999999999996
    vertex 431.17904877341056 300.18069972721014 1.9999999999999998
    vertex 431.17904877341056 300.18069972721014 3.9999999999999996
  endloop
endfacet
facet normal 0.0 -1.0 0.0
  outer loop
    vertex 431.17904877341056 299.18069972721014 3.9999999999999996
    vertex 429.4290487734105 299.18069972721014 1.9999999999999998
    vertex 431.17904877341044 299.18069972721014 1.9999999999999998
  endloop
endfacet
facet normal 0.0 -1.0 0.0
  outer loop
    vertex 429.4290487734105 299.18069972721014 1.9999999999999998
    vertex 431.17904877341056 299.18069972721014 3.9999999999999996
    vertex 429.4290487734105 299.18069972721014 7.0
  endloop
endfacet
facet normal 0.0 -1.0 0.0
  outer loop
    vertex 429.4290487734105 299.18069972721014 7.0
    vertex 431.17904877341056 299.18069972721014 3.9999999999999996
    vertex 431.17904877341056 299.18069972721014 4.5
  endloop
endfacet
facet normal 0.0 -1.0 0.0
  outer loop
    vertex 429.4290487734105 299.18069972721014 7.0
    vertex 431.17904877341056 299.18069972721014 4.5
    vertex 431.17904877341044 299.18069972721014 7.0
  endloop
endfacet
facet normal 0.0 0.0 -1.0
  outer loop
    vertex 432.17904877341067 299.18069972721014 4.5
    vertex 431.17904877341056 299.18069972721014 4.5
    vertex 432.17904877341067 301.18069972721014 4.5
  endloop
endfacet
facet normal -1.0 1.2891275348790413e-14 0.0
  outer loop
    vertex 429.42904877341067 301.18069972721014 7.0
    vertex 429.4290487734105 299.18069972721014 1.9999999999999998
    vertex 429.4290487734105 299.18069972721014 7.0
  endloop
endfacet
facet normal -1.0 1.2891275348790413e-14 0.0
  outer loop
    vertex 429.4290487734105 299.18069972721014 1.9999999999999998
    vertex 429.42904877341067 301.18069972721014 7.0
    vertex 429.42904877341067 301.18069972721014 1.9999999999999998
  endloop
endfacet
facet normal 1.0 -4.5119463720766435e-14 1.503982124025545e-14
  outer loop
    vertex 431.17904877341056 300.18069972721014 4.5
    vertex 431.17904877341044 299.18069972721014 7.0
    vertex 431.17904877341056 299.18069972721014 4.5
  endloop
endfacet
facet normal 1.0 -4.5119463720766435e-14 1.503982124025545e-14
  outer loop
    vertex 431.17904877341044 299.18069972721014 7.0
    vertex 431.17904877341056 300.18069972721014 4.5
    vertex 431.17904877341056 300.18069972721014 7.0
  endloop
endfacet
facet normal 0.0 0.0 -1.0
  outer loop
    vertex 431.17904877341067 301.18069972721014 4.5
    vertex 431.17904877341056 299.18069972721014 4.5
    vertex 431.17904877341056 300.18069972721014 4.5
  endloop
endfacet
facet normal 0.0 0.0 -1.0
  outer loop
    vertex 431.17904877341056 299.18069972721014 4.5
    vertex 431.17904877341067 301.18069972721014 4.5
    vertex 432.17904877341067 301.18069972721014 4.5
  endloop
endfacet
facet normal 1.0 -9.023892744152879e-14 4.592633523598289e-41
  outer loop
    vertex 431.17904877341067 301.18069972721014 3.9999999999999996
    vertex 431.17904877341056 300.18069972721014 4.5
    vertex 431.17904877341056 300.18069972721014 3.9999999999999996
  endloop
endfacet
facet normal 1.0 -9.023892744152879e-14 4.592633523598289e-41
  outer loop
    vertex 431.17904877341056 300.18069972721014 4.5
    vertex 431.17904877341067 301.18069972721014 3.9999999999999996
    vertex 431.17904877341067 301.18069972721014 4.5
  endloop
endfacet
facet normal 0.9284766908852423 -4.189955527968668e-14 0.3713906763541466
  outer loop
    vertex 432.17904877341067 301.18069972721014 4.5
    vertex 431.17904877341044 299.18069972721014 7.0
    vertex 432.17904877341067 299.18069972721014 4.5
  endloop
endfacet
facet normal 0.9284766908852423 -4.189955527968668e-14 0.3713906763541466
  outer loop
    vertex 431.17904877341044 299.18069972721014 7.0
    vertex 432.17904877341067 301.18069972721014 4.5
    vertex 431.17904877341056 300.18069972721014 7.0
  endloop
endfacet
facet normal 0.9284766908852423 -4.189955527968668e-14 0.3713906763541466
  outer loop
    vertex 431.17904877341056 300.18069972721014 7.0
    vertex 432.17904877341067 301.18069972721014 4.5
    vertex 431.17904877341067 301.18069972721014 7.0
  endloop
endfacet
facet normal 1.0 -9.023892744152879e-14 0.0
  outer loop
    vertex 431.17904877341067 301.18069972721014 4.5
    vertex 431.17904877341056 300.18069972721014 7.0
    vertex 431.17904877341056 300.18069972721014 4.5
  endloop
endfacet
facet normal 1.0 -9.023892744152879e-14 0.0
  outer loop
    vertex 431.17904877341056 300.18069972721014 7.0
    vertex 431.17904877341067 301.18069972721014 4.5
    vertex 431.17904877341067 301.18069972721014 7.0
  endloop
endfacet
facet normal 0.0 1.0 0.0
  outer loop
    vertex 429.42904877341067 301.18069972721014 7.0
    vertex 431.17904877341067 301.18069972721014 1.9999999999999998
    vertex 429.42904877341067 301.18069972721014 1.9999999999999998
  endloop
endfacet
facet normal 0.0 1.0 0.0
  outer loop
    vertex 431.17904877341067 301.18069972721014 1.9999999999999998
    vertex 429.42904877341067 301.18069972721014 7.0
    vertex 431.17904877341067 301.18069972721014 3.9999999999999996
  endloop
endfacet
facet normal 0.0 1.0 0.0
  outer loop
    vertex 431.17904877341067 301.18069972721014 3.9999999999999996
    vertex 429.42904877341067 301.18069972721014 7.0
    vertex 431.17904877341067 301.18069972721014 4.5
  endloop
endfacet
facet normal 0.0 1.0 0.0
  outer loop
    vertex 431.17904877341067 301.18069972721014 4.5
    vertex 429.42904877341067 301.18069972721014 7.0
    vertex 431.17904877341067 301.18069972721014 7.0
  endloop
endfacet
endsolid ModelosHolderBuenos
