solid ModelosHolderBuenos
facet normal 0.0 0.0 -1.0
  outer loop
    vertex 433.1790487734106 309.1806997272101 0.0
    vertex 371.1790487734109 291.1806997272102 0.0
    vertex 371.1790487734107 309.18069972721 0.0
  endloop
endfacet
facet normal 0.0 0.0 -1.0
  outer loop
    vertex 371.1790487734109 291.1806997272102 0.0
    vertex 433.1790487734106 309.1806997272101 0.0
    vertex 433.17904877341044 291.18069972721014 0.0
  endloop
endfacet
facet normal -7.277332858188131e-16 1.0 0.0
  outer loop
    vertex 371.1790487734107 309.18069972721 1.9999999999999998
    vertex 433.1790487734106 309.1806997272101 0.0
    vertex 371.1790487734107 309.18069972721 0.0
  endloop
endfacet
facet normal -7.277332858188131e-16 1.0 0.0
  outer loop
    vertex 433.1790487734106 309.1806997272101 0.0
    vertex 371.1790487734107 309.18069972721 1.9999999999999998
    vertex 433.1790487734106 309.1806997272101 1.9999999999999998
  endloop
endfacet
facet normal 0.0 0.0 1.0
  outer loop
    vertex 433.17904877341056 300.18069972721014 1.9999999999999998
    vertex 431.17904877341067 301.18069972721014 1.9999999999999998
    vertex 431.17904877341056 300.18069972721014 1.9999999999999998
  endloop
endfacet
facet normal 0.0 0.0 1.0
  outer loop
    vertex 371.1790487734109 291.1806997272102 1.9999999999999998
    vertex 433.1790487734106 309.1806997272101 1.9999999999999998
    vertex 371.1790487734107 309.18069972721 1.9999999999999998
  endloop
endfacet
facet normal 0.0 0.0 1.0
  outer loop
    vertex 433.1790487734106 309.1806997272101 1.9999999999999998
    vertex 371.1790487734109 291.1806997272102 1.9999999999999998
    vertex 429.42904877341067 301.18069972721014 1.9999999999999998
  endloop
endfacet
facet normal 0.0 0.0 1.0
  outer loop
    vertex 429.42904877341067 301.18069972721014 1.9999999999999998
    vertex 371.1790487734109 291.1806997272102 1.9999999999999998
    vertex 429.4290487734105 299.18069972721014 1.9999999999999998
  endloop
endfacet
facet normal 0.0 0.0 1.0
  outer loop
    vertex 433.1790487734106 309.1806997272101 1.9999999999999998
    vertex 429.42904877341067 301.18069972721014 1.9999999999999998
    vertex 431.17904877341067 301.18069972721014 1.9999999999999998
  endloop
endfacet
facet normal 0.0 0.0 1.0
  outer loop
    vertex 433.1790487734106 309.1806997272101 1.9999999999999998
    vertex 431.17904877341067 301.18069972721014 1.9999999999999998
    vertex 433.17904877341056 300.18069972721014 1.9999999999999998
  endloop
endfacet
facet normal 0.0 0.0 1.0
  outer loop
    vertex 433.17904877341044 291.18069972721014 1.9999999999999998
    vertex 429.4290487734105 299.18069972721014 1.9999999999999998
    vertex 371.1790487734109 291.1806997272102 1.9999999999999998
  endloop
endfacet
facet normal 0.0 0.0 1.0
  outer loop
    vertex 429.4290487734105 299.18069972721014 1.9999999999999998
    vertex 433.17904877341044 291.18069972721014 1.9999999999999998
    vertex 431.17904877341044 299.18069972721014 1.9999999999999998
  endloop
endfacet
facet normal 0.0 0.0 1.0
  outer loop
    vertex 431.17904877341044 299.18069972721014 1.9999999999999998
    vertex 433.17904877341044 291.18069972721014 1.9999999999999998
    vertex 431.17904877341056 300.18069972721014 1.9999999999999998
  endloop
endfacet
facet normal 0.0 0.0 1.0
  outer loop
    vertex 431.17904877341056 300.18069972721014 1.9999999999999998
    vertex 433.17904877341044 291.18069972721014 1.9999999999999998
    vertex 433.17904877341056 300.18069972721014 1.9999999999999998
  endloop
endfacet
facet normal 1.0 -1.0026547493503654e-14 0.0
  outer loop
    vertex 433.1790487734106 309.1806997272101 0.0
    vertex 433.17904877341044 291.18069972721014 1.9999999999999998
    vertex 433.17904877341044 291.18069972721014 0.0
  endloop
endfacet
facet normal 1.0 -1.0026547493503654e-14 0.0
  outer loop
    vertex 433.17904877341044 291.18069972721014 1.9999999999999998
    vertex 433.1790487734106 309.1806997272101 0.0
    vertex 433.17904877341056 300.18069972721014 1.9999999999999998
  endloop
endfacet
facet normal 1.0 -1.0026547493503654e-14 0.0
  outer loop
    vertex 433.17904877341056 300.18069972721014 1.9999999999999998
    vertex 433.1790487734106 309.1806997272101 0.0
    vertex 433.1790487734106 309.1806997272101 1.9999999999999998
  endloop
endfacet
facet normal -7.277332858188173e-16 -1.0 -0.0
  outer loop
    vertex 433.17904877341044 291.18069972721014 1.9999999999999998
    vertex 371.1790487734109 291.1806997272102 0.0
    vertex 433.17904877341044 291.18069972721014 0.0
  endloop
endfacet
facet normal -7.277332858188173e-16 -1.0 -0.0
  outer loop
    vertex 371.1790487734109 291.1806997272102 0.0
    vertex 433.17904877341044 291.18069972721014 1.9999999999999998
    vertex 371.1790487734109 291.1806997272102 1.9999999999999998
  endloop
endfacet
facet normal -1.0 -1.0026547493503704e-14 -0.0
  outer loop
    vertex 371.1790487734107 309.18069972721 1.9999999999999998
    vertex 371.1790487734109 291.1806997272102 0.0
    vertex 371.1790487734109 291.1806997272102 1.9999999999999998
  endloop
endfacet
facet normal -1.0 -1.0026547493503704e-14 -0.0
  outer loop
    vertex 371.1790487734109 291.1806997272102 0.0
    vertex 371.1790487734107 309.18069972721 1.9999999999999998
    vertex 371.1790487734107 309.18069972721 0.0
  endloop
endfacet
facet normal 0.0 1.0 0.0
  outer loop
    vertex 431.17904877341067 301.18069972721014 7.0
    vertex 432.17904877341067 301.18069972721014 4.5
    vertex 431.17904877341067 301.18069972721014 4.5
  endloop
endfacet
facet normal 1.0 0.0 0.0
  outer loop
    vertex 431.17904877341056 300.18069972721014 3.9999999999999996
    vertex 431.17904877341056 299.18069972721014 4.5
    vertex 431.17904877341056 299.18069972721014 3.9999999999999996
  endloop
endfacet
facet normal 1.0 0.0 0.0
  outer loop
    vertex 431.17904877341056 299.18069972721014 4.5
    vertex 431.17904877341056 300.18069972721014 3.9999999999999996
    vertex 431.17904877341056 300.18069972721014 4.5
  endloop
endfacet
facet normal 1.0 -9.02389274415288e-14 1.4351979761244686e-42
  outer loop
    vertex 431.17904877341067 301.18069972721014 1.9999999999999998
    vertex 431.17904877341056 300.18069972721014 3.9999999999999996
    vertex 431.17904877341056 300.18069972721014 1.9999999999999998
  endloop
endfacet
facet normal 1.0 -9.02389274415288e-14 1.4351979761244686e-42
  outer loop
    vertex 431.17904877341056 300.18069972721014 3.9999999999999996
    vertex 431.17904877341067 301.18069972721014 1.9999999999999998
    vertex 431.17904877341067 301.18069972721014 3.9999999999999996
  endloop
endfacet
facet normal 0.0 0.0 1.0
  outer loop
    vertex 431.17904877341044 299.18069972721014 7.0
    vertex 429.42904877341067 301.18069972721014 7.0
    vertex 429.4290487734105 299.18069972721014 7.0
  endloop
endfacet
facet normal 0.0 0.0 1.0
  outer loop
    vertex 429.42904877341067 301.18069972721014 7.0
    vertex 431.17904877341044 299.18069972721014 7.0
    vertex 431.17904877341067 301.18069972721014 7.0
  endloop
endfacet
facet normal 0.0 0.0 1.0
  outer loop
    vertex 431.17904877341067 301.18069972721014 7.0
    vertex 431.17904877341044 299.18069972721014 7.0
    vertex 431.17904877341056 300.18069972721014 7.0
  endloop
endfacet
facet normal 0.0 -1.0 0.0
  outer loop
    vertex 431.17904877341044 299.18069972721014 7.0
    vertex 431.17904877341056 299.18069972721014 4.5
    vertex 432.17904877341067 299.18069972721014 4.5
  endloop
endfacet
facet normal 1.0 -4.5119463720766435e-14 -2.255973186038318e-14
  outer loop
    vertex 431.17904877341056 300.18069972721014 1.9999999999999998
    vertex 431.17904877341056 299.18069972721014 3.9999999999999996
    vertex 431.17904877341044 299.18069972721014 1.9999999999999998
  endloop
endfacet
facet normal 1.0 -4.5119463720766435e-14 -2.255973186038318e-14
  outer loop
    vertex 431.17904877341056 299.18069972721014 3.9999999999999996
    vertex 431.17904877341056 300.18069972721014 1.9999999999999998
    vertex 431.17904877341056 300.18069972721014 3.9999999999999996
  endloop
endfacet
facet normal 0.0 -1.0 0.0
  outer loop
    vertex 431.17904877341056 299.18069972721014 3.9999999999999996
    vertex 429.4290487734105 299.18069972721014 1.9999999999999998
    vertex 431.17904877341044 299.18069972721014 1.9999999999999998
  endloop
endfacet
facet normal 0.0 -1.0 0.0
  outer loop
    vertex 429.4290487734105 299.18069972721014 1.9999999999999998
    vertex 431.17904877341056 299.18069972721014 3.9999999999999996
    vertex 429.4290487734105 299.18069972721014 7.0
  endloop
endfacet
facet normal 0.0 -1.0 0.0
  outer loop
    vertex 429.4290487734105 299.18069972721014 7.0
    vertex 431.17904877341056 299.18069972721014 3.9999999999999996
    vertex 431.17904877341056 299.18069972721014 4.5
  endloop
endfacet
facet normal 0.0 -1.0 0.0
  outer loop
    vertex 429.4290487734105 299.18069972721014 7.0
    vertex 431.17904877341056 299.18069972721014 4.5
    vertex 431.17904877341044 299.18069972721014 7.0
  endloop
endfacet
facet normal 0.0 0.0 -1.0
  outer loop
    vertex 432.17904877341067 299.18069972721014 4.5
    vertex 431.17904877341056 299.18069972721014 4.5
    vertex 432.17904877341067 301.18069972721014 4.5
  endloop
endfacet
facet normal -1.0 1.2891275348790413e-14 0.0
  outer loop
    vertex 429.42904877341067 301.18069972721014 7.0
    vertex 429.4290487734105 299.18069972721014 1.9999999999999998
    vertex 429.4290487734105 299.18069972721014 7.0
  endloop
endfacet
facet normal -1.0 1.2891275348790413e-14 0.0
  outer loop
    vertex 429.4290487734105 299.18069972721014 1.9999999999999998
    vertex 429.42904877341067 301.18069972721014 7.0
    vertex 429.42904877341067 301.18069972721014 1.9999999999999998
  endloop
endfacet
facet normal 1.0 -4.5119463720766435e-14 1.503982124025545e-14
  outer loop
    vertex 431.17904877341056 300.18069972721014 4.5
    vertex 431.17904877341044 299.18069972721014 7.0
    vertex 431.17904877341056 299.18069972721014 4.5
  endloop
endfacet
facet normal 1.0 -4.5119463720766435e-14 1.503982124025545e-14
  outer loop
    vertex 431.17904877341044 299.18069972721014 7.0
    vertex 431.17904877341056 300.18069972721014 4.5
    vertex 431.17904877341056 300.18069972721014 7.0
  endloop
endfacet
facet normal 0.0 0.0 -1.0
  outer loop
    vertex 431.17904877341067 301.18069972721014 4.5
    vertex 431.17904877341056 299.18069972721014 4.5
    vertex 431.17904877341056 300.18069972721014 4.5
  endloop
endfacet
facet normal 0.0 0.0 -1.0
  outer loop
    vertex 431.17904877341056 299.18069972721014 4.5
    vertex 431.17904877341067 301.18069972721014 4.5
    vertex 432.17904877341067 301.18069972721014 4.5
  endloop
endfacet
facet normal 1.0 -9.023892744152879e-14 4.592633523598289e-41
  outer loop
    vertex 431.17904877341067 301.18069972721014 3.9999999999999996
    vertex 431.17904877341056 300.18069972721014 4.5
    vertex 431.17904877341056 300.18069972721014 3.9999999999999996
  endloop
endfacet
facet normal 1.0 -9.023892744152879e-14 4.592633523598289e-41
  outer loop
    vertex 431.17904877341056 300.18069972721014 4.5
    vertex 431.17904877341067 301.18069972721014 3.9999999999999996
    vertex 431.17904877341067 301.18069972721014 4.5
  endloop
endfacet
facet normal 0.9284766908852423 -4.189955527968668e-14 0.3713906763541466
  outer loop
    vertex 432.17904877341067 301.18069972721014 4.5
    vertex 431.17904877341044 299.18069972721014 7.0
    vertex 432.17904877341067 299.18069972721014 4.5
  endloop
endfacet
facet normal 0.9284766908852423 -4.189955527968668e-14 0.3713906763541466
  outer loop
    vertex 431.17904877341044 299.18069972721014 7.0
    vertex 432.17904877341067 301.18069972721014 4.5
    vertex 431.17904877341056 300.18069972721014 7.0
  endloop
endfacet
facet normal 0.9284766908852423 -4.189955527968668e-14 0.3713906763541466
  outer loop
    vertex 431.17904877341056 300.18069972721014 7.0
    vertex 432.17904877341067 301.18069972721014 4.5
    vertex 431.17904877341067 301.18069972721014 7.0
  endloop
endfacet
facet normal 1.0 -9.023892744152879e-14 0.0
  outer loop
    vertex 431.17904877341067 301.18069972721014 4.5
    vertex 431.17904877341056 300.18069972721014 7.0
    vertex 431.17904877341056 300.18069972721014 4.5
  endloop
endfacet
facet normal 1.0 -9.023892744152879e-14 0.0
  outer loop
    vertex 431.17904877341056 300.18069972721014 7.0
    vertex 431.17904877341067 301.18069972721014 4.5
    vertex 431.17904877341067 301.18069972721014 7.0
  endloop
endfacet
facet normal 0.0 1.0 0.0
  outer loop
    vertex 429.42904877341067 301.18069972721014 7.0
    vertex 431.17904877341067 301.18069972721014 1.9999999999999998
    vertex 429.42904877341067 301.18069972721014 1.9999999999999998
  endloop
endfacet
facet normal 0.0 1.0 0.0
  outer loop
    vertex 431.17904877341067 301.18069972721014 1.9999999999999998
    vertex 429.42904877341067 301.18069972721014 7.0
    vertex 431.17904877341067 301.18069972721014 3.9999999999999996
  endloop
endfacet
facet normal 0.0 1.0 0.0
  outer loop
    vertex 431.17904877341067 301.18069972721014 3.9999999999999996
    vertex 429.42904877341067 301.18069972721014 7.0
    vertex 431.17904877341067 301.18069972721014 4.5
  endloop
endfacet
facet normal 0.0 1.0 0.0
  outer loop
    vertex 431.17904877341067 301.18069972721014 4.5
    vertex 429.42904877341067 301.18069972721014 7.0
    vertex 431.17904877341067 301.18069972721014 7.0
  endloop
endfacet
facet normal -0.9284766908852595 -1.6236361806737427e-17 0.3713906763541032
  outer loop
    vertex 373.67904877341067 301.18069972721014 7.0
    vertex 372.67904877341067 299.18069972721014 4.5
    vertex 373.67904877341067 299.18069972721014 7.0
  endloop
endfacet
facet normal -0.9284766908852595 -1.6236361806737427e-17 0.3713906763541032
  outer loop
    vertex 372.67904877341067 299.18069972721014 4.5
    vertex 373.67904877341067 301.18069972721014 7.0
    vertex 372.67904877341067 301.18069972721014 4.5
  endloop
endfacet
facet normal -1.0 0.0 0.0
  outer loop
    vertex 373.67904877341067 301.18069972721014 4.5
    vertex 373.67904877341067 299.18069972721014 1.9999999999999998
    vertex 373.67904877341067 299.18069972721014 4.5
  endloop
endfacet
facet normal -1.0 0.0 0.0
  outer loop
    vertex 373.67904877341067 299.18069972721014 1.9999999999999998
    vertex 373.67904877341067 301.18069972721014 4.5
    vertex 373.67904877341067 301.18069972721014 1.9999999999999998
  endloop
endfacet
facet normal 0.0 -1.0 0.0
  outer loop
    vertex 373.67904877341067 299.18069972721014 7.0
    vertex 372.67904877341067 299.18069972721014 4.5
    vertex 373.67904877341067 299.18069972721014 4.5
  endloop
endfacet
facet normal 0.0 0.0 -1.0
  outer loop
    vertex 375.42904877341067 301.18069972721014 1.9999999999999998
    vertex 373.67904877341067 299.18069972721014 1.9999999999999998
    vertex 373.67904877341067 301.18069972721014 1.9999999999999998
  endloop
endfacet
facet normal 0.0 0.0 -1.0
  outer loop
    vertex 373.67904877341067 299.18069972721014 1.9999999999999998
    vertex 375.42904877341067 301.18069972721014 1.9999999999999998
    vertex 375.42904877341067 299.18069972721014 1.9999999999999998
  endloop
endfacet
facet normal -1.0 0.0 0.0
  outer loop
    vertex 373.67904877341067 301.18069972721014 7.0
    vertex 373.67904877341067 299.18069972721014 4.5
    vertex 373.67904877341067 299.18069972721014 7.0
  endloop
endfacet
facet normal -1.0 0.0 0.0
  outer loop
    vertex 373.67904877341067 299.18069972721014 4.5
    vertex 373.67904877341067 301.18069972721014 7.0
    vertex 373.67904877341067 301.18069972721014 4.5
  endloop
endfacet
facet normal 0.0 0.0 -1.0
  outer loop
    vertex 373.67904877341067 301.18069972721014 4.5
    vertex 372.67904877341067 299.18069972721014 4.5
    vertex 372.67904877341067 301.18069972721014 4.5
  endloop
endfacet
facet normal 0.0 0.0 -1.0
  outer loop
    vertex 372.67904877341067 299.18069972721014 4.5
    vertex 373.67904877341067 301.18069972721014 4.5
    vertex 373.67904877341067 299.18069972721014 4.5
  endloop
endfacet
facet normal -0.0 -1.0 -0.0
  outer loop
    vertex 375.42904877341067 299.18069972721014 7.0
    vertex 373.67904877341067 299.18069972721014 1.9999999999999998
    vertex 375.42904877341067 299.18069972721014 1.9999999999999998
  endloop
endfacet
facet normal -0.0 -1.0 -0.0
  outer loop
    vertex 373.67904877341067 299.18069972721014 1.9999999999999998
    vertex 375.42904877341067 299.18069972721014 7.0
    vertex 373.67904877341067 299.18069972721014 4.5
  endloop
endfacet
facet normal -0.0 -1.0 -0.0
  outer loop
    vertex 373.67904877341067 299.18069972721014 4.5
    vertex 375.42904877341067 299.18069972721014 7.0
    vertex 373.67904877341067 299.18069972721014 7.0
  endloop
endfacet
facet normal 0.0 1.0 0.0
  outer loop
    vertex 373.67904877341067 301.18069972721014 4.5
    vertex 375.42904877341067 301.18069972721014 1.9999999999999998
    vertex 373.67904877341067 301.18069972721014 1.9999999999999998
  endloop
endfacet
facet normal 0.0 1.0 0.0
  outer loop
    vertex 375.42904877341067 301.18069972721014 1.9999999999999998
    vertex 373.67904877341067 301.18069972721014 4.5
    vertex 375.42904877341067 301.18069972721014 7.0
  endloop
endfacet
facet normal 0.0 1.0 0.0
  outer loop
    vertex 375.42904877341067 301.18069972721014 7.0
    vertex 373.67904877341067 301.18069972721014 4.5
    vertex 373.67904877341067 301.18069972721014 7.0
  endloop
endfacet
facet normal 1.0 0.0 0.0
  outer loop
    vertex 375.42904877341067 301.18069972721014 1.9999999999999998
    vertex 375.42904877341067 299.18069972721014 7.0
    vertex 375.42904877341067 299.18069972721014 1.9999999999999998
  endloop
endfacet
facet normal 1.0 0.0 0.0
  outer loop
    vertex 375.42904877341067 299.18069972721014 7.0
    vertex 375.42904877341067 301.18069972721014 1.9999999999999998
    vertex 375.42904877341067 301.18069972721014 7.0
  endloop
endfacet
facet normal 0.0 1.0 0.0
  outer loop
    vertex 373.67904877341067 301.18069972721014 7.0
    vertex 373.67904877341067 301.18069972721014 4.5
    vertex 372.67904877341067 301.18069972721014 4.5
  endloop
endfacet
facet normal 0.0 0.0 1.0
  outer loop
    vertex 375.42904877341067 299.18069972721014 7.0
    vertex 373.67904877341067 301.18069972721014 7.0
    vertex 373.67904877341067 299.18069972721014 7.0
  endloop
endfacet
facet normal 0.0 0.0 1.0
  outer loop
    vertex 373.67904877341067 301.18069972721014 7.0
    vertex 375.42904877341067 299.18069972721014 7.0
    vertex 375.42904877341067 301.18069972721014 7.0
  endloop
endfacet
facet normal 0.0 0.0 -1.0
  outer loop
    vertex 424.6041617348671 336.80568526330893 0.0
    vertex 362.6041617348674 318.80568526330904 0.0
    vertex 362.6041617348672 336.80568526330893 0.0
  endloop
endfacet
facet normal 0.0 0.0 -1.0
  outer loop
    vertex 362.6041617348674 318.80568526330904 0.0
    vertex 424.6041617348671 336.80568526330893 0.0
    vertex 424.60416173486686 318.805685263309 0.0
  endloop
endfacet
facet normal -7.277332858188131e-16 1.0 0.0
  outer loop
    vertex 362.6041617348672 336.80568526330893 1.9999999999999998
    vertex 424.6041617348671 336.80568526330893 0.0
    vertex 362.6041617348672 336.80568526330893 0.0
  endloop
endfacet
facet normal -7.277332858188131e-16 1.0 0.0
  outer loop
    vertex 424.6041617348671 336.80568526330893 0.0
    vertex 362.6041617348672 336.80568526330893 1.9999999999999998
    vertex 424.6041617348671 336.80568526330893 1.9999999999999998
  endloop
endfacet
facet normal 0.0 0.0 1.0
  outer loop
    vertex 424.6041617348671 327.805685263309 1.9999999999999998
    vertex 422.60416173486715 334.80568526330893 1.9999999999999998
    vertex 422.604161734867 327.805685263309 1.9999999999999998
  endloop
endfacet
facet normal 0.0 0.0 1.0
  outer loop
    vertex 362.6041617348674 318.80568526330904 1.9999999999999998
    vertex 424.6041617348671 336.80568526330893 1.9999999999999998
    vertex 362.6041617348672 336.80568526330893 1.9999999999999998
  endloop
endfacet
facet normal 0.0 0.0 1.0
  outer loop
    vertex 424.6041617348671 336.80568526330893 1.9999999999999998
    vertex 362.6041617348674 318.80568526330904 1.9999999999999998
    vertex 420.8541617348672 334.80568526330893 1.9999999999999998
  endloop
endfacet
facet normal 0.0 0.0 1.0
  outer loop
    vertex 420.8541617348672 334.80568526330893 1.9999999999999998
    vertex 362.6041617348674 318.80568526330904 1.9999999999999998
    vertex 420.85416173486703 320.80568526330904 1.9999999999999998
  endloop
endfacet
facet normal 0.0 0.0 1.0
  outer loop
    vertex 424.6041617348671 336.80568526330893 1.9999999999999998
    vertex 420.8541617348672 334.80568526330893 1.9999999999999998
    vertex 422.60416173486715 334.80568526330893 1.9999999999999998
  endloop
endfacet
facet normal 0.0 0.0 1.0
  outer loop
    vertex 424.6041617348671 336.80568526330893 1.9999999999999998
    vertex 422.60416173486715 334.80568526330893 1.9999999999999998
    vertex 424.6041617348671 327.805685263309 1.9999999999999998
  endloop
endfacet
facet normal 0.0 0.0 1.0
  outer loop
    vertex 424.60416173486686 318.805685263309 1.9999999999999998
    vertex 420.85416173486703 320.80568526330904 1.9999999999999998
    vertex 362.6041617348674 318.80568526330904 1.9999999999999998
  endloop
endfacet
facet normal 0.0 0.0 1.0
  outer loop
    vertex 420.85416173486703 320.80568526330904 1.9999999999999998
    vertex 424.60416173486686 318.805685263309 1.9999999999999998
    vertex 422.604161734867 320.80568526330904 1.9999999999999998
  endloop
endfacet
facet normal 0.0 0.0 1.0
  outer loop
    vertex 422.604161734867 320.80568526330904 1.9999999999999998
    vertex 424.60416173486686 318.805685263309 1.9999999999999998
    vertex 422.604161734867 327.805685263309 1.9999999999999998
  endloop
endfacet
facet normal 0.0 0.0 1.0
  outer loop
    vertex 422.604161734867 327.805685263309 1.9999999999999998
    vertex 424.60416173486686 318.805685263309 1.9999999999999998
    vertex 424.6041617348671 327.805685263309 1.9999999999999998
  endloop
endfacet
facet normal 1.0 -1.0026547493503654e-14 0.0
  outer loop
    vertex 424.6041617348671 336.80568526330893 0.0
    vertex 424.60416173486686 318.805685263309 1.9999999999999998
    vertex 424.60416173486686 318.805685263309 0.0
  endloop
endfacet
facet normal 1.0 -1.0026547493503654e-14 0.0
  outer loop
    vertex 424.60416173486686 318.805685263309 1.9999999999999998
    vertex 424.6041617348671 336.80568526330893 0.0
    vertex 424.6041617348671 327.805685263309 1.9999999999999998
  endloop
endfacet
facet normal 1.0 -1.0026547493503654e-14 0.0
  outer loop
    vertex 424.6041617348671 327.805685263309 1.9999999999999998
    vertex 424.6041617348671 336.80568526330893 0.0
    vertex 424.6041617348671 336.80568526330893 1.9999999999999998
  endloop
endfacet
facet normal -7.277332858188173e-16 -1.0 -0.0
  outer loop
    vertex 424.60416173486686 318.805685263309 1.9999999999999998
    vertex 362.6041617348674 318.80568526330904 0.0
    vertex 424.60416173486686 318.805685263309 0.0
  endloop
endfacet
facet normal -7.277332858188173e-16 -1.0 -0.0
  outer loop
    vertex 362.6041617348674 318.80568526330904 0.0
    vertex 424.60416173486686 318.805685263309 1.9999999999999998
    vertex 362.6041617348674 318.80568526330904 1.9999999999999998
  endloop
endfacet
facet normal -1.0 -1.0026547493503704e-14 -0.0
  outer loop
    vertex 362.6041617348672 336.80568526330893 1.9999999999999998
    vertex 362.6041617348674 318.80568526330904 0.0
    vertex 362.6041617348674 318.80568526330904 1.9999999999999998
  endloop
endfacet
facet normal -1.0 -1.0026547493503704e-14 -0.0
  outer loop
    vertex 362.6041617348674 318.80568526330904 0.0
    vertex 362.6041617348672 336.80568526330893 1.9999999999999998
    vertex 362.6041617348672 336.80568526330893 0.0
  endloop
endfacet
facet normal 1.0 -9.02389274415288e-14 1.4351979761244686e-42
  outer loop
    vertex 422.60416173486715 334.80568526330893 1.9999999999999998
    vertex 422.604161734867 327.805685263309 3.9999999999999996
    vertex 422.604161734867 327.805685263309 1.9999999999999998
  endloop
endfacet
facet normal 1.0 -9.02389274415288e-14 1.4351979761244686e-42
  outer loop
    vertex 422.604161734867 327.805685263309 3.9999999999999996
    vertex 422.60416173486715 334.80568526330893 1.9999999999999998
    vertex 422.60416173486715 334.80568526330893 3.9999999999999996
  endloop
endfacet
facet normal 0.0 0.0 1.0
  outer loop
    vertex 422.604161734867 320.80568526330904 7.0
    vertex 420.8541617348672 334.80568526330893 7.0
    vertex 420.85416173486703 320.80568526330904 7.0
  endloop
endfacet
facet normal 0.0 0.0 1.0
  outer loop
    vertex 420.8541617348672 334.80568526330893 7.0
    vertex 422.604161734867 320.80568526330904 7.0
    vertex 422.604161734867 326.805685263309 7.0
  endloop
endfacet
facet normal 0.0 0.0 1.0
  outer loop
    vertex 420.8541617348672 334.80568526330893 7.0
    vertex 422.604161734867 326.805685263309 7.0
    vertex 422.60416173486715 334.80568526330893 7.0
  endloop
endfacet
facet normal 0.0 0.0 1.0
  outer loop
    vertex 422.60416173486715 334.80568526330893 7.0
    vertex 422.604161734867 326.805685263309 7.0
    vertex 422.60416173486715 328.805685263309 7.0
  endloop
endfacet
facet normal 1.0 -4.5119463720766435e-14 -2.255973186038318e-14
  outer loop
    vertex 422.604161734867 327.805685263309 1.9999999999999998
    vertex 422.604161734867 320.80568526330904 3.9999999999999996
    vertex 422.604161734867 320.80568526330904 1.9999999999999998
  endloop
endfacet
facet normal 1.0 -4.5119463720766435e-14 -2.255973186038318e-14
  outer loop
    vertex 422.604161734867 320.80568526330904 3.9999999999999996
    vertex 422.604161734867 327.805685263309 1.9999999999999998
    vertex 422.604161734867 327.805685263309 3.9999999999999996
  endloop
endfacet
facet normal -1.0 1.2891275348790413e-14 0.0
  outer loop
    vertex 420.8541617348672 334.80568526330893 7.0
    vertex 420.85416173486703 320.80568526330904 1.9999999999999998
    vertex 420.85416173486703 320.80568526330904 7.0
  endloop
endfacet
facet normal -1.0 1.2891275348790413e-14 0.0
  outer loop
    vertex 420.85416173486703 320.80568526330904 1.9999999999999998
    vertex 420.8541617348672 334.80568526330893 7.0
    vertex 420.8541617348672 334.80568526330893 1.9999999999999998
  endloop
endfacet
facet normal 1.0 -1.4438228390645353e-14 4.5403233932846454e-15
  outer loop
    vertex 422.60416173486715 334.80568526330893 3.9999999999999996
    vertex 422.60416173486715 328.805685263309 4.5
    vertex 422.604161734867 327.805685263309 3.9999999999999996
  endloop
endfacet
facet normal 1.0 -1.4438228390645353e-14 4.5403233932846454e-15
  outer loop
    vertex 422.60416173486715 328.805685263309 4.5
    vertex 422.60416173486715 334.80568526330893 3.9999999999999996
    vertex 422.60416173486715 334.80568526330893 4.5
  endloop
endfacet
facet normal 1.0 -1.4438228390645353e-14 4.5403233932846454e-15
  outer loop
    vertex 422.604161734867 327.805685263309 3.9999999999999996
    vertex 422.604161734867 320.80568526330904 4.5
    vertex 422.604161734867 320.80568526330904 3.9999999999999996
  endloop
endfacet
facet normal 1.0 -1.4438228390645353e-14 4.5403233932846454e-15
  outer loop
    vertex 422.604161734867 320.80568526330904 4.5
    vertex 422.604161734867 327.805685263309 3.9999999999999996
    vertex 422.604161734867 326.805685263309 4.5
  endloop
endfacet
facet normal 1.0 -1.4438228390645353e-14 4.5403233932846454e-15
  outer loop
    vertex 422.604161734867 326.805685263309 4.5
    vertex 422.604161734867 327.805685263309 3.9999999999999996
    vertex 422.604161734867 326.805685263309 7.0
  endloop
endfacet
facet normal 1.0 -1.4438228390645353e-14 4.5403233932846454e-15
  outer loop
    vertex 422.604161734867 326.805685263309 7.0
    vertex 422.604161734867 327.805685263309 3.9999999999999996
    vertex 422.60416173486715 328.805685263309 7.0
  endloop
endfacet
facet normal 1.0 -1.4438228390645353e-14 4.5403233932846454e-15
  outer loop
    vertex 422.60416173486715 328.805685263309 7.0
    vertex 422.604161734867 327.805685263309 3.9999999999999996
    vertex 422.60416173486715 328.805685263309 4.5
  endloop
endfacet
facet normal 0.0 1.0 0.0
  outer loop
    vertex 420.8541617348672 334.80568526330893 7.0
    vertex 422.60416173486715 334.80568526330893 1.9999999999999998
    vertex 420.8541617348672 334.80568526330893 1.9999999999999998
  endloop
endfacet
facet normal 0.0 1.0 0.0
  outer loop
    vertex 422.60416173486715 334.80568526330893 1.9999999999999998
    vertex 420.8541617348672 334.80568526330893 7.0
    vertex 422.60416173486715 334.80568526330893 3.9999999999999996
  endloop
endfacet
facet normal 0.0 1.0 0.0
  outer loop
    vertex 422.60416173486715 334.80568526330893 3.9999999999999996
    vertex 420.8541617348672 334.80568526330893 7.0
    vertex 422.60416173486715 334.80568526330893 4.5
  endloop
endfacet
facet normal 0.0 1.0 0.0
  outer loop
    vertex 422.60416173486715 334.80568526330893 4.5
    vertex 420.8541617348672 334.80568526330893 7.0
    vertex 422.60416173486715 334.80568526330893 7.0
  endloop
endfacet
facet normal 1.0 0.0 0.0
  outer loop
    vertex 422.60416173486715 334.80568526330893 4.5
    vertex 422.60416173486715 328.805685263309 7.0
    vertex 422.60416173486715 328.805685263309 4.5
  endloop
endfacet
facet normal 1.0 0.0 0.0
  outer loop
    vertex 422.60416173486715 328.805685263309 7.0
    vertex 422.60416173486715 334.80568526330893 4.5
    vertex 422.60416173486715 334.80568526330893 7.0
  endloop
endfacet
facet normal 0.0 -1.0 0.0
  outer loop
    vertex 422.604161734867 320.80568526330904 3.9999999999999996
    vertex 420.85416173486703 320.80568526330904 1.9999999999999998
    vertex 422.604161734867 320.80568526330904 1.9999999999999998
  endloop
endfacet
facet normal 0.0 -1.0 0.0
  outer loop
    vertex 420.85416173486703 320.80568526330904 1.9999999999999998
    vertex 422.604161734867 320.80568526330904 3.9999999999999996
    vertex 420.85416173486703 320.80568526330904 7.0
  endloop
endfacet
facet normal 0.0 -1.0 0.0
  outer loop
    vertex 420.85416173486703 320.80568526330904 7.0
    vertex 422.604161734867 320.80568526330904 3.9999999999999996
    vertex 422.604161734867 320.80568526330904 4.5
  endloop
endfacet
facet normal 0.0 -1.0 0.0
  outer loop
    vertex 420.85416173486703 320.80568526330904 7.0
    vertex 422.604161734867 320.80568526330904 4.5
    vertex 422.604161734867 320.80568526330904 7.0
  endloop
endfacet
facet normal 1.0 0.0 0.0
  outer loop
    vertex 422.604161734867 326.805685263309 4.5
    vertex 422.604161734867 320.80568526330904 7.0
    vertex 422.604161734867 320.80568526330904 4.5
  endloop
endfacet
facet normal 1.0 0.0 0.0
  outer loop
    vertex 422.604161734867 320.80568526330904 7.0
    vertex 422.604161734867 326.805685263309 4.5
    vertex 422.604161734867 326.805685263309 7.0
  endloop
endfacet
facet normal -1.0 0.0 0.0
  outer loop
    vertex 365.10416173486715 326.805685263309 4.5
    vertex 365.10416173486715 320.805685263309 1.9999999999999998
    vertex 365.10416173486715 320.805685263309 4.5
  endloop
endfacet
facet normal -1.0 0.0 0.0
  outer loop
    vertex 365.10416173486715 320.805685263309 1.9999999999999998
    vertex 365.10416173486715 326.805685263309 4.5
    vertex 365.10416173486715 334.80568526330893 1.9999999999999998
  endloop
endfacet
facet normal -1.0 0.0 0.0
  outer loop
    vertex 365.10416173486715 334.80568526330893 1.9999999999999998
    vertex 365.10416173486715 326.805685263309 4.5
    vertex 365.10416173486715 328.805685263309 4.5
  endloop
endfacet
facet normal -1.0 0.0 0.0
  outer loop
    vertex 365.10416173486715 334.80568526330893 1.9999999999999998
    vertex 365.10416173486715 328.805685263309 4.5
    vertex 365.10416173486715 334.80568526330893 4.5
  endloop
endfacet
facet normal 0.0 0.0 -1.0
  outer loop
    vertex 366.85416173486715 334.80568526330893 1.9999999999999998
    vertex 365.10416173486715 320.805685263309 1.9999999999999998
    vertex 365.10416173486715 334.80568526330893 1.9999999999999998
  endloop
endfacet
facet normal 0.0 0.0 -1.0
  outer loop
    vertex 365.10416173486715 320.805685263309 1.9999999999999998
    vertex 366.85416173486715 334.80568526330893 1.9999999999999998
    vertex 366.85416173486715 320.805685263309 1.9999999999999998
  endloop
endfacet
facet normal -1.0 0.0 0.0
  outer loop
    vertex 365.10416173486715 328.805685263309 7.0
    vertex 365.10416173486715 326.805685263309 4.5
    vertex 365.10416173486715 326.805685263309 7.0
  endloop
endfacet
facet normal -1.0 0.0 0.0
  outer loop
    vertex 365.10416173486715 326.805685263309 4.5
    vertex 365.10416173486715 328.805685263309 7.0
    vertex 365.10416173486715 328.805685263309 4.5
  endloop
endfacet
facet normal 1.0 0.0 0.0
  outer loop
    vertex 366.85416173486715 334.80568526330893 1.9999999999999998
    vertex 366.85416173486715 320.805685263309 7.0
    vertex 366.85416173486715 320.805685263309 1.9999999999999998
  endloop
endfacet
facet normal 1.0 0.0 0.0
  outer loop
    vertex 366.85416173486715 320.805685263309 7.0
    vertex 366.85416173486715 334.80568526330893 1.9999999999999998
    vertex 366.85416173486715 334.80568526330893 7.0
  endloop
endfacet
facet normal 0.0 0.0 1.0
  outer loop
    vertex 366.85416173486715 320.805685263309 7.0
    vertex 365.10416173486715 326.805685263309 7.0
    vertex 365.10416173486715 320.805685263309 7.0
  endloop
endfacet
facet normal 0.0 0.0 1.0
  outer loop
    vertex 365.10416173486715 326.805685263309 7.0
    vertex 366.85416173486715 320.805685263309 7.0
    vertex 365.10416173486715 328.805685263309 7.0
  endloop
endfacet
facet normal 0.0 0.0 1.0
  outer loop
    vertex 365.10416173486715 328.805685263309 7.0
    vertex 366.85416173486715 320.805685263309 7.0
    vertex 365.10416173486715 334.80568526330893 7.0
  endloop
endfacet
facet normal 0.0 0.0 1.0
  outer loop
    vertex 365.10416173486715 334.80568526330893 7.0
    vertex 366.85416173486715 320.805685263309 7.0
    vertex 366.85416173486715 334.80568526330893 7.0
  endloop
endfacet
facet normal 0.0 1.0 0.0
  outer loop
    vertex 365.10416173486715 334.80568526330893 4.5
    vertex 366.85416173486715 334.80568526330893 1.9999999999999998
    vertex 365.10416173486715 334.80568526330893 1.9999999999999998
  endloop
endfacet
facet normal 0.0 1.0 0.0
  outer loop
    vertex 366.85416173486715 334.80568526330893 1.9999999999999998
    vertex 365.10416173486715 334.80568526330893 4.5
    vertex 366.85416173486715 334.80568526330893 7.0
  endloop
endfacet
facet normal 0.0 1.0 0.0
  outer loop
    vertex 366.85416173486715 334.80568526330893 7.0
    vertex 365.10416173486715 334.80568526330893 4.5
    vertex 365.10416173486715 334.80568526330893 7.0
  endloop
endfacet
facet normal -1.0 0.0 0.0
  outer loop
    vertex 365.10416173486715 334.80568526330893 7.0
    vertex 365.10416173486715 328.805685263309 4.5
    vertex 365.10416173486715 328.805685263309 7.0
  endloop
endfacet
facet normal -1.0 0.0 0.0
  outer loop
    vertex 365.10416173486715 328.805685263309 4.5
    vertex 365.10416173486715 334.80568526330893 7.0
    vertex 365.10416173486715 334.80568526330893 4.5
  endloop
endfacet
facet normal -0.0 -1.0 -0.0
  outer loop
    vertex 366.85416173486715 320.805685263309 7.0
    vertex 365.10416173486715 320.805685263309 1.9999999999999998
    vertex 366.85416173486715 320.805685263309 1.9999999999999998
  endloop
endfacet
facet normal -0.0 -1.0 -0.0
  outer loop
    vertex 365.10416173486715 320.805685263309 1.9999999999999998
    vertex 366.85416173486715 320.805685263309 7.0
    vertex 365.10416173486715 320.805685263309 4.5
  endloop
endfacet
facet normal -0.0 -1.0 -0.0
  outer loop
    vertex 365.10416173486715 320.805685263309 4.5
    vertex 366.85416173486715 320.805685263309 7.0
    vertex 365.10416173486715 320.805685263309 7.0
  endloop
endfacet
facet normal -1.0 0.0 0.0
  outer loop
    vertex 365.10416173486715 326.805685263309 7.0
    vertex 365.10416173486715 320.805685263309 4.5
    vertex 365.10416173486715 320.805685263309 7.0
  endloop
endfacet
facet normal -1.0 0.0 0.0
  outer loop
    vertex 365.10416173486715 320.805685263309 4.5
    vertex 365.10416173486715 326.805685263309 7.0
    vertex 365.10416173486715 326.805685263309 4.5
  endloop
endfacet
endsolid ModelosHolderBuenos
